<svg xmlns="http://www.w3.org/2000/svg" viewBox="0 0 1400 900" role="img" aria-label="البنية المرصودة لسهم ألفابت" preserveAspectRatio="xMidYMid meet" direction="rtl" data-series-hash="e55b06124d9480286d16bfacb5deb5cbbe75fdebdb3c484140f79e191f09accc" data-bar-count="90" data-overlay-count="3" data-time-axis="true" data-time-ticks="5" data-time-tick-dates="2026-02-06|2026-03-11|2026-04-14|2026-05-14|2026-06-16">
<rect width="1400" height="900" fill="#0b0e13"/>
<rect width="1400" height="3" fill="#d8b15a" opacity=".88"/>
<text x="1180" y="52" text-anchor="end" direction="rtl" font-family="'Tajawal','Cairo','Segoe UI',Arial,sans-serif" font-size="18" font-weight="700" fill="#d8b15a">البنية السعرية المؤسسية</text>
<text x="1180" y="96" text-anchor="end" direction="rtl" font-family="'Tajawal','Cairo','Segoe UI',Arial,sans-serif" font-size="34" font-weight="760" fill="#f4f7f1">البنية المرصودة لسهم ألفابت</text>
<rect x="92" y="142" width="1088" height="480" rx="8" fill="#10151d" stroke="rgba(148,163,184,.2)"/>
<line x1="92" y1="622.0" x2="1180" y2="622.0" stroke="rgba(148,163,184,.12)"/>
<text x="1170" y="615.0" text-anchor="end" font-family="'Inter','Segoe UI',Arial,sans-serif" font-size="15" fill="#9aa49d">261.19</text>
<line x1="92" y1="526.0" x2="1180" y2="526.0" stroke="rgba(148,163,184,.12)"/>
<text x="1170" y="519.0" text-anchor="end" font-family="'Inter','Segoe UI',Arial,sans-serif" font-size="15" fill="#9aa49d">292.86</text>
<line x1="92" y1="430.0" x2="1180" y2="430.0" stroke="rgba(148,163,184,.12)"/>
<text x="1170" y="423.0" text-anchor="end" font-family="'Inter','Segoe UI',Arial,sans-serif" font-size="15" fill="#9aa49d">324.53</text>
<line x1="92" y1="334.0" x2="1180" y2="334.0" stroke="rgba(148,163,184,.12)"/>
<text x="1170" y="327.0" text-anchor="end" font-family="'Inter','Segoe UI',Arial,sans-serif" font-size="15" fill="#9aa49d">356.19</text>
<line x1="92" y1="238.0" x2="1180" y2="238.0" stroke="rgba(148,163,184,.12)"/>
<text x="1170" y="231.0" text-anchor="end" font-family="'Inter','Segoe UI',Arial,sans-serif" font-size="15" fill="#9aa49d">387.86</text>
<line x1="92" y1="142.0" x2="1180" y2="142.0" stroke="rgba(148,163,184,.12)"/>
<text x="1170" y="135.0" text-anchor="end" font-family="'Inter','Segoe UI',Arial,sans-serif" font-size="15" fill="#9aa49d">419.53</text>
<rect x="92" y="348.4" width="1088" height="15.4" fill="#6ee7d8" opacity=".09"/>
<line x1="92" y1="348.4" x2="1180" y2="348.4" stroke="#6ee7d8" stroke-width="1.2" opacity=".58"/>
<line x1="92" y1="363.8" x2="1180" y2="363.8" stroke="#6ee7d8" stroke-width="1.2" opacity=".58"/>
<rect x="92" y="209.8" width="1088" height="15.4" fill="#d8b15a" opacity=".09"/>
<line x1="92" y1="209.8" x2="1180" y2="209.8" stroke="#d8b15a" stroke-width="1.2" opacity=".58"/>
<line x1="92" y1="225.2" x2="1180" y2="225.2" stroke="#d8b15a" stroke-width="1.2" opacity=".58"/>
<polyline points="92.0,435.1 104.2,430.6 116.4,448.0 128.7,471.1 140.9,477.1 153.1,487.0 165.3,498.2 177.6,494.3 189.8,495.7 202.0,458.9 214.2,469.5 226.5,471.3 238.7,465.2 250.9,482.0 263.1,468.7 275.4,484.6 287.6,493.5 299.8,494.9 312.0,501.7 324.3,508.8 336.5,485.1 348.7,483.0 360.9,478.0 373.2,493.6 385.4,497.4 397.6,487.5 409.8,471.2 422.1,481.0 434.3,482.7 446.5,501.3 458.7,498.1 471.0,533.3 483.2,531.8 495.4,562.2 507.6,582.1 519.9,584.7 532.1,542.1 544.3,512.3 556.5,517.2 568.8,504.4 581.0,487.8 593.2,451.8 605.4,448.3 617.7,452.1 629.9,439.7 642.1,404.6 654.3,391.8 666.6,395.2 678.8,378.0 691.0,390.9 703.2,406.5 715.5,385.2 727.7,386.5 739.9,369.8 752.1,351.7 764.4,353.4 776.6,353.0 788.8,247.3 801.0,244.6 813.3,252.0 825.5,236.3 837.7,207.1 849.9,207.3 862.2,198.8 874.4,235.6 886.6,239.6 898.8,193.3 911.1,198.0 923.3,211.0 935.5,210.5 947.7,238.6 960.0,234.8 972.2,238.6 984.4,252.8 996.6,234.9 1008.9,235.1 1021.1,231.1 1033.3,260.8 1045.5,272.8 1057.8,316.9 1070.0,325.5 1082.2,285.5 1094.4,296.6 1106.7,312.4 1118.9,309.5 1131.1,333.4 1143.3,329.2 1155.6,323.4 1167.8,294.1 1180.0,282.3" fill="none" stroke="#d9e2dc" stroke-width="3" stroke-linejoin="round" stroke-linecap="round"/>
<circle cx="1180.0" cy="282.3" r="5.5" fill="#f2d27b"/>
<line x1="92.0" y1="622" x2="92.0" y2="630" stroke="#69746d" stroke-width="1"/>
<text x="92.0" y="652" text-anchor="start" font-family="'Tajawal','Cairo','Segoe UI',Arial,sans-serif" font-size="14" fill="#9aa49d" direction="rtl">6 فبر 2026</text>
<line x1="360.9" y1="622" x2="360.9" y2="630" stroke="#69746d" stroke-width="1"/>
<text x="360.9" y="652" text-anchor="middle" font-family="'Tajawal','Cairo','Segoe UI',Arial,sans-serif" font-size="14" fill="#9aa49d" direction="rtl">11 مار 2026</text>
<line x1="642.1" y1="622" x2="642.1" y2="630" stroke="#69746d" stroke-width="1"/>
<text x="642.1" y="652" text-anchor="middle" font-family="'Tajawal','Cairo','Segoe UI',Arial,sans-serif" font-size="14" fill="#9aa49d" direction="rtl">14 أبر 2026</text>
<line x1="911.1" y1="622" x2="911.1" y2="630" stroke="#69746d" stroke-width="1"/>
<text x="911.1" y="652" text-anchor="middle" font-family="'Tajawal','Cairo','Segoe UI',Arial,sans-serif" font-size="14" fill="#9aa49d" direction="rtl">14 ماي 2026</text>
<line x1="1180.0" y1="622" x2="1180.0" y2="630" stroke="#69746d" stroke-width="1"/>
<text x="1180.0" y="652" text-anchor="end" font-family="'Tajawal','Cairo','Segoe UI',Arial,sans-serif" font-size="14" fill="#9aa49d" direction="rtl">16 يون 2026</text>
<g data-overlay-type="support_resistance_zone" data-evidence-refs="ohlcv:2026-05-19:2026-06-16:low" data-zone-type="support_resistance_zone" data-zone-role="floor" data-lower="346.3599853515625" data-upper="351.43898620605466" data-method="20_session_extreme_atr_band">
<rect x="1174" y="678" width="5" height="14" fill="#d8b15a" opacity=".8"/>
<text x="1160" y="690" text-anchor="end" direction="rtl" font-family="'Tajawal','Cairo','Segoe UI',Arial,sans-serif" font-size="15" fill="#cad3c7">الحد الأدنى للنطاق المرصود</text>
</g>
<g data-overlay-type="support_resistance_zone" data-evidence-refs="ohlcv:2026-05-19:2026-06-16:high" data-zone-type="support_resistance_zone" data-zone-role="ceiling" data-lower="392.0709930419922" data-upper="397.1499938964844" data-method="20_session_extreme_atr_band">
<rect x="1174" y="700" width="5" height="14" fill="#d8b15a" opacity=".8"/>
<text x="1160" y="712" text-anchor="end" direction="rtl" font-family="'Tajawal','Cairo','Segoe UI',Arial,sans-serif" font-size="15" fill="#cad3c7">الحد الأعلى للنطاق المرصود</text>
</g>
<g data-overlay-type="structure" data-evidence-refs="ohlcv:2026-04-21:2026-05-18:range|ohlcv:2026-06-16:close" data-method="latest_close_vs_prior_20_session_range">
<rect x="1174" y="722" width="5" height="14" fill="#d8b15a" opacity=".8"/>
<text x="1160" y="734" text-anchor="end" direction="rtl" font-family="'Tajawal','Cairo','Segoe UI',Arial,sans-serif" font-size="15" fill="#cad3c7">الإغلاق ما زال داخل النطاق المرصود السابق</text>
</g>
<text x="1180" y="870" text-anchor="end" direction="rtl" font-family="'Tajawal','Cairo','Segoe UI',Arial,sans-serif" font-size="13" fill="#8d978f">المصدر: بيانات OHLCV اليومية من Yahoo · حتى 2026-06-16</text>
<text x="1180" y="890" text-anchor="end" direction="rtl" font-family="'Tajawal','Cairo','Segoe UI',Arial,sans-serif" font-size="12" fill="#5d675f">قراءة للبنية المرصودة، وليست توقعاً أو توصية</text>
</svg>
