<svg xmlns="http://www.w3.org/2000/svg" viewBox="0 0 1400 900" role="img" aria-label="البنية المرصودة لسهم ميتا" preserveAspectRatio="xMidYMid meet" direction="rtl" data-series-hash="055a951cdbedaf07558971d40f2918b0cea87afdf4b581d5d13c9acedab2ed34" data-bar-count="90" data-overlay-count="3" data-time-axis="true" data-time-ticks="5" data-time-tick-dates="2026-02-06|2026-03-11|2026-04-14|2026-05-14|2026-06-16">
<rect width="1400" height="900" fill="#0b0e13"/>
<rect width="1400" height="3" fill="#d8b15a" opacity=".88"/>
<text x="1180" y="52" text-anchor="end" direction="rtl" font-family="'Tajawal','Cairo','Segoe UI',Arial,sans-serif" font-size="18" font-weight="700" fill="#d8b15a">البنية السعرية المؤسسية</text>
<text x="1180" y="96" text-anchor="end" direction="rtl" font-family="'Tajawal','Cairo','Segoe UI',Arial,sans-serif" font-size="34" font-weight="760" fill="#f4f7f1">البنية المرصودة لسهم ميتا</text>
<rect x="92" y="142" width="1088" height="480" rx="8" fill="#10151d" stroke="rgba(148,163,184,.2)"/>
<line x1="92" y1="622.0" x2="1180" y2="622.0" stroke="rgba(148,163,184,.12)"/>
<text x="1170" y="615.0" text-anchor="end" font-family="'Inter','Segoe UI',Arial,sans-serif" font-size="15" fill="#9aa49d">506.56</text>
<line x1="92" y1="526.0" x2="1180" y2="526.0" stroke="rgba(148,163,184,.12)"/>
<text x="1170" y="519.0" text-anchor="end" font-family="'Inter','Segoe UI',Arial,sans-serif" font-size="15" fill="#9aa49d">546.29</text>
<line x1="92" y1="430.0" x2="1180" y2="430.0" stroke="rgba(148,163,184,.12)"/>
<text x="1170" y="423.0" text-anchor="end" font-family="'Inter','Segoe UI',Arial,sans-serif" font-size="15" fill="#9aa49d">586.02</text>
<line x1="92" y1="334.0" x2="1180" y2="334.0" stroke="rgba(148,163,184,.12)"/>
<text x="1170" y="327.0" text-anchor="end" font-family="'Inter','Segoe UI',Arial,sans-serif" font-size="15" fill="#9aa49d">625.76</text>
<line x1="92" y1="238.0" x2="1180" y2="238.0" stroke="rgba(148,163,184,.12)"/>
<text x="1170" y="231.0" text-anchor="end" font-family="'Inter','Segoe UI',Arial,sans-serif" font-size="15" fill="#9aa49d">665.49</text>
<line x1="92" y1="142.0" x2="1180" y2="142.0" stroke="rgba(148,163,184,.12)"/>
<text x="1170" y="135.0" text-anchor="end" font-family="'Inter','Segoe UI',Arial,sans-serif" font-size="15" fill="#9aa49d">705.22</text>
<rect x="92" y="479.3" width="1088" height="20.8" fill="#6ee7d8" opacity=".09"/>
<line x1="92" y1="479.3" x2="1180" y2="479.3" stroke="#6ee7d8" stroke-width="1.2" opacity=".58"/>
<line x1="92" y1="500.1" x2="1180" y2="500.1" stroke="#6ee7d8" stroke-width="1.2" opacity=".58"/>
<rect x="92" y="292.3" width="1088" height="20.8" fill="#d8b15a" opacity=".09"/>
<line x1="92" y1="292.3" x2="1180" y2="292.3" stroke="#d8b15a" stroke-width="1.2" opacity=".58"/>
<line x1="92" y1="313.1" x2="1180" y2="313.1" stroke="#d8b15a" stroke-width="1.2" opacity=".58"/>
<polyline points="92.0,247.7 104.2,209.7 116.4,225.4 128.7,230.3 140.9,275.9 153.1,300.1 165.3,301.3 177.6,291.8 189.8,288.0 202.0,261.7 214.2,306.2 226.5,301.3 238.7,266.5 250.9,258.5 263.1,279.8 275.4,266.8 287.6,263.1 299.8,232.6 312.0,249.9 324.3,287.8 336.5,281.7 348.7,265.6 360.9,263.7 373.2,304.0 385.4,363.1 397.6,329.9 409.8,341.5 422.1,358.3 434.3,380.0 446.5,411.5 458.7,386.4 471.0,413.3 483.2,408.6 495.4,523.0 507.6,575.7 519.9,549.9 532.1,463.6 544.3,446.4 556.5,457.9 568.8,461.4 581.0,456.5 593.2,366.2 605.4,327.6 617.7,324.1 629.9,312.8 642.1,245.2 654.3,223.3 666.6,210.5 678.8,182.3 691.0,224.9 703.2,229.9 715.5,215.7 727.7,253.3 739.9,214.9 752.1,206.3 764.4,223.9 776.6,229.2 788.8,367.5 801.0,375.1 813.3,371.1 825.5,384.2 837.7,365.1 849.9,355.6 862.2,373.0 874.4,399.0 886.6,389.0 898.8,356.1 911.1,351.7 923.3,361.8 935.5,369.1 947.7,389.9 960.0,384.0 972.2,378.4 984.4,371.4 996.6,366.4 1008.9,311.0 1021.1,311.0 1033.3,317.7 1045.5,395.1 1057.8,402.0 1070.0,340.7 1082.2,329.6 1094.4,413.1 1106.7,431.5 1118.9,433.5 1131.1,466.3 1143.3,472.5 1155.6,476.0 1167.8,412.0 1180.0,395.7" fill="none" stroke="#d9e2dc" stroke-width="3" stroke-linejoin="round" stroke-linecap="round"/>
<circle cx="1180.0" cy="395.7" r="5.5" fill="#f2d27b"/>
<line x1="92.0" y1="622" x2="92.0" y2="630" stroke="#69746d" stroke-width="1"/>
<text x="92.0" y="652" text-anchor="start" font-family="'Tajawal','Cairo','Segoe UI',Arial,sans-serif" font-size="14" fill="#9aa49d" direction="rtl">6 فبر 2026</text>
<line x1="360.9" y1="622" x2="360.9" y2="630" stroke="#69746d" stroke-width="1"/>
<text x="360.9" y="652" text-anchor="middle" font-family="'Tajawal','Cairo','Segoe UI',Arial,sans-serif" font-size="14" fill="#9aa49d" direction="rtl">11 مار 2026</text>
<line x1="642.1" y1="622" x2="642.1" y2="630" stroke="#69746d" stroke-width="1"/>
<text x="642.1" y="652" text-anchor="middle" font-family="'Tajawal','Cairo','Segoe UI',Arial,sans-serif" font-size="14" fill="#9aa49d" direction="rtl">14 أبر 2026</text>
<line x1="911.1" y1="622" x2="911.1" y2="630" stroke="#69746d" stroke-width="1"/>
<text x="911.1" y="652" text-anchor="middle" font-family="'Tajawal','Cairo','Segoe UI',Arial,sans-serif" font-size="14" fill="#9aa49d" direction="rtl">14 ماي 2026</text>
<line x1="1180.0" y1="622" x2="1180.0" y2="630" stroke="#69746d" stroke-width="1"/>
<text x="1180.0" y="652" text-anchor="end" font-family="'Tajawal','Cairo','Segoe UI',Arial,sans-serif" font-size="14" fill="#9aa49d" direction="rtl">16 يون 2026</text>
<g data-overlay-type="support_resistance_zone" data-evidence-refs="ohlcv:2026-05-19:2026-06-16:low" data-zone-type="support_resistance_zone" data-zone-role="floor" data-lower="557.010009765625" data-upper="565.6090087890625" data-method="20_session_extreme_atr_band">
<rect x="1174" y="678" width="5" height="14" fill="#d8b15a" opacity=".8"/>
<text x="1160" y="690" text-anchor="end" direction="rtl" font-family="'Tajawal','Cairo','Segoe UI',Arial,sans-serif" font-size="15" fill="#cad3c7">الحد الأدنى للنطاق المرصود</text>
</g>
<g data-overlay-type="support_resistance_zone" data-evidence-refs="ohlcv:2026-05-19:2026-06-16:high" data-zone-type="support_resistance_zone" data-zone-role="ceiling" data-lower="634.4010009765625" data-upper="643" data-method="20_session_extreme_atr_band">
<rect x="1174" y="700" width="5" height="14" fill="#d8b15a" opacity=".8"/>
<text x="1160" y="712" text-anchor="end" direction="rtl" font-family="'Tajawal','Cairo','Segoe UI',Arial,sans-serif" font-size="15" fill="#cad3c7">الحد الأعلى للنطاق المرصود</text>
</g>
<g data-overlay-type="structure" data-evidence-refs="ohlcv:2026-04-21:2026-05-18:range|ohlcv:2026-06-16:close" data-method="latest_close_vs_prior_20_session_range">
<rect x="1174" y="722" width="5" height="14" fill="#d8b15a" opacity=".8"/>
<text x="1160" y="734" text-anchor="end" direction="rtl" font-family="'Tajawal','Cairo','Segoe UI',Arial,sans-serif" font-size="15" fill="#cad3c7">الإغلاق ما زال داخل النطاق المرصود السابق</text>
</g>
<text x="1180" y="870" text-anchor="end" direction="rtl" font-family="'Tajawal','Cairo','Segoe UI',Arial,sans-serif" font-size="13" fill="#8d978f">المصدر: بيانات OHLCV اليومية من Yahoo · حتى 2026-06-16</text>
<text x="1180" y="890" text-anchor="end" direction="rtl" font-family="'Tajawal','Cairo','Segoe UI',Arial,sans-serif" font-size="12" fill="#5d675f">قراءة للبنية المرصودة، وليست توقعاً أو توصية</text>
</svg>
