<svg xmlns="http://www.w3.org/2000/svg" viewBox="0 0 1400 900" role="img" aria-label="Meta Platforms observed price structure" preserveAspectRatio="xMidYMid meet" data-series-hash="055a951cdbedaf07558971d40f2918b0cea87afdf4b581d5d13c9acedab2ed34" data-bar-count="90" data-overlay-count="3" data-time-axis="true" data-time-ticks="5" data-time-tick-dates="2026-02-06|2026-03-11|2026-04-14|2026-05-14|2026-06-16">
<rect width="1400" height="900" fill="#0b0e13"/>
<rect width="1400" height="3" fill="#d8b15a" opacity=".88"/>
<text x="92" y="52" text-anchor="start" font-family="'Inter','Segoe UI',Arial,sans-serif" font-size="18" font-weight="700" fill="#d8b15a">Institutional Price Structure</text>
<text x="92" y="96" text-anchor="start" font-family="'Inter','Segoe UI',Arial,sans-serif" font-size="34" font-weight="760" fill="#f4f7f1">Meta Platforms observed price structure</text>
<rect x="92" y="142" width="1216" height="480" rx="8" fill="#10151d" stroke="rgba(148,163,184,.2)"/>
<line x1="92" y1="622.0" x2="1308" y2="622.0" stroke="rgba(148,163,184,.12)"/>
<text x="1298" y="615.0" text-anchor="end" font-family="'Inter','Segoe UI',Arial,sans-serif" font-size="15" fill="#9aa49d">506.56</text>
<line x1="92" y1="526.0" x2="1308" y2="526.0" stroke="rgba(148,163,184,.12)"/>
<text x="1298" y="519.0" text-anchor="end" font-family="'Inter','Segoe UI',Arial,sans-serif" font-size="15" fill="#9aa49d">546.29</text>
<line x1="92" y1="430.0" x2="1308" y2="430.0" stroke="rgba(148,163,184,.12)"/>
<text x="1298" y="423.0" text-anchor="end" font-family="'Inter','Segoe UI',Arial,sans-serif" font-size="15" fill="#9aa49d">586.02</text>
<line x1="92" y1="334.0" x2="1308" y2="334.0" stroke="rgba(148,163,184,.12)"/>
<text x="1298" y="327.0" text-anchor="end" font-family="'Inter','Segoe UI',Arial,sans-serif" font-size="15" fill="#9aa49d">625.76</text>
<line x1="92" y1="238.0" x2="1308" y2="238.0" stroke="rgba(148,163,184,.12)"/>
<text x="1298" y="231.0" text-anchor="end" font-family="'Inter','Segoe UI',Arial,sans-serif" font-size="15" fill="#9aa49d">665.49</text>
<line x1="92" y1="142.0" x2="1308" y2="142.0" stroke="rgba(148,163,184,.12)"/>
<text x="1298" y="135.0" text-anchor="end" font-family="'Inter','Segoe UI',Arial,sans-serif" font-size="15" fill="#9aa49d">705.22</text>
<rect x="92" y="479.3" width="1216" height="20.8" fill="#6ee7d8" opacity=".09"/>
<line x1="92" y1="479.3" x2="1308" y2="479.3" stroke="#6ee7d8" stroke-width="1.2" opacity=".58"/>
<line x1="92" y1="500.1" x2="1308" y2="500.1" stroke="#6ee7d8" stroke-width="1.2" opacity=".58"/>
<rect x="92" y="292.3" width="1216" height="20.8" fill="#d8b15a" opacity=".09"/>
<line x1="92" y1="292.3" x2="1308" y2="292.3" stroke="#d8b15a" stroke-width="1.2" opacity=".58"/>
<line x1="92" y1="313.1" x2="1308" y2="313.1" stroke="#d8b15a" stroke-width="1.2" opacity=".58"/>
<polyline points="92.0,247.7 105.7,209.7 119.3,225.4 133.0,230.3 146.7,275.9 160.3,300.1 174.0,301.3 187.6,291.8 201.3,288.0 215.0,261.7 228.6,306.2 242.3,301.3 256.0,266.5 269.6,258.5 283.3,279.8 296.9,266.8 310.6,263.1 324.3,232.6 337.9,249.9 351.6,287.8 365.3,281.7 378.9,265.6 392.6,263.7 406.2,304.0 419.9,363.1 433.6,329.9 447.2,341.5 460.9,358.3 474.6,380.0 488.2,411.5 501.9,386.4 515.6,413.3 529.2,408.6 542.9,523.0 556.5,575.7 570.2,549.9 583.9,463.6 597.5,446.4 611.2,457.9 624.9,461.4 638.5,456.5 652.2,366.2 665.8,327.6 679.5,324.1 693.2,312.8 706.8,245.2 720.5,223.3 734.2,210.5 747.8,182.3 761.5,224.9 775.1,229.9 788.8,215.7 802.5,253.3 816.1,214.9 829.8,206.3 843.5,223.9 857.1,229.2 870.8,367.5 884.4,375.1 898.1,371.1 911.8,384.2 925.4,365.1 939.1,355.6 952.8,373.0 966.4,399.0 980.1,389.0 993.8,356.1 1007.4,351.7 1021.1,361.8 1034.7,369.1 1048.4,389.9 1062.1,384.0 1075.7,378.4 1089.4,371.4 1103.1,366.4 1116.7,311.0 1130.4,311.0 1144.0,317.7 1157.7,395.1 1171.4,402.0 1185.0,340.7 1198.7,329.6 1212.4,413.1 1226.0,431.5 1239.7,433.5 1253.3,466.3 1267.0,472.5 1280.7,476.0 1294.3,412.0 1308.0,395.7" fill="none" stroke="#d9e2dc" stroke-width="3" stroke-linejoin="round" stroke-linecap="round"/>
<circle cx="1308.0" cy="395.7" r="5.5" fill="#f2d27b"/>
<line x1="92.0" y1="622" x2="92.0" y2="630" stroke="#69746d" stroke-width="1"/>
<text x="92.0" y="652" text-anchor="start" font-family="'Inter','Segoe UI',Arial,sans-serif" font-size="14" fill="#9aa49d">Feb 6, 2026</text>
<line x1="392.6" y1="622" x2="392.6" y2="630" stroke="#69746d" stroke-width="1"/>
<text x="392.6" y="652" text-anchor="middle" font-family="'Inter','Segoe UI',Arial,sans-serif" font-size="14" fill="#9aa49d">Mar 11, 2026</text>
<line x1="706.8" y1="622" x2="706.8" y2="630" stroke="#69746d" stroke-width="1"/>
<text x="706.8" y="652" text-anchor="middle" font-family="'Inter','Segoe UI',Arial,sans-serif" font-size="14" fill="#9aa49d">Apr 14, 2026</text>
<line x1="1007.4" y1="622" x2="1007.4" y2="630" stroke="#69746d" stroke-width="1"/>
<text x="1007.4" y="652" text-anchor="middle" font-family="'Inter','Segoe UI',Arial,sans-serif" font-size="14" fill="#9aa49d">May 14, 2026</text>
<line x1="1308.0" y1="622" x2="1308.0" y2="630" stroke="#69746d" stroke-width="1"/>
<text x="1308.0" y="652" text-anchor="end" font-family="'Inter','Segoe UI',Arial,sans-serif" font-size="14" fill="#9aa49d">Jun 16, 2026</text>
<g data-overlay-type="support_resistance_zone" data-evidence-refs="ohlcv:2026-05-19:2026-06-16:low" data-zone-type="support_resistance_zone" data-zone-role="floor" data-lower="557.010009765625" data-upper="565.6090087890625" data-method="20_session_extreme_atr_band">
<rect x="92" y="678" width="5" height="14" fill="#d8b15a" opacity=".8"/>
<text x="108" y="690" text-anchor="start" font-family="'Inter','Segoe UI',Arial,sans-serif" font-size="15" fill="#cad3c7">Observed range floor</text>
</g>
<g data-overlay-type="support_resistance_zone" data-evidence-refs="ohlcv:2026-05-19:2026-06-16:high" data-zone-type="support_resistance_zone" data-zone-role="ceiling" data-lower="634.4010009765625" data-upper="643" data-method="20_session_extreme_atr_band">
<rect x="92" y="700" width="5" height="14" fill="#d8b15a" opacity=".8"/>
<text x="108" y="712" text-anchor="start" font-family="'Inter','Segoe UI',Arial,sans-serif" font-size="15" fill="#cad3c7">Observed range ceiling</text>
</g>
<g data-overlay-type="structure" data-evidence-refs="ohlcv:2026-04-21:2026-05-18:range|ohlcv:2026-06-16:close" data-method="latest_close_vs_prior_20_session_range">
<rect x="92" y="722" width="5" height="14" fill="#d8b15a" opacity=".8"/>
<text x="108" y="734" text-anchor="start" font-family="'Inter','Segoe UI',Arial,sans-serif" font-size="15" fill="#cad3c7">Close remains inside prior observed range</text>
</g>
<text x="92" y="870" text-anchor="start" font-family="'Inter','Segoe UI',Arial,sans-serif" font-size="13" fill="#8d978f">Source: Yahoo daily OHLCV · As of 2026-06-16</text>
<text x="92" y="890" text-anchor="start" font-family="'Inter','Segoe UI',Arial,sans-serif" font-size="12" fill="#5d675f">Observed market structure, not a forecast or recommendation</text>
</svg>
