<svg xmlns="http://www.w3.org/2000/svg" viewBox="0 0 1400 900" role="img" aria-label="NVIDIA observed price structure" preserveAspectRatio="xMidYMid meet" data-series-hash="6a39cb231febcef0511a3abff4efcf45097ca185c54b6a16a6df56b12cf32edb" data-bar-count="90" data-overlay-count="3" data-time-axis="true" data-time-ticks="5" data-time-tick-dates="2026-02-06|2026-03-11|2026-04-14|2026-05-14|2026-06-16">
<rect width="1400" height="900" fill="#0b0e13"/>
<rect width="1400" height="3" fill="#d8b15a" opacity=".88"/>
<text x="92" y="52" text-anchor="start" font-family="'Inter','Segoe UI',Arial,sans-serif" font-size="18" font-weight="700" fill="#d8b15a">Institutional Price Structure</text>
<text x="92" y="96" text-anchor="start" font-family="'Inter','Segoe UI',Arial,sans-serif" font-size="34" font-weight="760" fill="#f4f7f1">NVIDIA observed price structure</text>
<rect x="92" y="142" width="1216" height="480" rx="8" fill="#10151d" stroke="rgba(148,163,184,.2)"/>
<line x1="92" y1="622.0" x2="1308" y2="622.0" stroke="rgba(148,163,184,.12)"/>
<text x="1298" y="615.0" text-anchor="end" font-family="'Inter','Segoe UI',Arial,sans-serif" font-size="15" fill="#9aa49d">158.49</text>
<line x1="92" y1="526.0" x2="1308" y2="526.0" stroke="rgba(148,163,184,.12)"/>
<text x="1298" y="519.0" text-anchor="end" font-family="'Inter','Segoe UI',Arial,sans-serif" font-size="15" fill="#9aa49d">175.26</text>
<line x1="92" y1="430.0" x2="1308" y2="430.0" stroke="rgba(148,163,184,.12)"/>
<text x="1298" y="423.0" text-anchor="end" font-family="'Inter','Segoe UI',Arial,sans-serif" font-size="15" fill="#9aa49d">192.02</text>
<line x1="92" y1="334.0" x2="1308" y2="334.0" stroke="rgba(148,163,184,.12)"/>
<text x="1298" y="327.0" text-anchor="end" font-family="'Inter','Segoe UI',Arial,sans-serif" font-size="15" fill="#9aa49d">208.79</text>
<line x1="92" y1="238.0" x2="1308" y2="238.0" stroke="rgba(148,163,184,.12)"/>
<text x="1298" y="231.0" text-anchor="end" font-family="'Inter','Segoe UI',Arial,sans-serif" font-size="15" fill="#9aa49d">225.55</text>
<line x1="92" y1="142.0" x2="1308" y2="142.0" stroke="rgba(148,163,184,.12)"/>
<text x="1298" y="135.0" text-anchor="end" font-family="'Inter','Segoe UI',Arial,sans-serif" font-size="15" fill="#9aa49d">242.32</text>
<rect x="92" y="369.2" width="1216" height="18.9" fill="#6ee7d8" opacity=".09"/>
<line x1="92" y1="369.2" x2="1308" y2="369.2" stroke="#6ee7d8" stroke-width="1.2" opacity=".58"/>
<line x1="92" y1="388.1" x2="1308" y2="388.1" stroke="#6ee7d8" stroke-width="1.2" opacity=".58"/>
<rect x="92" y="199.5" width="1216" height="18.9" fill="#d8b15a" opacity=".09"/>
<line x1="92" y1="199.5" x2="1308" y2="199.5" stroke="#d8b15a" stroke-width="1.2" opacity=".58"/>
<line x1="92" y1="218.4" x2="1308" y2="218.4" stroke="#d8b15a" stroke-width="1.2" opacity=".58"/>
<polyline points="92.0,467.9 105.7,441.3 119.3,449.9 133.0,441.3 146.7,459.1 160.3,482.7 174.0,470.4 187.6,453.1 201.3,453.6 215.0,442.6 228.6,432.7 242.3,425.3 256.0,409.7 269.6,470.8 283.3,514.9 296.9,484.6 310.6,498.5 324.3,481.4 337.9,479.7 351.6,511.3 365.3,483.7 378.9,471.5 392.6,464.3 406.2,480.9 419.9,497.4 433.6,480.4 447.2,487.8 460.9,496.5 474.6,507.1 488.2,540.6 501.9,523.8 515.6,526.3 529.2,506.4 542.9,549.0 556.5,570.3 570.2,583.7 583.9,530.9 597.5,523.2 611.2,513.8 624.9,512.3 638.5,509.7 652.2,486.9 665.8,476.4 679.5,449.4 693.2,445.5 706.8,404.3 720.5,390.8 734.2,393.8 747.8,374.7 761.5,372.5 775.1,385.0 788.8,370.0 802.5,386.4 816.1,337.0 829.8,289.2 843.5,308.9 857.1,331.4 870.8,386.8 884.4,393.2 898.1,393.0 911.8,404.4 925.4,339.5 939.1,318.5 952.8,297.3 966.4,273.0 980.1,265.3 993.8,236.4 1007.4,179.7 1021.1,239.3 1034.7,256.5 1048.4,266.3 1062.1,249.9 1075.7,272.6 1089.4,296.5 1103.1,299.2 1116.7,312.2 1130.4,302.7 1144.0,320.5 1157.7,244.8 1171.4,253.7 1185.0,299.9 1198.7,277.5 1212.4,355.1 1226.0,334.8 1239.7,337.4 1253.3,381.9 1267.0,356.4 1280.7,354.6 1294.3,313.0 1308.0,341.9" fill="none" stroke="#d9e2dc" stroke-width="3" stroke-linejoin="round" stroke-linecap="round"/>
<circle cx="1308.0" cy="341.9" r="5.5" fill="#f2d27b"/>
<line x1="92.0" y1="622" x2="92.0" y2="630" stroke="#69746d" stroke-width="1"/>
<text x="92.0" y="652" text-anchor="start" font-family="'Inter','Segoe UI',Arial,sans-serif" font-size="14" fill="#9aa49d">Feb 6, 2026</text>
<line x1="392.6" y1="622" x2="392.6" y2="630" stroke="#69746d" stroke-width="1"/>
<text x="392.6" y="652" text-anchor="middle" font-family="'Inter','Segoe UI',Arial,sans-serif" font-size="14" fill="#9aa49d">Mar 11, 2026</text>
<line x1="706.8" y1="622" x2="706.8" y2="630" stroke="#69746d" stroke-width="1"/>
<text x="706.8" y="652" text-anchor="middle" font-family="'Inter','Segoe UI',Arial,sans-serif" font-size="14" fill="#9aa49d">Apr 14, 2026</text>
<line x1="1007.4" y1="622" x2="1007.4" y2="630" stroke="#69746d" stroke-width="1"/>
<text x="1007.4" y="652" text-anchor="middle" font-family="'Inter','Segoe UI',Arial,sans-serif" font-size="14" fill="#9aa49d">May 14, 2026</text>
<line x1="1308.0" y1="622" x2="1308.0" y2="630" stroke="#69746d" stroke-width="1"/>
<text x="1308.0" y="652" text-anchor="end" font-family="'Inter','Segoe UI',Arial,sans-serif" font-size="14" fill="#9aa49d">Jun 16, 2026</text>
<g data-overlay-type="support_resistance_zone" data-evidence-refs="ohlcv:2026-05-19:2026-06-16:low" data-zone-type="support_resistance_zone" data-zone-role="floor" data-lower="199.33999633789062" data-upper="202.63399658203124" data-method="20_session_extreme_atr_band">
<rect x="92" y="678" width="5" height="14" fill="#d8b15a" opacity=".8"/>
<text x="108" y="690" text-anchor="start" font-family="'Inter','Segoe UI',Arial,sans-serif" font-size="15" fill="#cad3c7">Observed range floor</text>
</g>
<g data-overlay-type="support_resistance_zone" data-evidence-refs="ohlcv:2026-05-19:2026-06-16:high" data-zone-type="support_resistance_zone" data-zone-role="ceiling" data-lower="228.98599853515626" data-upper="232.27999877929688" data-method="20_session_extreme_atr_band">
<rect x="92" y="700" width="5" height="14" fill="#d8b15a" opacity=".8"/>
<text x="108" y="712" text-anchor="start" font-family="'Inter','Segoe UI',Arial,sans-serif" font-size="15" fill="#cad3c7">Observed range ceiling</text>
</g>
<g data-overlay-type="structure" data-evidence-refs="ohlcv:2026-04-21:2026-05-18:range|ohlcv:2026-06-16:close" data-method="latest_close_vs_prior_20_session_range">
<rect x="92" y="722" width="5" height="14" fill="#d8b15a" opacity=".8"/>
<text x="108" y="734" text-anchor="start" font-family="'Inter','Segoe UI',Arial,sans-serif" font-size="15" fill="#cad3c7">Close remains inside prior observed range</text>
</g>
<text x="92" y="870" text-anchor="start" font-family="'Inter','Segoe UI',Arial,sans-serif" font-size="13" fill="#8d978f">Source: Yahoo daily OHLCV · As of 2026-06-16</text>
<text x="92" y="890" text-anchor="start" font-family="'Inter','Segoe UI',Arial,sans-serif" font-size="12" fill="#5d675f">Observed market structure, not a forecast or recommendation</text>
</svg>
