<svg xmlns="http://www.w3.org/2000/svg" viewBox="0 0 1400 900" role="img" aria-label="Super Micro Computer observed price structure" preserveAspectRatio="xMidYMid meet" data-series-hash="b2a6272fc8e086528edd5466d5dcf61cea549c87963cea9ac5d2955b3508d00c" data-bar-count="90" data-overlay-count="3" data-time-axis="true" data-time-ticks="5" data-time-tick-dates="2026-02-06|2026-03-11|2026-04-14|2026-05-14|2026-06-16">
<rect width="1400" height="900" fill="#0b0e13"/>
<rect width="1400" height="3" fill="#d8b15a" opacity=".88"/>
<text x="92" y="52" text-anchor="start" font-family="'Inter','Segoe UI',Arial,sans-serif" font-size="18" font-weight="700" fill="#d8b15a">Institutional Price Structure</text>
<text x="92" y="96" text-anchor="start" font-family="'Inter','Segoe UI',Arial,sans-serif" font-size="34" font-weight="760" fill="#f4f7f1">Super Micro Computer observed price structure</text>
<rect x="92" y="142" width="1216" height="480" rx="8" fill="#10151d" stroke="rgba(148,163,184,.2)"/>
<line x1="92" y1="622.0" x2="1308" y2="622.0" stroke="rgba(148,163,184,.12)"/>
<text x="1298" y="615.0" text-anchor="end" font-family="'Inter','Segoe UI',Arial,sans-serif" font-size="15" fill="#9aa49d">16.926</text>
<line x1="92" y1="526.0" x2="1308" y2="526.0" stroke="rgba(148,163,184,.12)"/>
<text x="1298" y="519.0" text-anchor="end" font-family="'Inter','Segoe UI',Arial,sans-serif" font-size="15" fill="#9aa49d">24.332</text>
<line x1="92" y1="430.0" x2="1308" y2="430.0" stroke="rgba(148,163,184,.12)"/>
<text x="1298" y="423.0" text-anchor="end" font-family="'Inter','Segoe UI',Arial,sans-serif" font-size="15" fill="#9aa49d">31.737</text>
<line x1="92" y1="334.0" x2="1308" y2="334.0" stroke="rgba(148,163,184,.12)"/>
<text x="1298" y="327.0" text-anchor="end" font-family="'Inter','Segoe UI',Arial,sans-serif" font-size="15" fill="#9aa49d">39.143</text>
<line x1="92" y1="238.0" x2="1308" y2="238.0" stroke="rgba(148,163,184,.12)"/>
<text x="1298" y="231.0" text-anchor="end" font-family="'Inter','Segoe UI',Arial,sans-serif" font-size="15" fill="#9aa49d">46.548</text>
<line x1="92" y1="142.0" x2="1308" y2="142.0" stroke="rgba(148,163,184,.12)"/>
<text x="1298" y="135.0" text-anchor="end" font-family="'Inter','Segoe UI',Arial,sans-serif" font-size="15" fill="#9aa49d">53.954</text>
<rect x="92" y="445.0" width="1216" height="25.6" fill="#6ee7d8" opacity=".09"/>
<line x1="92" y1="445.0" x2="1308" y2="445.0" stroke="#6ee7d8" stroke-width="1.2" opacity=".58"/>
<line x1="92" y1="470.5" x2="1308" y2="470.5" stroke="#6ee7d8" stroke-width="1.2" opacity=".58"/>
<rect x="92" y="175.1" width="1216" height="25.6" fill="#d8b15a" opacity=".09"/>
<line x1="92" y1="175.1" x2="1308" y2="175.1" stroke="#d8b15a" stroke-width="1.2" opacity=".58"/>
<line x1="92" y1="200.7" x2="1308" y2="200.7" stroke="#d8b15a" stroke-width="1.2" opacity=".58"/>
<polyline points="92.0,395.7 105.7,406.8 119.3,409.4 133.0,426.1 146.7,446.9 160.3,445.5 174.0,451.1 187.6,456.3 201.3,424.5 215.0,421.1 228.6,443.3 242.3,437.9 256.0,405.9 269.6,423.0 283.3,421.5 296.9,428.8 310.6,443.7 324.3,418.2 337.9,423.5 351.6,435.5 365.3,426.9 378.9,429.3 392.6,429.3 406.2,440.9 419.9,442.8 433.6,428.4 447.2,432.9 460.9,448.0 474.6,442.3 488.2,575.3 501.9,561.7 515.6,553.2 529.2,529.7 542.9,553.5 556.5,556.6 570.2,568.4 583.9,546.2 597.5,549.6 611.2,540.4 624.9,555.6 638.5,547.5 652.2,538.5 665.8,540.4 679.5,514.0 693.2,504.8 706.8,488.8 720.5,487.7 734.2,473.3 747.8,471.2 761.5,467.9 775.1,472.9 788.8,463.2 802.5,494.7 816.1,464.4 829.8,480.4 843.5,488.2 857.1,500.2 870.8,486.2 884.4,490.2 898.1,479.5 911.8,480.7 925.4,392.1 939.1,405.6 952.8,382.9 966.4,406.9 980.1,416.4 993.8,426.6 1007.4,413.2 1021.1,439.0 1034.7,441.5 1048.4,445.3 1062.1,407.7 1075.7,407.7 1089.4,380.2 1103.1,360.5 1116.7,346.4 1130.4,306.0 1144.0,243.9 1157.7,233.7 1171.4,191.0 1185.0,226.7 1198.7,233.4 1212.4,301.6 1226.0,271.2 1239.7,314.6 1253.3,462.0 1267.0,427.0 1280.7,446.6 1294.3,441.5 1308.0,462.6" fill="none" stroke="#d9e2dc" stroke-width="3" stroke-linejoin="round" stroke-linecap="round"/>
<circle cx="1308.0" cy="462.6" r="5.5" fill="#f2d27b"/>
<line x1="92.0" y1="622" x2="92.0" y2="630" stroke="#69746d" stroke-width="1"/>
<text x="92.0" y="652" text-anchor="start" font-family="'Inter','Segoe UI',Arial,sans-serif" font-size="14" fill="#9aa49d">Feb 6, 2026</text>
<line x1="392.6" y1="622" x2="392.6" y2="630" stroke="#69746d" stroke-width="1"/>
<text x="392.6" y="652" text-anchor="middle" font-family="'Inter','Segoe UI',Arial,sans-serif" font-size="14" fill="#9aa49d">Mar 11, 2026</text>
<line x1="706.8" y1="622" x2="706.8" y2="630" stroke="#69746d" stroke-width="1"/>
<text x="706.8" y="652" text-anchor="middle" font-family="'Inter','Segoe UI',Arial,sans-serif" font-size="14" fill="#9aa49d">Apr 14, 2026</text>
<line x1="1007.4" y1="622" x2="1007.4" y2="630" stroke="#69746d" stroke-width="1"/>
<text x="1007.4" y="652" text-anchor="middle" font-family="'Inter','Segoe UI',Arial,sans-serif" font-size="14" fill="#9aa49d">May 14, 2026</text>
<line x1="1308.0" y1="622" x2="1308.0" y2="630" stroke="#69746d" stroke-width="1"/>
<text x="1308.0" y="652" text-anchor="end" font-family="'Inter','Segoe UI',Arial,sans-serif" font-size="14" fill="#9aa49d">Jun 16, 2026</text>
<g data-overlay-type="support_resistance_zone" data-evidence-refs="ohlcv:2026-05-19:2026-06-16:low" data-zone-type="support_resistance_zone" data-zone-role="floor" data-lower="28.610000610351562" data-upper="30.58145058631897" data-method="20_session_extreme_atr_band">
<rect x="92" y="678" width="5" height="14" fill="#d8b15a" opacity=".8"/>
<text x="108" y="690" text-anchor="start" font-family="'Inter','Segoe UI',Arial,sans-serif" font-size="15" fill="#cad3c7">Observed range floor</text>
</g>
<g data-overlay-type="support_resistance_zone" data-evidence-refs="ohlcv:2026-05-19:2026-06-16:high" data-zone-type="support_resistance_zone" data-zone-role="ceiling" data-lower="49.4285515499115" data-upper="51.400001525878906" data-method="20_session_extreme_atr_band">
<rect x="92" y="700" width="5" height="14" fill="#d8b15a" opacity=".8"/>
<text x="108" y="712" text-anchor="start" font-family="'Inter','Segoe UI',Arial,sans-serif" font-size="15" fill="#cad3c7">Observed range ceiling</text>
</g>
<g data-overlay-type="structure" data-evidence-refs="ohlcv:2026-04-21:2026-05-18:range|ohlcv:2026-06-16:close" data-method="latest_close_vs_prior_20_session_range">
<rect x="92" y="722" width="5" height="14" fill="#d8b15a" opacity=".8"/>
<text x="108" y="734" text-anchor="start" font-family="'Inter','Segoe UI',Arial,sans-serif" font-size="15" fill="#cad3c7">Close remains inside prior observed range</text>
</g>
<text x="92" y="870" text-anchor="start" font-family="'Inter','Segoe UI',Arial,sans-serif" font-size="13" fill="#8d978f">Source: Yahoo daily OHLCV · As of 2026-06-16</text>
<text x="92" y="890" text-anchor="start" font-family="'Inter','Segoe UI',Arial,sans-serif" font-size="12" fill="#5d675f">Observed market structure, not a forecast or recommendation</text>
</svg>
