<svg xmlns="http://www.w3.org/2000/svg" viewBox="0 0 1400 900" role="img" aria-label="Tesla observed price structure" preserveAspectRatio="xMidYMid meet" data-series-hash="5608b11a800b6811f10f91f3fba8a740c33fd195984c6b87364eaf61b2dd6cd4" data-bar-count="90" data-overlay-count="3" data-time-axis="true" data-time-ticks="5" data-time-tick-dates="2026-02-06|2026-03-11|2026-04-14|2026-05-14|2026-06-16">
<rect width="1400" height="900" fill="#0b0e13"/>
<rect width="1400" height="3" fill="#d8b15a" opacity=".88"/>
<text x="92" y="52" text-anchor="start" font-family="'Inter','Segoe UI',Arial,sans-serif" font-size="18" font-weight="700" fill="#d8b15a">Institutional Price Structure</text>
<text x="92" y="96" text-anchor="start" font-family="'Inter','Segoe UI',Arial,sans-serif" font-size="34" font-weight="760" fill="#f4f7f1">Tesla observed price structure</text>
<rect x="92" y="142" width="1216" height="480" rx="8" fill="#10151d" stroke="rgba(148,163,184,.2)"/>
<line x1="92" y1="622.0" x2="1308" y2="622.0" stroke="rgba(148,163,184,.12)"/>
<text x="1298" y="615.0" text-anchor="end" font-family="'Inter','Segoe UI',Arial,sans-serif" font-size="15" fill="#9aa49d">327.95</text>
<line x1="92" y1="526.0" x2="1308" y2="526.0" stroke="rgba(148,163,184,.12)"/>
<text x="1298" y="519.0" text-anchor="end" font-family="'Inter','Segoe UI',Arial,sans-serif" font-size="15" fill="#9aa49d">354.90</text>
<line x1="92" y1="430.0" x2="1308" y2="430.0" stroke="rgba(148,163,184,.12)"/>
<text x="1298" y="423.0" text-anchor="end" font-family="'Inter','Segoe UI',Arial,sans-serif" font-size="15" fill="#9aa49d">381.85</text>
<line x1="92" y1="334.0" x2="1308" y2="334.0" stroke="rgba(148,163,184,.12)"/>
<text x="1298" y="327.0" text-anchor="end" font-family="'Inter','Segoe UI',Arial,sans-serif" font-size="15" fill="#9aa49d">408.79</text>
<line x1="92" y1="238.0" x2="1308" y2="238.0" stroke="rgba(148,163,184,.12)"/>
<text x="1298" y="231.0" text-anchor="end" font-family="'Inter','Segoe UI',Arial,sans-serif" font-size="15" fill="#9aa49d">435.74</text>
<line x1="92" y1="142.0" x2="1308" y2="142.0" stroke="rgba(148,163,184,.12)"/>
<text x="1298" y="135.0" text-anchor="end" font-family="'Inter','Segoe UI',Arial,sans-serif" font-size="15" fill="#9aa49d">462.69</text>
<rect x="92" y="412.7" width="1216" height="23.3" fill="#6ee7d8" opacity=".09"/>
<line x1="92" y1="412.7" x2="1308" y2="412.7" stroke="#6ee7d8" stroke-width="1.2" opacity=".58"/>
<line x1="92" y1="436.0" x2="1308" y2="436.0" stroke="#6ee7d8" stroke-width="1.2" opacity=".58"/>
<rect x="92" y="202.9" width="1216" height="23.3" fill="#d8b15a" opacity=".09"/>
<line x1="92" y1="202.9" x2="1308" y2="202.9" stroke="#d8b15a" stroke-width="1.2" opacity=".58"/>
<line x1="92" y1="226.2" x2="1308" y2="226.2" stroke="#d8b15a" stroke-width="1.2" opacity=".58"/>
<polyline points="92.0,325.8 105.7,303.6 119.3,275.5 133.0,264.6 146.7,304.5 160.3,303.2 174.0,327.5 187.6,325.0 201.3,323.6 215.0,323.2 228.6,365.9 242.3,331.9 256.0,303.3 269.6,334.8 283.3,356.4 296.9,353.5 310.6,392.3 324.3,344.2 337.9,345.6 351.6,377.0 365.3,370.0 378.9,368.0 392.6,337.5 406.2,383.1 419.9,396.7 433.6,381.1 447.2,367.9 460.9,391.0 474.6,435.5 488.2,479.5 501.9,433.5 515.6,425.8 529.2,415.4 542.9,464.7 556.5,501.3 570.2,524.6 583.9,466.0 597.5,432.1 611.2,505.7 624.9,533.4 638.5,555.4 652.2,567.5 665.8,559.0 679.5,547.2 693.2,534.8 706.8,492.9 720.5,394.0 734.2,404.9 747.8,363.1 761.5,392.0 775.1,413.7 788.8,409.8 802.5,458.9 816.1,449.8 829.8,441.3 843.5,450.8 857.1,462.2 870.8,430.8 884.4,398.0 898.1,392.0 911.8,403.2 925.4,369.9 939.1,323.3 952.8,264.3 966.4,205.0 980.1,246.2 993.8,204.1 1007.4,211.1 1021.1,286.1 1034.7,329.7 1048.4,350.7 1062.1,303.8 1075.7,301.7 1089.4,272.7 1103.1,245.7 1116.7,221.6 1130.4,215.4 1144.0,237.8 1157.7,308.8 1171.4,280.8 1185.0,280.9 1198.7,299.6 1212.4,397.4 1226.0,333.4 1239.7,377.2 1253.3,430.9 1267.0,368.4 1280.7,342.4 1294.3,325.6 1308.0,348.7" fill="none" stroke="#d9e2dc" stroke-width="3" stroke-linejoin="round" stroke-linecap="round"/>
<circle cx="1308.0" cy="348.7" r="5.5" fill="#f2d27b"/>
<line x1="92.0" y1="622" x2="92.0" y2="630" stroke="#69746d" stroke-width="1"/>
<text x="92.0" y="652" text-anchor="start" font-family="'Inter','Segoe UI',Arial,sans-serif" font-size="14" fill="#9aa49d">Feb 6, 2026</text>
<line x1="392.6" y1="622" x2="392.6" y2="630" stroke="#69746d" stroke-width="1"/>
<text x="392.6" y="652" text-anchor="middle" font-family="'Inter','Segoe UI',Arial,sans-serif" font-size="14" fill="#9aa49d">Mar 11, 2026</text>
<line x1="706.8" y1="622" x2="706.8" y2="630" stroke="#69746d" stroke-width="1"/>
<text x="706.8" y="652" text-anchor="middle" font-family="'Inter','Segoe UI',Arial,sans-serif" font-size="14" fill="#9aa49d">Apr 14, 2026</text>
<line x1="1007.4" y1="622" x2="1007.4" y2="630" stroke="#69746d" stroke-width="1"/>
<text x="1007.4" y="652" text-anchor="middle" font-family="'Inter','Segoe UI',Arial,sans-serif" font-size="14" fill="#9aa49d">May 14, 2026</text>
<line x1="1308.0" y1="622" x2="1308.0" y2="630" stroke="#69746d" stroke-width="1"/>
<text x="1308.0" y="652" text-anchor="end" font-family="'Inter','Segoe UI',Arial,sans-serif" font-size="14" fill="#9aa49d">Jun 16, 2026</text>
<g data-overlay-type="support_resistance_zone" data-evidence-refs="ohlcv:2026-05-19:2026-06-16:low" data-zone-type="support_resistance_zone" data-zone-role="floor" data-lower="380.1499938964844" data-upper="386.6949951171875" data-method="20_session_extreme_atr_band">
<rect x="92" y="678" width="5" height="14" fill="#d8b15a" opacity=".8"/>
<text x="108" y="690" text-anchor="start" font-family="'Inter','Segoe UI',Arial,sans-serif" font-size="15" fill="#cad3c7">Observed range floor</text>
</g>
<g data-overlay-type="support_resistance_zone" data-evidence-refs="ohlcv:2026-05-19:2026-06-16:high" data-zone-type="support_resistance_zone" data-zone-role="ceiling" data-lower="439.0550048828125" data-upper="445.6000061035156" data-method="20_session_extreme_atr_band">
<rect x="92" y="700" width="5" height="14" fill="#d8b15a" opacity=".8"/>
<text x="108" y="712" text-anchor="start" font-family="'Inter','Segoe UI',Arial,sans-serif" font-size="15" fill="#cad3c7">Observed range ceiling</text>
</g>
<g data-overlay-type="structure" data-evidence-refs="ohlcv:2026-04-21:2026-05-18:range|ohlcv:2026-06-16:close" data-method="latest_close_vs_prior_20_session_range">
<rect x="92" y="722" width="5" height="14" fill="#d8b15a" opacity=".8"/>
<text x="108" y="734" text-anchor="start" font-family="'Inter','Segoe UI',Arial,sans-serif" font-size="15" fill="#cad3c7">Close remains inside prior observed range</text>
</g>
<text x="92" y="870" text-anchor="start" font-family="'Inter','Segoe UI',Arial,sans-serif" font-size="13" fill="#8d978f">Source: Yahoo daily OHLCV · As of 2026-06-16</text>
<text x="92" y="890" text-anchor="start" font-family="'Inter','Segoe UI',Arial,sans-serif" font-size="12" fill="#5d675f">Observed market structure, not a forecast or recommendation</text>
</svg>
