<svg xmlns="http://www.w3.org/2000/svg" viewBox="0 0 1400 900" role="img" aria-label="البنية المرصودة لسهم تسلا" preserveAspectRatio="xMidYMid meet" direction="rtl" data-series-hash="5608b11a800b6811f10f91f3fba8a740c33fd195984c6b87364eaf61b2dd6cd4" data-bar-count="90" data-overlay-count="3" data-time-axis="true" data-time-ticks="5" data-time-tick-dates="2026-02-06|2026-03-11|2026-04-14|2026-05-14|2026-06-16">
<rect width="1400" height="900" fill="#0b0e13"/>
<rect width="1400" height="3" fill="#d8b15a" opacity=".88"/>
<text x="1180" y="52" text-anchor="end" direction="rtl" font-family="'Tajawal','Cairo','Segoe UI',Arial,sans-serif" font-size="18" font-weight="700" fill="#d8b15a">البنية السعرية المؤسسية</text>
<text x="1180" y="96" text-anchor="end" direction="rtl" font-family="'Tajawal','Cairo','Segoe UI',Arial,sans-serif" font-size="34" font-weight="760" fill="#f4f7f1">البنية المرصودة لسهم تسلا</text>
<rect x="92" y="142" width="1088" height="480" rx="8" fill="#10151d" stroke="rgba(148,163,184,.2)"/>
<line x1="92" y1="622.0" x2="1180" y2="622.0" stroke="rgba(148,163,184,.12)"/>
<text x="1170" y="615.0" text-anchor="end" font-family="'Inter','Segoe UI',Arial,sans-serif" font-size="15" fill="#9aa49d">327.95</text>
<line x1="92" y1="526.0" x2="1180" y2="526.0" stroke="rgba(148,163,184,.12)"/>
<text x="1170" y="519.0" text-anchor="end" font-family="'Inter','Segoe UI',Arial,sans-serif" font-size="15" fill="#9aa49d">354.90</text>
<line x1="92" y1="430.0" x2="1180" y2="430.0" stroke="rgba(148,163,184,.12)"/>
<text x="1170" y="423.0" text-anchor="end" font-family="'Inter','Segoe UI',Arial,sans-serif" font-size="15" fill="#9aa49d">381.85</text>
<line x1="92" y1="334.0" x2="1180" y2="334.0" stroke="rgba(148,163,184,.12)"/>
<text x="1170" y="327.0" text-anchor="end" font-family="'Inter','Segoe UI',Arial,sans-serif" font-size="15" fill="#9aa49d">408.79</text>
<line x1="92" y1="238.0" x2="1180" y2="238.0" stroke="rgba(148,163,184,.12)"/>
<text x="1170" y="231.0" text-anchor="end" font-family="'Inter','Segoe UI',Arial,sans-serif" font-size="15" fill="#9aa49d">435.74</text>
<line x1="92" y1="142.0" x2="1180" y2="142.0" stroke="rgba(148,163,184,.12)"/>
<text x="1170" y="135.0" text-anchor="end" font-family="'Inter','Segoe UI',Arial,sans-serif" font-size="15" fill="#9aa49d">462.69</text>
<rect x="92" y="412.7" width="1088" height="23.3" fill="#6ee7d8" opacity=".09"/>
<line x1="92" y1="412.7" x2="1180" y2="412.7" stroke="#6ee7d8" stroke-width="1.2" opacity=".58"/>
<line x1="92" y1="436.0" x2="1180" y2="436.0" stroke="#6ee7d8" stroke-width="1.2" opacity=".58"/>
<rect x="92" y="202.9" width="1088" height="23.3" fill="#d8b15a" opacity=".09"/>
<line x1="92" y1="202.9" x2="1180" y2="202.9" stroke="#d8b15a" stroke-width="1.2" opacity=".58"/>
<line x1="92" y1="226.2" x2="1180" y2="226.2" stroke="#d8b15a" stroke-width="1.2" opacity=".58"/>
<polyline points="92.0,325.8 104.2,303.6 116.4,275.5 128.7,264.6 140.9,304.5 153.1,303.2 165.3,327.5 177.6,325.0 189.8,323.6 202.0,323.2 214.2,365.9 226.5,331.9 238.7,303.3 250.9,334.8 263.1,356.4 275.4,353.5 287.6,392.3 299.8,344.2 312.0,345.6 324.3,377.0 336.5,370.0 348.7,368.0 360.9,337.5 373.2,383.1 385.4,396.7 397.6,381.1 409.8,367.9 422.1,391.0 434.3,435.5 446.5,479.5 458.7,433.5 471.0,425.8 483.2,415.4 495.4,464.7 507.6,501.3 519.9,524.6 532.1,466.0 544.3,432.1 556.5,505.7 568.8,533.4 581.0,555.4 593.2,567.5 605.4,559.0 617.7,547.2 629.9,534.8 642.1,492.9 654.3,394.0 666.6,404.9 678.8,363.1 691.0,392.0 703.2,413.7 715.5,409.8 727.7,458.9 739.9,449.8 752.1,441.3 764.4,450.8 776.6,462.2 788.8,430.8 801.0,398.0 813.3,392.0 825.5,403.2 837.7,369.9 849.9,323.3 862.2,264.3 874.4,205.0 886.6,246.2 898.8,204.1 911.1,211.1 923.3,286.1 935.5,329.7 947.7,350.7 960.0,303.8 972.2,301.7 984.4,272.7 996.6,245.7 1008.9,221.6 1021.1,215.4 1033.3,237.8 1045.5,308.8 1057.8,280.8 1070.0,280.9 1082.2,299.6 1094.4,397.4 1106.7,333.4 1118.9,377.2 1131.1,430.9 1143.3,368.4 1155.6,342.4 1167.8,325.6 1180.0,348.7" fill="none" stroke="#d9e2dc" stroke-width="3" stroke-linejoin="round" stroke-linecap="round"/>
<circle cx="1180.0" cy="348.7" r="5.5" fill="#f2d27b"/>
<line x1="92.0" y1="622" x2="92.0" y2="630" stroke="#69746d" stroke-width="1"/>
<text x="92.0" y="652" text-anchor="start" font-family="'Tajawal','Cairo','Segoe UI',Arial,sans-serif" font-size="14" fill="#9aa49d" direction="rtl">6 فبر 2026</text>
<line x1="360.9" y1="622" x2="360.9" y2="630" stroke="#69746d" stroke-width="1"/>
<text x="360.9" y="652" text-anchor="middle" font-family="'Tajawal','Cairo','Segoe UI',Arial,sans-serif" font-size="14" fill="#9aa49d" direction="rtl">11 مار 2026</text>
<line x1="642.1" y1="622" x2="642.1" y2="630" stroke="#69746d" stroke-width="1"/>
<text x="642.1" y="652" text-anchor="middle" font-family="'Tajawal','Cairo','Segoe UI',Arial,sans-serif" font-size="14" fill="#9aa49d" direction="rtl">14 أبر 2026</text>
<line x1="911.1" y1="622" x2="911.1" y2="630" stroke="#69746d" stroke-width="1"/>
<text x="911.1" y="652" text-anchor="middle" font-family="'Tajawal','Cairo','Segoe UI',Arial,sans-serif" font-size="14" fill="#9aa49d" direction="rtl">14 ماي 2026</text>
<line x1="1180.0" y1="622" x2="1180.0" y2="630" stroke="#69746d" stroke-width="1"/>
<text x="1180.0" y="652" text-anchor="end" font-family="'Tajawal','Cairo','Segoe UI',Arial,sans-serif" font-size="14" fill="#9aa49d" direction="rtl">16 يون 2026</text>
<g data-overlay-type="support_resistance_zone" data-evidence-refs="ohlcv:2026-05-19:2026-06-16:low" data-zone-type="support_resistance_zone" data-zone-role="floor" data-lower="380.1499938964844" data-upper="386.6949951171875" data-method="20_session_extreme_atr_band">
<rect x="1174" y="678" width="5" height="14" fill="#d8b15a" opacity=".8"/>
<text x="1160" y="690" text-anchor="end" direction="rtl" font-family="'Tajawal','Cairo','Segoe UI',Arial,sans-serif" font-size="15" fill="#cad3c7">الحد الأدنى للنطاق المرصود</text>
</g>
<g data-overlay-type="support_resistance_zone" data-evidence-refs="ohlcv:2026-05-19:2026-06-16:high" data-zone-type="support_resistance_zone" data-zone-role="ceiling" data-lower="439.0550048828125" data-upper="445.6000061035156" data-method="20_session_extreme_atr_band">
<rect x="1174" y="700" width="5" height="14" fill="#d8b15a" opacity=".8"/>
<text x="1160" y="712" text-anchor="end" direction="rtl" font-family="'Tajawal','Cairo','Segoe UI',Arial,sans-serif" font-size="15" fill="#cad3c7">الحد الأعلى للنطاق المرصود</text>
</g>
<g data-overlay-type="structure" data-evidence-refs="ohlcv:2026-04-21:2026-05-18:range|ohlcv:2026-06-16:close" data-method="latest_close_vs_prior_20_session_range">
<rect x="1174" y="722" width="5" height="14" fill="#d8b15a" opacity=".8"/>
<text x="1160" y="734" text-anchor="end" direction="rtl" font-family="'Tajawal','Cairo','Segoe UI',Arial,sans-serif" font-size="15" fill="#cad3c7">الإغلاق ما زال داخل النطاق المرصود السابق</text>
</g>
<text x="1180" y="870" text-anchor="end" direction="rtl" font-family="'Tajawal','Cairo','Segoe UI',Arial,sans-serif" font-size="13" fill="#8d978f">المصدر: بيانات OHLCV اليومية من Yahoo · حتى 2026-06-16</text>
<text x="1180" y="890" text-anchor="end" direction="rtl" font-family="'Tajawal','Cairo','Segoe UI',Arial,sans-serif" font-size="12" fill="#5d675f">قراءة للبنية المرصودة، وليست توقعاً أو توصية</text>
</svg>
