<svg xmlns="http://www.w3.org/2000/svg" viewBox="0 0 1400 900" role="img" aria-label="Gold price structure in macro context" preserveAspectRatio="xMidYMid meet" data-series-hash="bf0c99ed05a75f1b96d33ff6c6b3f7808fe66996c8a7ff4d9e10ed7bbf46f0b9" data-bar-count="90" data-overlay-count="4" data-time-axis="true" data-time-ticks="5" data-time-tick-dates="2026-02-06|2026-03-11|2026-04-14|2026-05-14|2026-06-16">
<rect width="1400" height="900" fill="#0b0e13"/>
<rect width="1400" height="3" fill="#d8b15a" opacity=".88"/>
<text x="92" y="52" text-anchor="start" font-family="'Inter','Segoe UI',Arial,sans-serif" font-size="18" font-weight="700" fill="#d8b15a">Institutional Price Structure</text>
<text x="92" y="96" text-anchor="start" font-family="'Inter','Segoe UI',Arial,sans-serif" font-size="34" font-weight="760" fill="#f4f7f1">Gold price structure in macro context</text>
<rect x="92" y="142" width="1216" height="480" rx="8" fill="#10151d" stroke="rgba(148,163,184,.2)"/>
<rect x="92" y="142" width="1216" height="480" rx="8" fill="#b58b56" opacity=".045"/>
<rect x="110" y="158" width="300" height="34" rx="5" fill="#b58b56" opacity=".2" stroke="#b58b56" stroke-opacity=".45"/>
<text x="122" y="181" text-anchor="start" font-family="'Inter','Segoe UI',Arial,sans-serif" font-size="14" font-weight="650" fill="#dbe2dc">Tactical context: fragile continuation</text>
<line x1="92" y1="622.0" x2="1308" y2="622.0" stroke="rgba(148,163,184,.12)"/>
<text x="1298" y="615.0" text-anchor="end" font-family="'Inter','Segoe UI',Arial,sans-serif" font-size="15" fill="#9aa49d">362.26</text>
<line x1="92" y1="526.0" x2="1308" y2="526.0" stroke="rgba(148,163,184,.12)"/>
<text x="1298" y="519.0" text-anchor="end" font-family="'Inter','Segoe UI',Arial,sans-serif" font-size="15" fill="#9aa49d">390.16</text>
<line x1="92" y1="430.0" x2="1308" y2="430.0" stroke="rgba(148,163,184,.12)"/>
<text x="1298" y="423.0" text-anchor="end" font-family="'Inter','Segoe UI',Arial,sans-serif" font-size="15" fill="#9aa49d">418.06</text>
<line x1="92" y1="334.0" x2="1308" y2="334.0" stroke="rgba(148,163,184,.12)"/>
<text x="1298" y="327.0" text-anchor="end" font-family="'Inter','Segoe UI',Arial,sans-serif" font-size="15" fill="#9aa49d">445.97</text>
<line x1="92" y1="238.0" x2="1308" y2="238.0" stroke="rgba(148,163,184,.12)"/>
<text x="1298" y="231.0" text-anchor="end" font-family="'Inter','Segoe UI',Arial,sans-serif" font-size="15" fill="#9aa49d">473.87</text>
<line x1="92" y1="142.0" x2="1308" y2="142.0" stroke="rgba(148,163,184,.12)"/>
<text x="1298" y="135.0" text-anchor="end" font-family="'Inter','Segoe UI',Arial,sans-serif" font-size="15" fill="#9aa49d">501.77</text>
<rect x="92" y="573.9" width="1216" height="15.0" fill="#6ee7d8" opacity=".09"/>
<line x1="92" y1="573.9" x2="1308" y2="573.9" stroke="#6ee7d8" stroke-width="1.2" opacity=".58"/>
<line x1="92" y1="588.9" x2="1308" y2="588.9" stroke="#6ee7d8" stroke-width="1.2" opacity=".58"/>
<rect x="92" y="417.1" width="1216" height="15.0" fill="#d8b15a" opacity=".09"/>
<line x1="92" y1="417.1" x2="1308" y2="417.1" stroke="#d8b15a" stroke-width="1.2" opacity=".58"/>
<line x1="92" y1="432.1" x2="1308" y2="432.1" stroke="#d8b15a" stroke-width="1.2" opacity=".58"/>
<polyline points="92.0,301.3 105.7,261.5 119.3,277.5 133.0,259.5 146.7,315.3 160.3,276.7 174.0,326.3 187.6,291.6 201.3,287.2 215.0,256.1 228.6,212.5 242.3,235.5 256.0,239.5 269.6,225.6 283.3,204.0 296.9,182.5 310.6,257.7 324.3,245.1 337.9,264.6 351.6,239.2 365.3,242.6 378.9,224.3 392.6,229.8 406.2,262.0 419.9,282.8 433.6,284.2 447.2,288.2 460.9,338.2 474.6,401.3 488.2,446.1 501.9,478.2 515.6,477.9 529.2,436.1 542.9,489.9 556.5,441.6 570.2,442.0 583.9,387.9 597.5,362.0 611.2,391.0 624.9,397.0 638.5,382.7 652.2,373.3 665.8,361.7 679.5,364.4 693.2,370.5 706.8,337.0 720.5,352.9 734.2,354.3 747.8,334.1 761.5,347.3 775.1,390.4 788.8,370.8 802.5,385.4 816.1,377.8 829.8,389.3 843.5,416.8 857.1,432.2 870.8,410.7 884.4,412.4 898.1,441.5 911.8,429.3 925.4,385.6 939.1,383.2 952.8,376.0 966.4,372.9 980.1,378.9 993.8,387.2 1007.4,398.5 1021.1,432.7 1034.7,428.7 1048.4,452.6 1062.1,432.3 1075.7,433.7 1089.4,444.6 1103.1,444.0 1116.7,462.9 1130.4,448.2 1144.0,433.2 1157.7,453.4 1171.4,451.0 1185.0,465.1 1198.7,453.4 1212.4,505.1 1226.0,501.5 1239.7,523.9 1253.3,579.6 1267.0,539.2 1280.7,538.5 1294.3,504.0 1308.0,498.7" fill="none" stroke="#d9e2dc" stroke-width="3" stroke-linejoin="round" stroke-linecap="round"/>
<circle cx="1308.0" cy="498.7" r="5.5" fill="#f2d27b"/>
<line x1="92.0" y1="622" x2="92.0" y2="630" stroke="#69746d" stroke-width="1"/>
<text x="92.0" y="652" text-anchor="start" font-family="'Inter','Segoe UI',Arial,sans-serif" font-size="14" fill="#9aa49d">Feb 6, 2026</text>
<line x1="392.6" y1="622" x2="392.6" y2="630" stroke="#69746d" stroke-width="1"/>
<text x="392.6" y="652" text-anchor="middle" font-family="'Inter','Segoe UI',Arial,sans-serif" font-size="14" fill="#9aa49d">Mar 11, 2026</text>
<line x1="706.8" y1="622" x2="706.8" y2="630" stroke="#69746d" stroke-width="1"/>
<text x="706.8" y="652" text-anchor="middle" font-family="'Inter','Segoe UI',Arial,sans-serif" font-size="14" fill="#9aa49d">Apr 14, 2026</text>
<line x1="1007.4" y1="622" x2="1007.4" y2="630" stroke="#69746d" stroke-width="1"/>
<text x="1007.4" y="652" text-anchor="middle" font-family="'Inter','Segoe UI',Arial,sans-serif" font-size="14" fill="#9aa49d">May 14, 2026</text>
<line x1="1308.0" y1="622" x2="1308.0" y2="630" stroke="#69746d" stroke-width="1"/>
<text x="1308.0" y="652" text-anchor="end" font-family="'Inter','Segoe UI',Arial,sans-serif" font-size="14" fill="#9aa49d">Jun 16, 2026</text>
<g data-overlay-type="support_resistance_zone" data-evidence-refs="ohlcv:2026-05-19:2026-06-16:low" data-zone-type="support_resistance_zone" data-zone-role="floor" data-lower="371.8800048828125" data-upper="376.23735290527344" data-method="20_session_extreme_atr_band">
<rect x="92" y="678" width="5" height="14" fill="#d8b15a" opacity=".8"/>
<text x="108" y="690" text-anchor="start" font-family="'Inter','Segoe UI',Arial,sans-serif" font-size="15" fill="#cad3c7">Observed range floor</text>
</g>
<g data-overlay-type="support_resistance_zone" data-evidence-refs="ohlcv:2026-05-19:2026-06-16:high" data-zone-type="support_resistance_zone" data-zone-role="ceiling" data-lower="417.4626593017578" data-upper="421.82000732421875" data-method="20_session_extreme_atr_band">
<rect x="92" y="700" width="5" height="14" fill="#d8b15a" opacity=".8"/>
<text x="108" y="712" text-anchor="start" font-family="'Inter','Segoe UI',Arial,sans-serif" font-size="15" fill="#cad3c7">Observed range ceiling</text>
</g>
<g data-overlay-type="structure" data-evidence-refs="ohlcv:2026-04-21:2026-05-18:range|ohlcv:2026-06-16:close" data-method="latest_close_vs_prior_20_session_range">
<rect x="92" y="722" width="5" height="14" fill="#d8b15a" opacity=".8"/>
<text x="108" y="734" text-anchor="start" font-family="'Inter','Segoe UI',Arial,sans-serif" font-size="15" fill="#cad3c7">Close below prior observed range</text>
</g>
<g data-overlay-type="tactical_context" data-evidence-refs="tactical-context:continuation:persistence=persistent|tactical-context:continuation:participation=mixed|tactical-context:continuation:fragility=fragile" data-tactical-state="fragile_continuation" data-source-artifact="data/intelligence/tactical-context.json">
<rect x="92" y="744" width="5" height="14" fill="#d8b15a" opacity=".8"/>
<text x="108" y="756" text-anchor="start" font-family="'Inter','Segoe UI',Arial,sans-serif" font-size="15" fill="#cad3c7">Tactical context: fragile continuation</text>
</g>
<text x="92" y="870" text-anchor="start" font-family="'Inter','Segoe UI',Arial,sans-serif" font-size="13" fill="#8d978f">Source: Yahoo daily OHLCV · As of 2026-06-16</text>
<text x="92" y="890" text-anchor="start" font-family="'Inter','Segoe UI',Arial,sans-serif" font-size="12" fill="#5d675f">Observed market structure, not a forecast or recommendation</text>
</svg>
