<svg xmlns="http://www.w3.org/2000/svg" viewBox="0 0 1400 900" role="img" aria-label="البنية السعرية المرصودة لمؤشر SPY" preserveAspectRatio="xMidYMid meet" direction="rtl" data-series-hash="c2fac66701782f5b7077a3be7ebfacb4c9d0c5d8511ac859bb9ac482d50b02ab" data-bar-count="90" data-overlay-count="4" data-time-axis="true" data-time-ticks="5" data-time-tick-dates="2026-02-04|2026-03-09|2026-04-10|2026-05-12|2026-06-12">
<rect width="1400" height="900" fill="#0b0e13"/>
<rect width="1400" height="3" fill="#d8b15a" opacity=".88"/>
<text x="1180" y="52" text-anchor="end" direction="rtl" font-family="'Tajawal','Cairo','Segoe UI',Arial,sans-serif" font-size="18" font-weight="700" fill="#d8b15a">البنية السعرية المؤسسية</text>
<text x="1180" y="96" text-anchor="end" direction="rtl" font-family="'Tajawal','Cairo','Segoe UI',Arial,sans-serif" font-size="34" font-weight="760" fill="#f4f7f1">البنية السعرية المرصودة لمؤشر SPY</text>
<rect x="92" y="142" width="1088" height="480" rx="8" fill="#10151d" stroke="rgba(148,163,184,.2)"/>
<rect x="92" y="142" width="1088" height="480" rx="8" fill="#b58b56" opacity=".045"/>
<rect x="912" y="158" width="250" height="34" rx="5" fill="#b58b56" opacity=".2" stroke="#b58b56" stroke-opacity=".45"/>
<text x="1150" y="181" text-anchor="end" direction="rtl" font-family="'Tajawal','Cairo','Segoe UI',Arial,sans-serif" font-size="14" font-weight="650" fill="#dbe2dc">السياق التكتيكي: استمرار هش</text>
<line x1="92" y1="622.0" x2="1180" y2="622.0" stroke="rgba(148,163,184,.12)"/>
<text x="1170" y="615.0" text-anchor="end" font-family="'Inter','Segoe UI',Arial,sans-serif" font-size="15" fill="#9aa49d">618.79</text>
<line x1="92" y1="526.0" x2="1180" y2="526.0" stroke="rgba(148,163,184,.12)"/>
<text x="1170" y="519.0" text-anchor="end" font-family="'Inter','Segoe UI',Arial,sans-serif" font-size="15" fill="#9aa49d">649.21</text>
<line x1="92" y1="430.0" x2="1180" y2="430.0" stroke="rgba(148,163,184,.12)"/>
<text x="1170" y="423.0" text-anchor="end" font-family="'Inter','Segoe UI',Arial,sans-serif" font-size="15" fill="#9aa49d">679.63</text>
<line x1="92" y1="334.0" x2="1180" y2="334.0" stroke="rgba(148,163,184,.12)"/>
<text x="1170" y="327.0" text-anchor="end" font-family="'Inter','Segoe UI',Arial,sans-serif" font-size="15" fill="#9aa49d">710.05</text>
<line x1="92" y1="238.0" x2="1180" y2="238.0" stroke="rgba(148,163,184,.12)"/>
<text x="1170" y="231.0" text-anchor="end" font-family="'Inter','Segoe UI',Arial,sans-serif" font-size="15" fill="#9aa49d">740.47</text>
<line x1="92" y1="142.0" x2="1180" y2="142.0" stroke="rgba(148,163,184,.12)"/>
<text x="1170" y="135.0" text-anchor="end" font-family="'Inter','Segoe UI',Arial,sans-serif" font-size="15" fill="#9aa49d">770.89</text>
<rect x="92" y="282.5" width="1088" height="11.9" fill="#6ee7d8" opacity=".09"/>
<line x1="92" y1="282.5" x2="1180" y2="282.5" stroke="#6ee7d8" stroke-width="1.2" opacity=".58"/>
<line x1="92" y1="294.4" x2="1180" y2="294.4" stroke="#6ee7d8" stroke-width="1.2" opacity=".58"/>
<rect x="92" y="175.1" width="1088" height="11.9" fill="#d8b15a" opacity=".09"/>
<line x1="92" y1="175.1" x2="1180" y2="175.1" stroke="#d8b15a" stroke-width="1.2" opacity=".58"/>
<line x1="92" y1="187.0" x2="1180" y2="187.0" stroke="#d8b15a" stroke-width="1.2" opacity=".58"/>
<polyline points="92.0,409.3 104.2,436.3 116.4,395.3 128.7,384.8 140.9,390.6 153.1,391.1 165.3,424.8 177.6,423.3 189.8,419.8 202.0,409.0 214.2,414.7 226.5,399.1 238.7,421.3 250.9,405.6 263.1,387.3 275.4,399.5 287.6,409.9 299.8,408.7 312.0,427.8 324.3,412.6 336.5,424.7 348.7,452.9 360.9,434.3 373.2,437.7 385.4,440.4 397.6,472.8 409.8,484.7 422.1,463.5 434.3,457.9 446.5,487.4 458.7,492.6 471.0,528.0 483.2,506.5 495.4,513.5 507.6,502.0 519.9,539.0 532.1,573.7 544.3,580.4 556.5,522.4 568.8,507.0 581.0,505.1 593.2,495.3 605.4,494.4 617.7,441.4 629.9,429.1 642.1,430.5 654.3,409.6 666.6,383.2 678.8,365.9 691.0,360.5 703.2,333.7 715.5,338.2 727.7,352.8 739.9,330.3 752.1,339.0 764.4,321.7 776.6,317.8 788.8,328.8 801.0,329.2 813.3,306.8 825.5,300.5 837.7,308.9 849.9,290.7 862.2,259.0 874.4,266.1 886.6,247.0 898.8,241.7 911.1,245.2 923.3,232.2 935.5,213.7 947.7,242.1 960.0,243.7 972.2,259.3 984.4,235.5 996.6,230.9 1008.9,221.7 1021.1,206.1 1033.3,206.5 1045.5,193.4 1057.8,187.5 1070.0,181.0 1082.2,177.7 1094.4,194.5 1106.7,185.5 1118.9,247.2 1131.1,241.9 1143.3,248.8 1155.6,285.5 1167.8,246.6 1180.0,234.0" fill="none" stroke="#d9e2dc" stroke-width="3" stroke-linejoin="round" stroke-linecap="round"/>
<circle cx="1180.0" cy="234.0" r="5.5" fill="#f2d27b"/>
<line x1="92.0" y1="622" x2="92.0" y2="630" stroke="#69746d" stroke-width="1"/>
<text x="92.0" y="652" text-anchor="start" font-family="'Tajawal','Cairo','Segoe UI',Arial,sans-serif" font-size="14" fill="#9aa49d" direction="rtl">4 فبر 2026</text>
<line x1="360.9" y1="622" x2="360.9" y2="630" stroke="#69746d" stroke-width="1"/>
<text x="360.9" y="652" text-anchor="middle" font-family="'Tajawal','Cairo','Segoe UI',Arial,sans-serif" font-size="14" fill="#9aa49d" direction="rtl">9 مار 2026</text>
<line x1="642.1" y1="622" x2="642.1" y2="630" stroke="#69746d" stroke-width="1"/>
<text x="642.1" y="652" text-anchor="middle" font-family="'Tajawal','Cairo','Segoe UI',Arial,sans-serif" font-size="14" fill="#9aa49d" direction="rtl">10 أبر 2026</text>
<line x1="911.1" y1="622" x2="911.1" y2="630" stroke="#69746d" stroke-width="1"/>
<text x="911.1" y="652" text-anchor="middle" font-family="'Tajawal','Cairo','Segoe UI',Arial,sans-serif" font-size="14" fill="#9aa49d" direction="rtl">12 ماي 2026</text>
<line x1="1180.0" y1="622" x2="1180.0" y2="630" stroke="#69746d" stroke-width="1"/>
<text x="1180.0" y="652" text-anchor="end" font-family="'Tajawal','Cairo','Segoe UI',Arial,sans-serif" font-size="14" fill="#9aa49d" direction="rtl">12 يون 2026</text>
<g data-overlay-type="support_resistance_zone" data-evidence-refs="ohlcv:2026-05-15:2026-06-12:low" data-zone-type="support_resistance_zone" data-zone-role="floor" data-lower="722.59" data-upper="726.371" data-method="20_session_extreme_atr_band">
<rect x="1174" y="678" width="5" height="14" fill="#d8b15a" opacity=".8"/>
<text x="1160" y="690" text-anchor="end" direction="rtl" font-family="'Tajawal','Cairo','Segoe UI',Arial,sans-serif" font-size="15" fill="#cad3c7">الحد الأدنى للنطاق المرصود</text>
</g>
<g data-overlay-type="support_resistance_zone" data-evidence-refs="ohlcv:2026-05-15:2026-06-12:high" data-zone-type="support_resistance_zone" data-zone-role="ceiling" data-lower="756.619" data-upper="760.4" data-method="20_session_extreme_atr_band">
<rect x="1174" y="700" width="5" height="14" fill="#d8b15a" opacity=".8"/>
<text x="1160" y="712" text-anchor="end" direction="rtl" font-family="'Tajawal','Cairo','Segoe UI',Arial,sans-serif" font-size="15" fill="#cad3c7">الحد الأعلى للنطاق المرصود</text>
</g>
<g data-overlay-type="structure" data-evidence-refs="ohlcv:2026-04-17:2026-05-14:range|ohlcv:2026-06-12:close" data-method="latest_close_vs_prior_20_session_range">
<rect x="1174" y="722" width="5" height="14" fill="#d8b15a" opacity=".8"/>
<text x="1160" y="734" text-anchor="end" direction="rtl" font-family="'Tajawal','Cairo','Segoe UI',Arial,sans-serif" font-size="15" fill="#cad3c7">الإغلاق ما زال داخل النطاق المرصود السابق</text>
</g>
<g data-overlay-type="tactical_context" data-evidence-refs="tactical-context:continuation:persistence=persistent|tactical-context:continuation:participation=mixed|tactical-context:continuation:fragility=fragile" data-tactical-state="fragile_continuation" data-source-artifact="data/intelligence/tactical-context.json">
<rect x="1174" y="744" width="5" height="14" fill="#d8b15a" opacity=".8"/>
<text x="1160" y="756" text-anchor="end" direction="rtl" font-family="'Tajawal','Cairo','Segoe UI',Arial,sans-serif" font-size="15" fill="#cad3c7">السياق التكتيكي: استمرار هش</text>
</g>
<text x="1180" y="870" text-anchor="end" direction="rtl" font-family="'Tajawal','Cairo','Segoe UI',Arial,sans-serif" font-size="13" fill="#8d978f">المصدر: بيانات OHLCV اليومية من AlphaVantage · حتى 2026-06-12</text>
<text x="1180" y="890" text-anchor="end" direction="rtl" font-family="'Tajawal','Cairo','Segoe UI',Arial,sans-serif" font-size="12" fill="#5d675f">قراءة للبنية المرصودة، وليست توقعاً أو توصية</text>
</svg>
