<svg xmlns="http://www.w3.org/2000/svg" viewBox="0 0 1200 620" role="img" aria-label="البنية السعرية المرصودة لمؤشر SPY" preserveAspectRatio="xMidYMid meet" direction="rtl" data-series-hash="c2fac66701782f5b7077a3be7ebfacb4c9d0c5d8511ac859bb9ac482d50b02ab" data-bar-count="90">
<rect width="1200" height="620" fill="#0b0e13"/>
<rect width="1200" height="3" fill="#d8b15a" opacity=".88"/>
<text x="1128" y="48" text-anchor="end" direction="rtl" font-family="'Tajawal','Cairo','Segoe UI',Arial,sans-serif" font-size="17" font-weight="700" fill="#d8b15a">البنية السعرية المؤسسية</text>
<text x="1128" y="86" text-anchor="end" direction="rtl" font-family="'Tajawal','Cairo','Segoe UI',Arial,sans-serif" font-size="30" font-weight="760" fill="#f4f7f1">البنية السعرية المرصودة لمؤشر SPY</text>
<rect x="72" y="126" width="1056" height="330" rx="8" fill="#10151d" stroke="rgba(148,163,184,.2)"/>
<line x1="72" y1="456.0" x2="1128" y2="456.0" stroke="rgba(148,163,184,.12)"/>
<text x="1120" y="450.0" text-anchor="end" font-family="'Inter','Segoe UI',Arial,sans-serif" font-size="13" fill="#8d978f">618.79</text>
<line x1="72" y1="373.5" x2="1128" y2="373.5" stroke="rgba(148,163,184,.12)"/>
<text x="1120" y="367.5" text-anchor="end" font-family="'Inter','Segoe UI',Arial,sans-serif" font-size="13" fill="#8d978f">656.82</text>
<line x1="72" y1="291.0" x2="1128" y2="291.0" stroke="rgba(148,163,184,.12)"/>
<text x="1120" y="285.0" text-anchor="end" font-family="'Inter','Segoe UI',Arial,sans-serif" font-size="13" fill="#8d978f">694.84</text>
<line x1="72" y1="208.5" x2="1128" y2="208.5" stroke="rgba(148,163,184,.12)"/>
<text x="1120" y="202.5" text-anchor="end" font-family="'Inter','Segoe UI',Arial,sans-serif" font-size="13" fill="#8d978f">732.86</text>
<line x1="72" y1="126.0" x2="1128" y2="126.0" stroke="rgba(148,163,184,.12)"/>
<text x="1120" y="120.0" text-anchor="end" font-family="'Inter','Segoe UI',Arial,sans-serif" font-size="13" fill="#8d978f">770.89</text>
<line x1="72" y1="230.8" x2="1128" y2="230.8" stroke="#6ee7d8" stroke-width="1.4" stroke-dasharray="7 7" opacity=".72"/>
<line x1="72" y1="148.8" x2="1128" y2="148.8" stroke="#d8b15a" stroke-width="1.4" stroke-dasharray="7 7" opacity=".72"/>
<polyline points="72.0,309.8 83.9,328.4 95.7,300.2 107.6,292.9 119.5,296.9 131.3,297.2 143.2,320.4 155.1,319.4 166.9,317.0 178.8,309.6 190.7,313.5 202.5,302.7 214.4,318.0 226.2,307.3 238.1,294.7 250.0,303.0 261.8,310.2 273.7,309.4 285.6,322.5 297.4,312.1 309.3,320.4 321.2,339.7 333.0,327.0 344.9,329.3 356.8,331.2 368.6,353.4 380.5,361.6 392.4,347.0 404.2,343.2 416.1,363.5 428.0,367.0 439.8,391.4 451.7,376.6 463.6,381.4 475.4,373.5 487.3,398.9 499.1,422.8 511.0,427.4 522.9,387.5 534.7,376.9 546.6,375.6 558.5,368.9 570.3,368.3 582.2,331.9 594.1,323.4 605.9,324.4 617.8,310.0 629.7,291.8 641.5,279.9 653.4,276.2 665.3,257.8 677.1,260.9 689.0,271.0 700.9,255.5 712.7,261.5 724.6,249.6 736.4,246.9 748.3,254.4 760.2,254.7 772.0,239.3 783.9,235.0 795.8,240.7 807.6,228.2 819.5,206.4 831.4,211.3 843.2,198.2 855.1,194.5 867.0,197.0 878.8,188.0 890.7,175.3 902.6,194.8 914.4,195.9 926.3,206.6 938.2,190.3 950.0,187.1 961.9,180.8 973.8,170.0 985.6,170.3 997.5,161.3 1009.3,157.3 1021.2,152.8 1033.1,150.6 1044.9,162.1 1056.8,155.9 1068.7,198.3 1080.5,194.7 1092.4,199.4 1104.3,224.6 1116.1,197.9 1128.0,189.2" fill="none" stroke="#d9e2dc" stroke-width="2.4" stroke-linejoin="round" stroke-linecap="round"/>
<circle cx="1128.0" cy="189.2" r="4.5" fill="#f2d27b"/>
<rect x="1122" y="481" width="5" height="13" fill="#d8b15a" opacity=".8"/>
<text x="1108" y="492" text-anchor="end" direction="rtl" font-family="'Tajawal','Cairo','Segoe UI',Arial,sans-serif" font-size="14" fill="#cad3c7">الحد الأدنى للنطاق المرصود</text>
<rect x="1122" y="501" width="5" height="13" fill="#d8b15a" opacity=".8"/>
<text x="1108" y="512" text-anchor="end" direction="rtl" font-family="'Tajawal','Cairo','Segoe UI',Arial,sans-serif" font-size="14" fill="#cad3c7">الحد الأعلى للنطاق المرصود</text>
<rect x="1122" y="521" width="5" height="13" fill="#d8b15a" opacity=".8"/>
<text x="1108" y="532" text-anchor="end" direction="rtl" font-family="'Tajawal','Cairo','Segoe UI',Arial,sans-serif" font-size="14" fill="#cad3c7">الإغلاق ما زال داخل النطاق المرصود السابق</text>
<text x="1128" y="586" text-anchor="end" direction="rtl" font-family="'Tajawal','Cairo','Segoe UI',Arial,sans-serif" font-size="13" fill="#8d978f">المصدر: بيانات OHLCV اليومية من AlphaVantage · حتى 2026-06-12</text>
<text x="1128" y="606" text-anchor="end" direction="rtl" font-family="'Tajawal','Cairo','Segoe UI',Arial,sans-serif" font-size="12" fill="#5d675f">قراءة للبنية المرصودة، وليست توقعاً أو إشارة تداول</text>
</svg>
