<svg xmlns="http://www.w3.org/2000/svg" viewBox="0 0 1400 900" role="img" aria-label="البنية السعرية المرصودة لمؤشر SPY" preserveAspectRatio="xMidYMid meet" direction="rtl" data-series-hash="c2fac66701782f5b7077a3be7ebfacb4c9d0c5d8511ac859bb9ac482d50b02ab" data-bar-count="90" data-overlay-count="4" data-time-axis="true" data-time-ticks="5" data-time-tick-dates="2026-02-04|2026-03-09|2026-04-10|2026-05-12|2026-06-12">
<rect width="1400" height="900" fill="#0b0e13"/>
<rect width="1400" height="3" fill="#d8b15a" opacity=".88"/>
<text x="1308" y="52" text-anchor="end" direction="rtl" font-family="'Tajawal','Cairo','Segoe UI',Arial,sans-serif" font-size="18" font-weight="700" fill="#d8b15a">البنية السعرية المؤسسية</text>
<text x="1308" y="96" text-anchor="end" direction="rtl" font-family="'Tajawal','Cairo','Segoe UI',Arial,sans-serif" font-size="34" font-weight="760" fill="#f4f7f1">البنية السعرية المرصودة لمؤشر SPY</text>
<rect x="92" y="142" width="1216" height="480" rx="8" fill="#10151d" stroke="rgba(148,163,184,.2)"/>
<rect x="92" y="142" width="1216" height="480" rx="8" fill="#b58b56" opacity=".045"/>
<rect x="1020" y="158" width="270" height="34" rx="5" fill="#b58b56" opacity=".2" stroke="#b58b56" stroke-opacity=".45"/>
<text x="1278" y="181" text-anchor="end" direction="rtl" font-family="'Tajawal','Cairo','Segoe UI',Arial,sans-serif" font-size="14" font-weight="650" fill="#dbe2dc">السياق التكتيكي: استمرار هش</text>
<line x1="92" y1="622.0" x2="1308" y2="622.0" stroke="rgba(148,163,184,.12)"/>
<text x="1298" y="615.0" text-anchor="end" font-family="'Inter','Segoe UI',Arial,sans-serif" font-size="15" fill="#9aa49d">618.79</text>
<line x1="92" y1="526.0" x2="1308" y2="526.0" stroke="rgba(148,163,184,.12)"/>
<text x="1298" y="519.0" text-anchor="end" font-family="'Inter','Segoe UI',Arial,sans-serif" font-size="15" fill="#9aa49d">649.21</text>
<line x1="92" y1="430.0" x2="1308" y2="430.0" stroke="rgba(148,163,184,.12)"/>
<text x="1298" y="423.0" text-anchor="end" font-family="'Inter','Segoe UI',Arial,sans-serif" font-size="15" fill="#9aa49d">679.63</text>
<line x1="92" y1="334.0" x2="1308" y2="334.0" stroke="rgba(148,163,184,.12)"/>
<text x="1298" y="327.0" text-anchor="end" font-family="'Inter','Segoe UI',Arial,sans-serif" font-size="15" fill="#9aa49d">710.05</text>
<line x1="92" y1="238.0" x2="1308" y2="238.0" stroke="rgba(148,163,184,.12)"/>
<text x="1298" y="231.0" text-anchor="end" font-family="'Inter','Segoe UI',Arial,sans-serif" font-size="15" fill="#9aa49d">740.47</text>
<line x1="92" y1="142.0" x2="1308" y2="142.0" stroke="rgba(148,163,184,.12)"/>
<text x="1298" y="135.0" text-anchor="end" font-family="'Inter','Segoe UI',Arial,sans-serif" font-size="15" fill="#9aa49d">770.89</text>
<rect x="92" y="282.5" width="1216" height="11.9" fill="#6ee7d8" opacity=".09"/>
<line x1="92" y1="282.5" x2="1308" y2="282.5" stroke="#6ee7d8" stroke-width="1.2" opacity=".58"/>
<line x1="92" y1="294.4" x2="1308" y2="294.4" stroke="#6ee7d8" stroke-width="1.2" opacity=".58"/>
<rect x="92" y="175.1" width="1216" height="11.9" fill="#d8b15a" opacity=".09"/>
<line x1="92" y1="175.1" x2="1308" y2="175.1" stroke="#d8b15a" stroke-width="1.2" opacity=".58"/>
<line x1="92" y1="187.0" x2="1308" y2="187.0" stroke="#d8b15a" stroke-width="1.2" opacity=".58"/>
<polyline points="92.0,409.3 105.7,436.3 119.3,395.3 133.0,384.8 146.7,390.6 160.3,391.1 174.0,424.8 187.6,423.3 201.3,419.8 215.0,409.0 228.6,414.7 242.3,399.1 256.0,421.3 269.6,405.6 283.3,387.3 296.9,399.5 310.6,409.9 324.3,408.7 337.9,427.8 351.6,412.6 365.3,424.7 378.9,452.9 392.6,434.3 406.2,437.7 419.9,440.4 433.6,472.8 447.2,484.7 460.9,463.5 474.6,457.9 488.2,487.4 501.9,492.6 515.6,528.0 529.2,506.5 542.9,513.5 556.5,502.0 570.2,539.0 583.9,573.7 597.5,580.4 611.2,522.4 624.9,507.0 638.5,505.1 652.2,495.3 665.8,494.4 679.5,441.4 693.2,429.1 706.8,430.5 720.5,409.6 734.2,383.2 747.8,365.9 761.5,360.5 775.1,333.7 788.8,338.2 802.5,352.8 816.1,330.3 829.8,339.0 843.5,321.7 857.1,317.8 870.8,328.8 884.4,329.2 898.1,306.8 911.8,300.5 925.4,308.9 939.1,290.7 952.8,259.0 966.4,266.1 980.1,247.0 993.8,241.7 1007.4,245.2 1021.1,232.2 1034.7,213.7 1048.4,242.1 1062.1,243.7 1075.7,259.3 1089.4,235.5 1103.1,230.9 1116.7,221.7 1130.4,206.1 1144.0,206.5 1157.7,193.4 1171.4,187.5 1185.0,181.0 1198.7,177.7 1212.4,194.5 1226.0,185.5 1239.7,247.2 1253.3,241.9 1267.0,248.8 1280.7,285.5 1294.3,246.6 1308.0,234.0" fill="none" stroke="#d9e2dc" stroke-width="3" stroke-linejoin="round" stroke-linecap="round"/>
<circle cx="1308.0" cy="234.0" r="5.5" fill="#f2d27b"/>
<line x1="92.0" y1="622" x2="92.0" y2="630" stroke="#69746d" stroke-width="1"/>
<text x="92.0" y="652" text-anchor="start" font-family="'Tajawal','Cairo','Segoe UI',Arial,sans-serif" font-size="14" fill="#9aa49d" direction="rtl">4 فبر 2026</text>
<line x1="392.6" y1="622" x2="392.6" y2="630" stroke="#69746d" stroke-width="1"/>
<text x="392.6" y="652" text-anchor="middle" font-family="'Tajawal','Cairo','Segoe UI',Arial,sans-serif" font-size="14" fill="#9aa49d" direction="rtl">9 مار 2026</text>
<line x1="706.8" y1="622" x2="706.8" y2="630" stroke="#69746d" stroke-width="1"/>
<text x="706.8" y="652" text-anchor="middle" font-family="'Tajawal','Cairo','Segoe UI',Arial,sans-serif" font-size="14" fill="#9aa49d" direction="rtl">10 أبر 2026</text>
<line x1="1007.4" y1="622" x2="1007.4" y2="630" stroke="#69746d" stroke-width="1"/>
<text x="1007.4" y="652" text-anchor="middle" font-family="'Tajawal','Cairo','Segoe UI',Arial,sans-serif" font-size="14" fill="#9aa49d" direction="rtl">12 ماي 2026</text>
<line x1="1308.0" y1="622" x2="1308.0" y2="630" stroke="#69746d" stroke-width="1"/>
<text x="1308.0" y="652" text-anchor="end" font-family="'Tajawal','Cairo','Segoe UI',Arial,sans-serif" font-size="14" fill="#9aa49d" direction="rtl">12 يون 2026</text>
<g data-overlay-type="support_resistance_zone" data-evidence-refs="ohlcv:2026-05-15:2026-06-12:low" data-zone-type="support_resistance_zone" data-zone-role="floor" data-lower="722.59" data-upper="726.371" data-method="20_session_extreme_atr_band">
<rect x="1302" y="678" width="5" height="14" fill="#d8b15a" opacity=".8"/>
<text x="1288" y="690" text-anchor="end" direction="rtl" font-family="'Tajawal','Cairo','Segoe UI',Arial,sans-serif" font-size="15" fill="#cad3c7">الحد الأدنى للنطاق المرصود</text>
</g>
<g data-overlay-type="support_resistance_zone" data-evidence-refs="ohlcv:2026-05-15:2026-06-12:high" data-zone-type="support_resistance_zone" data-zone-role="ceiling" data-lower="756.619" data-upper="760.4" data-method="20_session_extreme_atr_band">
<rect x="1302" y="700" width="5" height="14" fill="#d8b15a" opacity=".8"/>
<text x="1288" y="712" text-anchor="end" direction="rtl" font-family="'Tajawal','Cairo','Segoe UI',Arial,sans-serif" font-size="15" fill="#cad3c7">الحد الأعلى للنطاق المرصود</text>
</g>
<g data-overlay-type="structure" data-evidence-refs="ohlcv:2026-04-17:2026-05-14:range|ohlcv:2026-06-12:close" data-method="latest_close_vs_prior_20_session_range">
<rect x="1302" y="722" width="5" height="14" fill="#d8b15a" opacity=".8"/>
<text x="1288" y="734" text-anchor="end" direction="rtl" font-family="'Tajawal','Cairo','Segoe UI',Arial,sans-serif" font-size="15" fill="#cad3c7">الإغلاق ما زال داخل النطاق المرصود السابق</text>
</g>
<g data-overlay-type="tactical_context" data-evidence-refs="tactical-context:continuation:persistence=persistent|tactical-context:continuation:participation=mixed|tactical-context:continuation:fragility=fragile" data-tactical-state="fragile_continuation" data-source-artifact="data/intelligence/tactical-context.json">
<rect x="1302" y="744" width="5" height="14" fill="#d8b15a" opacity=".8"/>
<text x="1288" y="756" text-anchor="end" direction="rtl" font-family="'Tajawal','Cairo','Segoe UI',Arial,sans-serif" font-size="15" fill="#cad3c7">السياق التكتيكي: استمرار هش</text>
</g>
<text x="1308" y="870" text-anchor="end" direction="rtl" font-family="'Tajawal','Cairo','Segoe UI',Arial,sans-serif" font-size="13" fill="#8d978f">المصدر: بيانات OHLCV اليومية من AlphaVantage · حتى 2026-06-12</text>
<text x="1308" y="890" text-anchor="end" direction="rtl" font-family="'Tajawal','Cairo','Segoe UI',Arial,sans-serif" font-size="12" fill="#5d675f">قراءة للبنية المرصودة، وليست توقعاً أو توصية</text>
</svg>
