<svg xmlns="http://www.w3.org/2000/svg" viewBox="0 0 1400 900" role="img" aria-label="حساسية سندات الخزانة لضغط العوائد" preserveAspectRatio="xMidYMid meet" direction="rtl" data-series-hash="022d8599f98640b99faaccd83288f3e071b10271b4a49dbce9c0813e4c4979c9" data-bar-count="90" data-overlay-count="4" data-time-axis="true" data-time-ticks="5" data-time-tick-dates="2026-02-06|2026-03-11|2026-04-14|2026-05-14|2026-06-16">
<rect width="1400" height="900" fill="#0b0e13"/>
<rect width="1400" height="3" fill="#d8b15a" opacity=".88"/>
<text x="1180" y="52" text-anchor="end" direction="rtl" font-family="'Tajawal','Cairo','Segoe UI',Arial,sans-serif" font-size="18" font-weight="700" fill="#d8b15a">البنية السعرية المؤسسية</text>
<text x="1180" y="96" text-anchor="end" direction="rtl" font-family="'Tajawal','Cairo','Segoe UI',Arial,sans-serif" font-size="34" font-weight="760" fill="#f4f7f1">حساسية سندات الخزانة لضغط العوائد</text>
<rect x="92" y="142" width="1088" height="480" rx="8" fill="#10151d" stroke="rgba(148,163,184,.2)"/>
<rect x="92" y="142" width="1088" height="480" rx="8" fill="#b58b56" opacity=".045"/>
<rect x="912" y="158" width="250" height="34" rx="5" fill="#b58b56" opacity=".2" stroke="#b58b56" stroke-opacity=".45"/>
<text x="1150" y="181" text-anchor="end" direction="rtl" font-family="'Tajawal','Cairo','Segoe UI',Arial,sans-serif" font-size="14" font-weight="650" fill="#dbe2dc">السياق التكتيكي: استمرار هش</text>
<line x1="92" y1="622.0" x2="1180" y2="622.0" stroke="rgba(148,163,184,.12)"/>
<text x="1170" y="615.0" text-anchor="end" font-family="'Inter','Segoe UI',Arial,sans-serif" font-size="15" fill="#9aa49d">82.123</text>
<line x1="92" y1="526.0" x2="1180" y2="526.0" stroke="rgba(148,163,184,.12)"/>
<text x="1170" y="519.0" text-anchor="end" font-family="'Inter','Segoe UI',Arial,sans-serif" font-size="15" fill="#9aa49d">84.000</text>
<line x1="92" y1="430.0" x2="1180" y2="430.0" stroke="rgba(148,163,184,.12)"/>
<text x="1170" y="423.0" text-anchor="end" font-family="'Inter','Segoe UI',Arial,sans-serif" font-size="15" fill="#9aa49d">85.877</text>
<line x1="92" y1="334.0" x2="1180" y2="334.0" stroke="rgba(148,163,184,.12)"/>
<text x="1170" y="327.0" text-anchor="end" font-family="'Inter','Segoe UI',Arial,sans-serif" font-size="15" fill="#9aa49d">87.753</text>
<line x1="92" y1="238.0" x2="1180" y2="238.0" stroke="rgba(148,163,184,.12)"/>
<text x="1170" y="231.0" text-anchor="end" font-family="'Inter','Segoe UI',Arial,sans-serif" font-size="15" fill="#9aa49d">89.630</text>
<line x1="92" y1="142.0" x2="1180" y2="142.0" stroke="rgba(148,163,184,.12)"/>
<text x="1170" y="135.0" text-anchor="end" font-family="'Inter','Segoe UI',Arial,sans-serif" font-size="15" fill="#9aa49d">91.507</text>
<rect x="92" y="574.6" width="1088" height="14.3" fill="#6ee7d8" opacity=".09"/>
<line x1="92" y1="574.6" x2="1180" y2="574.6" stroke="#6ee7d8" stroke-width="1.2" opacity=".58"/>
<line x1="92" y1="588.9" x2="1180" y2="588.9" stroke="#6ee7d8" stroke-width="1.2" opacity=".58"/>
<rect x="92" y="404.2" width="1088" height="14.3" fill="#d8b15a" opacity=".09"/>
<line x1="92" y1="404.2" x2="1180" y2="404.2" stroke="#d8b15a" stroke-width="1.2" opacity=".58"/>
<line x1="92" y1="418.6" x2="1180" y2="418.6" stroke="#d8b15a" stroke-width="1.2" opacity=".58"/>
<polyline points="92.0,344.9 104.2,345.9 116.4,294.3 128.7,318.3 140.9,258.5 153.1,233.4 165.3,225.7 177.6,243.1 189.8,238.5 202.0,249.3 214.2,232.4 226.5,224.2 238.7,223.7 250.9,205.3 263.1,177.1 275.4,239.0 287.6,248.2 299.8,262.6 312.0,281.0 324.3,297.9 336.5,258.5 348.7,307.1 360.9,365.4 373.2,374.1 385.4,396.1 397.6,361.8 409.8,349.5 422.1,374.6 434.3,347.5 446.5,432.4 458.7,403.7 471.0,423.2 483.2,380.7 495.4,418.1 507.6,442.1 519.9,383.8 532.1,388.4 544.3,410.4 556.5,383.3 568.8,390.4 581.0,391.0 593.2,376.6 605.4,387.9 617.7,398.6 629.9,385.3 642.1,361.8 654.3,381.2 666.6,409.4 678.8,369.0 691.0,370.0 703.2,394.5 715.5,385.8 727.7,395.6 739.9,387.4 752.1,409.4 764.4,404.8 776.6,439.0 788.8,443.1 801.0,443.6 813.3,476.9 825.5,452.8 837.7,419.6 849.9,441.6 862.2,419.6 874.4,446.2 886.6,475.3 898.8,485.1 911.1,478.9 923.3,543.4 935.5,548.5 947.7,576.1 960.0,530.6 972.2,514.7 984.4,491.2 996.6,469.7 1008.9,459.5 1021.1,437.0 1033.3,436.0 1045.5,450.8 1057.8,441.6 1070.0,459.0 1082.2,449.3 1094.4,471.8 1106.7,494.3 1118.9,468.7 1131.1,481.0 1143.3,424.7 1155.6,435.5 1167.8,438.0 1180.0,407.6" fill="none" stroke="#d9e2dc" stroke-width="3" stroke-linejoin="round" stroke-linecap="round"/>
<circle cx="1180.0" cy="407.6" r="5.5" fill="#f2d27b"/>
<line x1="92.0" y1="622" x2="92.0" y2="630" stroke="#69746d" stroke-width="1"/>
<text x="92.0" y="652" text-anchor="start" font-family="'Tajawal','Cairo','Segoe UI',Arial,sans-serif" font-size="14" fill="#9aa49d" direction="rtl">6 فبر 2026</text>
<line x1="360.9" y1="622" x2="360.9" y2="630" stroke="#69746d" stroke-width="1"/>
<text x="360.9" y="652" text-anchor="middle" font-family="'Tajawal','Cairo','Segoe UI',Arial,sans-serif" font-size="14" fill="#9aa49d" direction="rtl">11 مار 2026</text>
<line x1="642.1" y1="622" x2="642.1" y2="630" stroke="#69746d" stroke-width="1"/>
<text x="642.1" y="652" text-anchor="middle" font-family="'Tajawal','Cairo','Segoe UI',Arial,sans-serif" font-size="14" fill="#9aa49d" direction="rtl">14 أبر 2026</text>
<line x1="911.1" y1="622" x2="911.1" y2="630" stroke="#69746d" stroke-width="1"/>
<text x="911.1" y="652" text-anchor="middle" font-family="'Tajawal','Cairo','Segoe UI',Arial,sans-serif" font-size="14" fill="#9aa49d" direction="rtl">14 ماي 2026</text>
<line x1="1180.0" y1="622" x2="1180.0" y2="630" stroke="#69746d" stroke-width="1"/>
<text x="1180.0" y="652" text-anchor="end" font-family="'Tajawal','Cairo','Segoe UI',Arial,sans-serif" font-size="14" fill="#9aa49d" direction="rtl">16 يون 2026</text>
<g data-overlay-type="support_resistance_zone" data-evidence-refs="ohlcv:2026-05-19:2026-06-16:low" data-zone-type="support_resistance_zone" data-zone-role="floor" data-lower="82.7699966430664" data-upper="83.05034713745117" data-method="20_session_extreme_atr_band">
<rect x="1174" y="678" width="5" height="14" fill="#d8b15a" opacity=".8"/>
<text x="1160" y="690" text-anchor="end" direction="rtl" font-family="'Tajawal','Cairo','Segoe UI',Arial,sans-serif" font-size="15" fill="#cad3c7">الحد الأدنى للنطاق المرصود</text>
</g>
<g data-overlay-type="support_resistance_zone" data-evidence-refs="ohlcv:2026-05-19:2026-06-16:high" data-zone-type="support_resistance_zone" data-zone-role="ceiling" data-lower="86.0996467590332" data-upper="86.37999725341797" data-method="20_session_extreme_atr_band">
<rect x="1174" y="700" width="5" height="14" fill="#d8b15a" opacity=".8"/>
<text x="1160" y="712" text-anchor="end" direction="rtl" font-family="'Tajawal','Cairo','Segoe UI',Arial,sans-serif" font-size="15" fill="#cad3c7">الحد الأعلى للنطاق المرصود</text>
</g>
<g data-overlay-type="structure" data-evidence-refs="ohlcv:2026-04-21:2026-05-18:range|ohlcv:2026-06-16:close" data-method="latest_close_vs_prior_20_session_range">
<rect x="1174" y="722" width="5" height="14" fill="#d8b15a" opacity=".8"/>
<text x="1160" y="734" text-anchor="end" direction="rtl" font-family="'Tajawal','Cairo','Segoe UI',Arial,sans-serif" font-size="15" fill="#cad3c7">الإغلاق ما زال داخل النطاق المرصود السابق</text>
</g>
<g data-overlay-type="tactical_context" data-evidence-refs="tactical-context:continuation:persistence=persistent|tactical-context:continuation:participation=mixed|tactical-context:continuation:fragility=fragile" data-tactical-state="fragile_continuation" data-source-artifact="data/intelligence/tactical-context.json">
<rect x="1174" y="744" width="5" height="14" fill="#d8b15a" opacity=".8"/>
<text x="1160" y="756" text-anchor="end" direction="rtl" font-family="'Tajawal','Cairo','Segoe UI',Arial,sans-serif" font-size="15" fill="#cad3c7">السياق التكتيكي: استمرار هش</text>
</g>
<text x="1180" y="870" text-anchor="end" direction="rtl" font-family="'Tajawal','Cairo','Segoe UI',Arial,sans-serif" font-size="13" fill="#8d978f">المصدر: بيانات OHLCV اليومية من Yahoo · حتى 2026-06-16</text>
<text x="1180" y="890" text-anchor="end" direction="rtl" font-family="'Tajawal','Cairo','Segoe UI',Arial,sans-serif" font-size="12" fill="#5d675f">قراءة للبنية المرصودة، وليست توقعاً أو توصية</text>
</svg>
