<svg xmlns="http://www.w3.org/2000/svg" viewBox="0 0 1400 900" role="img" aria-label="Treasury duration under yield pressure" preserveAspectRatio="xMidYMid meet" data-series-hash="022d8599f98640b99faaccd83288f3e071b10271b4a49dbce9c0813e4c4979c9" data-bar-count="90" data-overlay-count="4" data-time-axis="true" data-time-ticks="5" data-time-tick-dates="2026-02-06|2026-03-11|2026-04-14|2026-05-14|2026-06-16">
<rect width="1400" height="900" fill="#0b0e13"/>
<rect width="1400" height="3" fill="#d8b15a" opacity=".88"/>
<text x="92" y="52" text-anchor="start" font-family="'Inter','Segoe UI',Arial,sans-serif" font-size="18" font-weight="700" fill="#d8b15a">Institutional Price Structure</text>
<text x="92" y="96" text-anchor="start" font-family="'Inter','Segoe UI',Arial,sans-serif" font-size="34" font-weight="760" fill="#f4f7f1">Treasury duration under yield pressure</text>
<rect x="92" y="142" width="1216" height="480" rx="8" fill="#10151d" stroke="rgba(148,163,184,.2)"/>
<rect x="92" y="142" width="1216" height="480" rx="8" fill="#b58b56" opacity=".045"/>
<rect x="110" y="158" width="300" height="34" rx="5" fill="#b58b56" opacity=".2" stroke="#b58b56" stroke-opacity=".45"/>
<text x="122" y="181" text-anchor="start" font-family="'Inter','Segoe UI',Arial,sans-serif" font-size="14" font-weight="650" fill="#dbe2dc">Tactical context: fragile continuation</text>
<line x1="92" y1="622.0" x2="1308" y2="622.0" stroke="rgba(148,163,184,.12)"/>
<text x="1298" y="615.0" text-anchor="end" font-family="'Inter','Segoe UI',Arial,sans-serif" font-size="15" fill="#9aa49d">82.123</text>
<line x1="92" y1="526.0" x2="1308" y2="526.0" stroke="rgba(148,163,184,.12)"/>
<text x="1298" y="519.0" text-anchor="end" font-family="'Inter','Segoe UI',Arial,sans-serif" font-size="15" fill="#9aa49d">84.000</text>
<line x1="92" y1="430.0" x2="1308" y2="430.0" stroke="rgba(148,163,184,.12)"/>
<text x="1298" y="423.0" text-anchor="end" font-family="'Inter','Segoe UI',Arial,sans-serif" font-size="15" fill="#9aa49d">85.877</text>
<line x1="92" y1="334.0" x2="1308" y2="334.0" stroke="rgba(148,163,184,.12)"/>
<text x="1298" y="327.0" text-anchor="end" font-family="'Inter','Segoe UI',Arial,sans-serif" font-size="15" fill="#9aa49d">87.753</text>
<line x1="92" y1="238.0" x2="1308" y2="238.0" stroke="rgba(148,163,184,.12)"/>
<text x="1298" y="231.0" text-anchor="end" font-family="'Inter','Segoe UI',Arial,sans-serif" font-size="15" fill="#9aa49d">89.630</text>
<line x1="92" y1="142.0" x2="1308" y2="142.0" stroke="rgba(148,163,184,.12)"/>
<text x="1298" y="135.0" text-anchor="end" font-family="'Inter','Segoe UI',Arial,sans-serif" font-size="15" fill="#9aa49d">91.507</text>
<rect x="92" y="574.6" width="1216" height="14.3" fill="#6ee7d8" opacity=".09"/>
<line x1="92" y1="574.6" x2="1308" y2="574.6" stroke="#6ee7d8" stroke-width="1.2" opacity=".58"/>
<line x1="92" y1="588.9" x2="1308" y2="588.9" stroke="#6ee7d8" stroke-width="1.2" opacity=".58"/>
<rect x="92" y="404.2" width="1216" height="14.3" fill="#d8b15a" opacity=".09"/>
<line x1="92" y1="404.2" x2="1308" y2="404.2" stroke="#d8b15a" stroke-width="1.2" opacity=".58"/>
<line x1="92" y1="418.6" x2="1308" y2="418.6" stroke="#d8b15a" stroke-width="1.2" opacity=".58"/>
<polyline points="92.0,344.9 105.7,345.9 119.3,294.3 133.0,318.3 146.7,258.5 160.3,233.4 174.0,225.7 187.6,243.1 201.3,238.5 215.0,249.3 228.6,232.4 242.3,224.2 256.0,223.7 269.6,205.3 283.3,177.1 296.9,239.0 310.6,248.2 324.3,262.6 337.9,281.0 351.6,297.9 365.3,258.5 378.9,307.1 392.6,365.4 406.2,374.1 419.9,396.1 433.6,361.8 447.2,349.5 460.9,374.6 474.6,347.5 488.2,432.4 501.9,403.7 515.6,423.2 529.2,380.7 542.9,418.1 556.5,442.1 570.2,383.8 583.9,388.4 597.5,410.4 611.2,383.3 624.9,390.4 638.5,391.0 652.2,376.6 665.8,387.9 679.5,398.6 693.2,385.3 706.8,361.8 720.5,381.2 734.2,409.4 747.8,369.0 761.5,370.0 775.1,394.5 788.8,385.8 802.5,395.6 816.1,387.4 829.8,409.4 843.5,404.8 857.1,439.0 870.8,443.1 884.4,443.6 898.1,476.9 911.8,452.8 925.4,419.6 939.1,441.6 952.8,419.6 966.4,446.2 980.1,475.3 993.8,485.1 1007.4,478.9 1021.1,543.4 1034.7,548.5 1048.4,576.1 1062.1,530.6 1075.7,514.7 1089.4,491.2 1103.1,469.7 1116.7,459.5 1130.4,437.0 1144.0,436.0 1157.7,450.8 1171.4,441.6 1185.0,459.0 1198.7,449.3 1212.4,471.8 1226.0,494.3 1239.7,468.7 1253.3,481.0 1267.0,424.7 1280.7,435.5 1294.3,438.0 1308.0,407.6" fill="none" stroke="#d9e2dc" stroke-width="3" stroke-linejoin="round" stroke-linecap="round"/>
<circle cx="1308.0" cy="407.6" r="5.5" fill="#f2d27b"/>
<line x1="92.0" y1="622" x2="92.0" y2="630" stroke="#69746d" stroke-width="1"/>
<text x="92.0" y="652" text-anchor="start" font-family="'Inter','Segoe UI',Arial,sans-serif" font-size="14" fill="#9aa49d">Feb 6, 2026</text>
<line x1="392.6" y1="622" x2="392.6" y2="630" stroke="#69746d" stroke-width="1"/>
<text x="392.6" y="652" text-anchor="middle" font-family="'Inter','Segoe UI',Arial,sans-serif" font-size="14" fill="#9aa49d">Mar 11, 2026</text>
<line x1="706.8" y1="622" x2="706.8" y2="630" stroke="#69746d" stroke-width="1"/>
<text x="706.8" y="652" text-anchor="middle" font-family="'Inter','Segoe UI',Arial,sans-serif" font-size="14" fill="#9aa49d">Apr 14, 2026</text>
<line x1="1007.4" y1="622" x2="1007.4" y2="630" stroke="#69746d" stroke-width="1"/>
<text x="1007.4" y="652" text-anchor="middle" font-family="'Inter','Segoe UI',Arial,sans-serif" font-size="14" fill="#9aa49d">May 14, 2026</text>
<line x1="1308.0" y1="622" x2="1308.0" y2="630" stroke="#69746d" stroke-width="1"/>
<text x="1308.0" y="652" text-anchor="end" font-family="'Inter','Segoe UI',Arial,sans-serif" font-size="14" fill="#9aa49d">Jun 16, 2026</text>
<g data-overlay-type="support_resistance_zone" data-evidence-refs="ohlcv:2026-05-19:2026-06-16:low" data-zone-type="support_resistance_zone" data-zone-role="floor" data-lower="82.7699966430664" data-upper="83.05034713745117" data-method="20_session_extreme_atr_band">
<rect x="92" y="678" width="5" height="14" fill="#d8b15a" opacity=".8"/>
<text x="108" y="690" text-anchor="start" font-family="'Inter','Segoe UI',Arial,sans-serif" font-size="15" fill="#cad3c7">Observed range floor</text>
</g>
<g data-overlay-type="support_resistance_zone" data-evidence-refs="ohlcv:2026-05-19:2026-06-16:high" data-zone-type="support_resistance_zone" data-zone-role="ceiling" data-lower="86.0996467590332" data-upper="86.37999725341797" data-method="20_session_extreme_atr_band">
<rect x="92" y="700" width="5" height="14" fill="#d8b15a" opacity=".8"/>
<text x="108" y="712" text-anchor="start" font-family="'Inter','Segoe UI',Arial,sans-serif" font-size="15" fill="#cad3c7">Observed range ceiling</text>
</g>
<g data-overlay-type="structure" data-evidence-refs="ohlcv:2026-04-21:2026-05-18:range|ohlcv:2026-06-16:close" data-method="latest_close_vs_prior_20_session_range">
<rect x="92" y="722" width="5" height="14" fill="#d8b15a" opacity=".8"/>
<text x="108" y="734" text-anchor="start" font-family="'Inter','Segoe UI',Arial,sans-serif" font-size="15" fill="#cad3c7">Close remains inside prior observed range</text>
</g>
<g data-overlay-type="tactical_context" data-evidence-refs="tactical-context:continuation:persistence=persistent|tactical-context:continuation:participation=mixed|tactical-context:continuation:fragility=fragile" data-tactical-state="fragile_continuation" data-source-artifact="data/intelligence/tactical-context.json">
<rect x="92" y="744" width="5" height="14" fill="#d8b15a" opacity=".8"/>
<text x="108" y="756" text-anchor="start" font-family="'Inter','Segoe UI',Arial,sans-serif" font-size="15" fill="#cad3c7">Tactical context: fragile continuation</text>
</g>
<text x="92" y="870" text-anchor="start" font-family="'Inter','Segoe UI',Arial,sans-serif" font-size="13" fill="#8d978f">Source: Yahoo daily OHLCV · As of 2026-06-16</text>
<text x="92" y="890" text-anchor="start" font-family="'Inter','Segoe UI',Arial,sans-serif" font-size="12" fill="#5d675f">Observed market structure, not a forecast or recommendation</text>
</svg>
