<svg xmlns="http://www.w3.org/2000/svg" viewBox="0 0 1400 900" role="img" aria-label="UUP dollar-liquidity proxy structure" preserveAspectRatio="xMidYMid meet" data-series-hash="8c6e91c4e7c402eacab1397ad4fe1823675f34d38b6258caf0a163269b1a4379" data-bar-count="90" data-overlay-count="4" data-time-axis="true" data-time-ticks="5" data-time-tick-dates="2026-02-06|2026-03-11|2026-04-14|2026-05-14|2026-06-16">
<rect width="1400" height="900" fill="#0b0e13"/>
<rect width="1400" height="3" fill="#d8b15a" opacity=".88"/>
<text x="92" y="52" text-anchor="start" font-family="'Inter','Segoe UI',Arial,sans-serif" font-size="18" font-weight="700" fill="#d8b15a">Institutional Price Structure</text>
<text x="92" y="96" text-anchor="start" font-family="'Inter','Segoe UI',Arial,sans-serif" font-size="34" font-weight="760" fill="#f4f7f1">UUP dollar-liquidity proxy structure</text>
<rect x="92" y="142" width="1216" height="480" rx="8" fill="#10151d" stroke="rgba(148,163,184,.2)"/>
<rect x="92" y="142" width="1216" height="480" rx="8" fill="#b58b56" opacity=".045"/>
<rect x="110" y="158" width="300" height="34" rx="5" fill="#b58b56" opacity=".2" stroke="#b58b56" stroke-opacity=".45"/>
<text x="122" y="181" text-anchor="start" font-family="'Inter','Segoe UI',Arial,sans-serif" font-size="14" font-weight="650" fill="#dbe2dc">Tactical context: fragile continuation</text>
<line x1="92" y1="622.0" x2="1308" y2="622.0" stroke="rgba(148,163,184,.12)"/>
<text x="1298" y="615.0" text-anchor="end" font-family="'Inter','Segoe UI',Arial,sans-serif" font-size="15" fill="#9aa49d">26.618</text>
<line x1="92" y1="526.0" x2="1308" y2="526.0" stroke="rgba(148,163,184,.12)"/>
<text x="1298" y="519.0" text-anchor="end" font-family="'Inter','Segoe UI',Arial,sans-serif" font-size="15" fill="#9aa49d">26.943</text>
<line x1="92" y1="430.0" x2="1308" y2="430.0" stroke="rgba(148,163,184,.12)"/>
<text x="1298" y="423.0" text-anchor="end" font-family="'Inter','Segoe UI',Arial,sans-serif" font-size="15" fill="#9aa49d">27.268</text>
<line x1="92" y1="334.0" x2="1308" y2="334.0" stroke="rgba(148,163,184,.12)"/>
<text x="1298" y="327.0" text-anchor="end" font-family="'Inter','Segoe UI',Arial,sans-serif" font-size="15" fill="#9aa49d">27.592</text>
<line x1="92" y1="238.0" x2="1308" y2="238.0" stroke="rgba(148,163,184,.12)"/>
<text x="1298" y="231.0" text-anchor="end" font-family="'Inter','Segoe UI',Arial,sans-serif" font-size="15" fill="#9aa49d">27.917</text>
<line x1="92" y1="142.0" x2="1308" y2="142.0" stroke="rgba(148,163,184,.12)"/>
<text x="1298" y="135.0" text-anchor="end" font-family="'Inter','Segoe UI',Arial,sans-serif" font-size="15" fill="#9aa49d">28.242</text>
<rect x="92" y="308.1" width="1216" height="14.8" fill="#6ee7d8" opacity=".09"/>
<line x1="92" y1="308.1" x2="1308" y2="308.1" stroke="#6ee7d8" stroke-width="1.2" opacity=".58"/>
<line x1="92" y1="322.9" x2="1308" y2="322.9" stroke="#6ee7d8" stroke-width="1.2" opacity=".58"/>
<rect x="92" y="175.1" width="1216" height="14.8" fill="#d8b15a" opacity=".09"/>
<line x1="92" y1="175.1" x2="1308" y2="175.1" stroke="#d8b15a" stroke-width="1.2" opacity=".58"/>
<line x1="92" y1="189.9" x2="1308" y2="189.9" stroke="#d8b15a" stroke-width="1.2" opacity=".58"/>
<polyline points="92.0,506.1 105.7,571.2 119.3,568.2 133.0,559.3 146.7,562.3 160.3,562.3 174.0,535.7 187.6,485.4 201.3,473.6 215.0,482.5 228.6,482.5 242.3,476.6 256.0,485.4 269.6,479.5 283.3,485.4 296.9,411.6 310.6,373.1 324.3,387.9 337.9,367.2 351.6,370.2 365.3,373.1 378.9,376.1 392.6,346.5 406.2,308.1 419.9,246.0 433.6,293.3 447.2,308.1 460.9,257.9 474.6,337.7 488.2,308.1 501.9,343.6 515.6,317.0 529.2,302.2 542.9,269.7 556.5,260.8 570.2,219.4 583.9,278.6 597.5,293.3 611.2,254.9 624.9,263.8 638.5,287.4 652.2,352.4 665.8,367.2 679.5,379.0 693.2,396.8 706.8,414.5 720.5,423.4 734.2,399.7 747.8,402.7 761.5,414.5 775.1,370.2 788.8,367.2 802.5,352.4 816.1,367.2 829.8,376.1 843.5,352.4 857.1,328.8 870.8,402.7 884.4,387.9 898.1,367.2 911.8,361.3 925.4,405.6 939.1,387.9 952.8,408.6 966.4,405.6 980.1,376.1 993.8,358.4 1007.4,325.8 1021.1,281.5 1034.7,302.2 1048.4,275.6 1062.1,293.3 1075.7,293.3 1089.4,281.5 1103.1,287.4 1116.7,287.4 1130.4,302.2 1144.0,314.0 1157.7,284.5 1171.4,284.5 1185.0,254.9 1198.7,260.8 1212.4,207.6 1226.0,204.7 1239.7,210.6 1253.3,198.7 1267.0,228.3 1280.7,228.3 1294.3,222.4 1308.0,235.7" fill="none" stroke="#d9e2dc" stroke-width="3" stroke-linejoin="round" stroke-linecap="round"/>
<circle cx="1308.0" cy="235.7" r="5.5" fill="#f2d27b"/>
<line x1="92.0" y1="622" x2="92.0" y2="630" stroke="#69746d" stroke-width="1"/>
<text x="92.0" y="652" text-anchor="start" font-family="'Inter','Segoe UI',Arial,sans-serif" font-size="14" fill="#9aa49d">Feb 6, 2026</text>
<line x1="392.6" y1="622" x2="392.6" y2="630" stroke="#69746d" stroke-width="1"/>
<text x="392.6" y="652" text-anchor="middle" font-family="'Inter','Segoe UI',Arial,sans-serif" font-size="14" fill="#9aa49d">Mar 11, 2026</text>
<line x1="706.8" y1="622" x2="706.8" y2="630" stroke="#69746d" stroke-width="1"/>
<text x="706.8" y="652" text-anchor="middle" font-family="'Inter','Segoe UI',Arial,sans-serif" font-size="14" fill="#9aa49d">Apr 14, 2026</text>
<line x1="1007.4" y1="622" x2="1007.4" y2="630" stroke="#69746d" stroke-width="1"/>
<text x="1007.4" y="652" text-anchor="middle" font-family="'Inter','Segoe UI',Arial,sans-serif" font-size="14" fill="#9aa49d">May 14, 2026</text>
<line x1="1308.0" y1="622" x2="1308.0" y2="630" stroke="#69746d" stroke-width="1"/>
<text x="1308.0" y="652" text-anchor="end" font-family="'Inter','Segoe UI',Arial,sans-serif" font-size="14" fill="#9aa49d">Jun 16, 2026</text>
<g data-overlay-type="support_resistance_zone" data-evidence-refs="ohlcv:2026-05-19:2026-06-16:low" data-zone-type="support_resistance_zone" data-zone-role="floor" data-lower="27.6299991607666" data-upper="27.679999160766602" data-method="20_session_extreme_atr_band">
<rect x="92" y="678" width="5" height="14" fill="#d8b15a" opacity=".8"/>
<text x="108" y="690" text-anchor="start" font-family="'Inter','Segoe UI',Arial,sans-serif" font-size="15" fill="#cad3c7">Observed range floor</text>
</g>
<g data-overlay-type="support_resistance_zone" data-evidence-refs="ohlcv:2026-05-19:2026-06-16:high" data-zone-type="support_resistance_zone" data-zone-role="ceiling" data-lower="28.0799991607666" data-upper="28.1299991607666" data-method="20_session_extreme_atr_band">
<rect x="92" y="700" width="5" height="14" fill="#d8b15a" opacity=".8"/>
<text x="108" y="712" text-anchor="start" font-family="'Inter','Segoe UI',Arial,sans-serif" font-size="15" fill="#cad3c7">Observed range ceiling</text>
</g>
<g data-overlay-type="structure" data-evidence-refs="ohlcv:2026-04-21:2026-05-18:range|ohlcv:2026-06-16:close" data-method="latest_close_vs_prior_20_session_range">
<rect x="92" y="722" width="5" height="14" fill="#d8b15a" opacity=".8"/>
<text x="108" y="734" text-anchor="start" font-family="'Inter','Segoe UI',Arial,sans-serif" font-size="15" fill="#cad3c7">Close above prior observed range</text>
</g>
<g data-overlay-type="tactical_context" data-evidence-refs="tactical-context:continuation:persistence=persistent|tactical-context:continuation:participation=mixed|tactical-context:continuation:fragility=fragile" data-tactical-state="fragile_continuation" data-source-artifact="data/intelligence/tactical-context.json">
<rect x="92" y="744" width="5" height="14" fill="#d8b15a" opacity=".8"/>
<text x="108" y="756" text-anchor="start" font-family="'Inter','Segoe UI',Arial,sans-serif" font-size="15" fill="#cad3c7">Tactical context: fragile continuation</text>
</g>
<text x="92" y="870" text-anchor="start" font-family="'Inter','Segoe UI',Arial,sans-serif" font-size="13" fill="#8d978f">Source: Yahoo daily OHLCV · As of 2026-06-16</text>
<text x="92" y="890" text-anchor="start" font-family="'Inter','Segoe UI',Arial,sans-serif" font-size="12" fill="#5d675f">Observed market structure, not a forecast or recommendation</text>
</svg>
