<svg xmlns="http://www.w3.org/2000/svg" viewBox="0 0 1400 900" role="img" aria-label="بنية أداة VIXY بوصفها مؤشراً بديلاً لعقود التقلب" preserveAspectRatio="xMidYMid meet" direction="rtl" data-series-hash="9ce15e1226016067dd0cec1852601fa52c7b258862281dda9ea1ab201bd46a46" data-bar-count="90" data-overlay-count="4" data-time-axis="true" data-time-ticks="5" data-time-tick-dates="2026-02-06|2026-03-11|2026-04-14|2026-05-14|2026-06-16">
<rect width="1400" height="900" fill="#0b0e13"/>
<rect width="1400" height="3" fill="#d8b15a" opacity=".88"/>
<text x="1180" y="52" text-anchor="end" direction="rtl" font-family="'Tajawal','Cairo','Segoe UI',Arial,sans-serif" font-size="18" font-weight="700" fill="#d8b15a">البنية السعرية المؤسسية</text>
<text x="1180" y="96" text-anchor="end" direction="rtl" font-family="'Tajawal','Cairo','Segoe UI',Arial,sans-serif" font-size="34" font-weight="760" fill="#f4f7f1">بنية أداة VIXY بوصفها مؤشراً بديلاً لعقود التقلب</text>
<rect x="92" y="142" width="1088" height="480" rx="8" fill="#10151d" stroke="rgba(148,163,184,.2)"/>
<rect x="92" y="142" width="1088" height="480" rx="8" fill="#b58b56" opacity=".045"/>
<rect x="912" y="158" width="250" height="34" rx="5" fill="#b58b56" opacity=".2" stroke="#b58b56" stroke-opacity=".45"/>
<text x="1150" y="181" text-anchor="end" direction="rtl" font-family="'Tajawal','Cairo','Segoe UI',Arial,sans-serif" font-size="14" font-weight="650" fill="#dbe2dc">السياق التكتيكي: استمرار هش</text>
<line x1="92" y1="622.0" x2="1180" y2="622.0" stroke="rgba(148,163,184,.12)"/>
<text x="1170" y="615.0" text-anchor="end" font-family="'Inter','Segoe UI',Arial,sans-serif" font-size="15" fill="#9aa49d">20.198</text>
<line x1="92" y1="526.0" x2="1180" y2="526.0" stroke="rgba(148,163,184,.12)"/>
<text x="1170" y="519.0" text-anchor="end" font-family="'Inter','Segoe UI',Arial,sans-serif" font-size="15" fill="#9aa49d">24.149</text>
<line x1="92" y1="430.0" x2="1180" y2="430.0" stroke="rgba(148,163,184,.12)"/>
<text x="1170" y="423.0" text-anchor="end" font-family="'Inter','Segoe UI',Arial,sans-serif" font-size="15" fill="#9aa49d">28.100</text>
<line x1="92" y1="334.0" x2="1180" y2="334.0" stroke="rgba(148,163,184,.12)"/>
<text x="1170" y="327.0" text-anchor="end" font-family="'Inter','Segoe UI',Arial,sans-serif" font-size="15" fill="#9aa49d">32.050</text>
<line x1="92" y1="238.0" x2="1180" y2="238.0" stroke="rgba(148,163,184,.12)"/>
<text x="1170" y="231.0" text-anchor="end" font-family="'Inter','Segoe UI',Arial,sans-serif" font-size="15" fill="#9aa49d">36.001</text>
<line x1="92" y1="142.0" x2="1180" y2="142.0" stroke="rgba(148,163,184,.12)"/>
<text x="1170" y="135.0" text-anchor="end" font-family="'Inter','Segoe UI',Arial,sans-serif" font-size="15" fill="#9aa49d">39.952</text>
<rect x="92" y="576.2" width="1088" height="12.7" fill="#6ee7d8" opacity=".09"/>
<line x1="92" y1="576.2" x2="1180" y2="576.2" stroke="#6ee7d8" stroke-width="1.2" opacity=".58"/>
<line x1="92" y1="588.9" x2="1180" y2="588.9" stroke="#6ee7d8" stroke-width="1.2" opacity=".58"/>
<rect x="92" y="462.3" width="1088" height="12.7" fill="#d8b15a" opacity=".09"/>
<line x1="92" y1="462.3" x2="1180" y2="462.3" stroke="#d8b15a" stroke-width="1.2" opacity=".58"/>
<line x1="92" y1="475.0" x2="1180" y2="475.0" stroke="#d8b15a" stroke-width="1.2" opacity=".58"/>
<polyline points="92.0,463.8 104.2,485.6 116.4,472.8 128.7,475.2 140.9,434.8 153.1,424.9 165.3,449.4 177.6,447.7 189.8,431.2 202.0,447.0 214.2,421.0 226.5,442.6 238.7,467.9 250.9,461.3 263.1,435.8 275.4,427.1 287.6,395.2 299.8,419.5 312.0,375.3 324.3,275.7 336.5,355.4 348.7,318.7 360.9,354.9 373.2,303.2 385.4,289.5 397.6,351.5 409.8,362.4 422.1,296.6 434.3,319.4 446.5,263.1 458.7,307.5 471.0,290.5 483.2,305.8 495.4,250.4 507.6,183.9 519.9,192.4 532.1,278.1 544.3,297.1 556.5,298.1 568.8,318.0 581.0,290.0 593.2,371.4 605.4,398.4 617.7,389.9 629.9,417.4 642.1,429.7 654.3,424.4 666.6,425.4 678.8,434.1 691.0,422.9 703.2,410.3 715.5,419.3 727.7,420.0 739.9,413.7 752.1,437.0 764.4,447.2 776.6,432.2 788.8,451.4 801.0,446.3 813.3,439.2 825.5,439.7 837.7,454.5 849.9,460.4 862.2,455.5 874.4,446.8 886.6,462.3 898.8,448.7 911.1,464.5 923.3,458.4 935.5,473.7 947.7,465.9 960.0,480.5 972.2,498.3 984.4,494.9 996.6,514.1 1008.9,526.5 1021.1,536.9 1033.3,546.9 1045.5,533.3 1057.8,542.7 1070.0,541.3 1082.2,561.9 1094.4,522.1 1106.7,531.8 1118.9,523.0 1131.1,488.8 1143.3,519.6 1155.6,546.9 1167.8,585.5 1180.0,583.4" fill="none" stroke="#d9e2dc" stroke-width="3" stroke-linejoin="round" stroke-linecap="round"/>
<circle cx="1180.0" cy="583.4" r="5.5" fill="#f2d27b"/>
<line x1="92.0" y1="622" x2="92.0" y2="630" stroke="#69746d" stroke-width="1"/>
<text x="92.0" y="652" text-anchor="start" font-family="'Tajawal','Cairo','Segoe UI',Arial,sans-serif" font-size="14" fill="#9aa49d" direction="rtl">6 فبر 2026</text>
<line x1="360.9" y1="622" x2="360.9" y2="630" stroke="#69746d" stroke-width="1"/>
<text x="360.9" y="652" text-anchor="middle" font-family="'Tajawal','Cairo','Segoe UI',Arial,sans-serif" font-size="14" fill="#9aa49d" direction="rtl">11 مار 2026</text>
<line x1="642.1" y1="622" x2="642.1" y2="630" stroke="#69746d" stroke-width="1"/>
<text x="642.1" y="652" text-anchor="middle" font-family="'Tajawal','Cairo','Segoe UI',Arial,sans-serif" font-size="14" fill="#9aa49d" direction="rtl">14 أبر 2026</text>
<line x1="911.1" y1="622" x2="911.1" y2="630" stroke="#69746d" stroke-width="1"/>
<text x="911.1" y="652" text-anchor="middle" font-family="'Tajawal','Cairo','Segoe UI',Arial,sans-serif" font-size="14" fill="#9aa49d" direction="rtl">14 ماي 2026</text>
<line x1="1180.0" y1="622" x2="1180.0" y2="630" stroke="#69746d" stroke-width="1"/>
<text x="1180.0" y="652" text-anchor="end" font-family="'Tajawal','Cairo','Segoe UI',Arial,sans-serif" font-size="14" fill="#9aa49d" direction="rtl">16 يون 2026</text>
<g data-overlay-type="support_resistance_zone" data-evidence-refs="ohlcv:2026-05-19:2026-06-16:low" data-zone-type="support_resistance_zone" data-zone-role="floor" data-lower="21.559999465942383" data-upper="22.08099956512451" data-method="20_session_extreme_atr_band">
<rect x="1174" y="678" width="5" height="14" fill="#d8b15a" opacity=".8"/>
<text x="1160" y="690" text-anchor="end" direction="rtl" font-family="'Tajawal','Cairo','Segoe UI',Arial,sans-serif" font-size="15" fill="#cad3c7">الحد الأدنى للنطاق المرصود</text>
</g>
<g data-overlay-type="support_resistance_zone" data-evidence-refs="ohlcv:2026-05-19:2026-06-16:high" data-zone-type="support_resistance_zone" data-zone-role="ceiling" data-lower="26.249000358581544" data-upper="26.770000457763672" data-method="20_session_extreme_atr_band">
<rect x="1174" y="700" width="5" height="14" fill="#d8b15a" opacity=".8"/>
<text x="1160" y="712" text-anchor="end" direction="rtl" font-family="'Tajawal','Cairo','Segoe UI',Arial,sans-serif" font-size="15" fill="#cad3c7">الحد الأعلى للنطاق المرصود</text>
</g>
<g data-overlay-type="structure" data-evidence-refs="ohlcv:2026-04-21:2026-05-18:range|ohlcv:2026-06-16:close" data-method="latest_close_vs_prior_20_session_range">
<rect x="1174" y="722" width="5" height="14" fill="#d8b15a" opacity=".8"/>
<text x="1160" y="734" text-anchor="end" direction="rtl" font-family="'Tajawal','Cairo','Segoe UI',Arial,sans-serif" font-size="15" fill="#cad3c7">الإغلاق أدنى النطاق المرصود السابق</text>
</g>
<g data-overlay-type="tactical_context" data-evidence-refs="tactical-context:continuation:persistence=persistent|tactical-context:continuation:participation=mixed|tactical-context:continuation:fragility=fragile" data-tactical-state="fragile_continuation" data-source-artifact="data/intelligence/tactical-context.json">
<rect x="1174" y="744" width="5" height="14" fill="#d8b15a" opacity=".8"/>
<text x="1160" y="756" text-anchor="end" direction="rtl" font-family="'Tajawal','Cairo','Segoe UI',Arial,sans-serif" font-size="15" fill="#cad3c7">السياق التكتيكي: استمرار هش</text>
</g>
<text x="1180" y="870" text-anchor="end" direction="rtl" font-family="'Tajawal','Cairo','Segoe UI',Arial,sans-serif" font-size="13" fill="#8d978f">المصدر: بيانات OHLCV اليومية من Yahoo · حتى 2026-06-16</text>
<text x="1180" y="890" text-anchor="end" direction="rtl" font-family="'Tajawal','Cairo','Segoe UI',Arial,sans-serif" font-size="12" fill="#5d675f">قراءة للبنية المرصودة، وليست توقعاً أو توصية</text>
</svg>
