<svg xmlns="http://www.w3.org/2000/svg" viewBox="0 0 1400 900" role="img" aria-label="Materials sector observed structure" preserveAspectRatio="xMidYMid meet" data-series-hash="01994d0c65539b35aaf89e77a9cebf18f16396e4987c1df83afab56ae5be58d2" data-bar-count="90" data-overlay-count="3" data-time-axis="true" data-time-ticks="5" data-time-tick-dates="2026-02-06|2026-03-11|2026-04-14|2026-05-14|2026-06-16">
<rect width="1400" height="900" fill="#0b0e13"/>
<rect width="1400" height="3" fill="#d8b15a" opacity=".88"/>
<text x="92" y="52" text-anchor="start" font-family="'Inter','Segoe UI',Arial,sans-serif" font-size="18" font-weight="700" fill="#d8b15a">Institutional Price Structure</text>
<text x="92" y="96" text-anchor="start" font-family="'Inter','Segoe UI',Arial,sans-serif" font-size="34" font-weight="760" fill="#f4f7f1">Materials sector observed structure</text>
<rect x="92" y="142" width="1216" height="480" rx="8" fill="#10151d" stroke="rgba(148,163,184,.2)"/>
<line x1="92" y1="622.0" x2="1308" y2="622.0" stroke="rgba(148,163,184,.12)"/>
<text x="1298" y="615.0" text-anchor="end" font-family="'Inter','Segoe UI',Arial,sans-serif" font-size="15" fill="#9aa49d">46.137</text>
<line x1="92" y1="526.0" x2="1308" y2="526.0" stroke="rgba(148,163,184,.12)"/>
<text x="1298" y="519.0" text-anchor="end" font-family="'Inter','Segoe UI',Arial,sans-serif" font-size="15" fill="#9aa49d">47.856</text>
<line x1="92" y1="430.0" x2="1308" y2="430.0" stroke="rgba(148,163,184,.12)"/>
<text x="1298" y="423.0" text-anchor="end" font-family="'Inter','Segoe UI',Arial,sans-serif" font-size="15" fill="#9aa49d">49.575</text>
<line x1="92" y1="334.0" x2="1308" y2="334.0" stroke="rgba(148,163,184,.12)"/>
<text x="1298" y="327.0" text-anchor="end" font-family="'Inter','Segoe UI',Arial,sans-serif" font-size="15" fill="#9aa49d">51.295</text>
<line x1="92" y1="238.0" x2="1308" y2="238.0" stroke="rgba(148,163,184,.12)"/>
<text x="1298" y="231.0" text-anchor="end" font-family="'Inter','Segoe UI',Arial,sans-serif" font-size="15" fill="#9aa49d">53.014</text>
<line x1="92" y1="142.0" x2="1308" y2="142.0" stroke="rgba(148,163,184,.12)"/>
<text x="1298" y="135.0" text-anchor="end" font-family="'Inter','Segoe UI',Arial,sans-serif" font-size="15" fill="#9aa49d">54.733</text>
<rect x="92" y="444.2" width="1216" height="24.1" fill="#6ee7d8" opacity=".09"/>
<line x1="92" y1="444.2" x2="1308" y2="444.2" stroke="#6ee7d8" stroke-width="1.2" opacity=".58"/>
<line x1="92" y1="468.3" x2="1308" y2="468.3" stroke="#6ee7d8" stroke-width="1.2" opacity=".58"/>
<rect x="92" y="227.6" width="1216" height="24.1" fill="#d8b15a" opacity=".09"/>
<line x1="92" y1="227.6" x2="1308" y2="227.6" stroke="#d8b15a" stroke-width="1.2" opacity=".58"/>
<line x1="92" y1="251.7" x2="1308" y2="251.7" stroke="#d8b15a" stroke-width="1.2" opacity=".58"/>
<polyline points="92.0,322.0 105.7,284.6 119.3,243.8 133.0,204.1 146.7,248.3 160.3,221.5 174.0,255.5 187.6,237.6 201.3,248.3 215.0,241.0 228.6,241.0 242.3,218.7 256.0,235.4 269.6,238.8 283.3,215.9 296.9,224.8 310.6,298.0 324.3,299.1 337.9,359.9 351.6,414.1 365.3,406.8 378.9,413.0 392.6,415.2 406.2,424.2 419.9,451.5 433.6,439.8 447.2,433.1 460.9,491.2 474.6,532.5 488.2,574.9 501.9,543.1 515.6,492.8 529.2,439.2 542.9,457.1 556.5,467.2 570.2,457.1 583.9,408.0 597.5,380.6 611.2,383.4 624.9,394.0 638.5,401.8 652.2,308.6 665.8,313.0 679.5,296.8 693.2,284.0 706.8,294.0 720.5,329.2 734.2,308.6 747.8,301.3 761.5,281.8 775.1,307.5 788.8,304.1 802.5,305.2 816.1,299.1 829.8,306.9 843.5,328.1 857.1,352.7 870.8,324.2 884.4,330.9 898.1,370.0 911.8,320.9 925.4,271.7 939.1,328.1 952.8,317.5 966.4,280.1 980.1,286.8 993.8,291.3 1007.4,313.0 1021.1,389.5 1034.7,394.0 1048.4,459.9 1062.1,421.9 1075.7,405.2 1089.4,390.1 1103.1,351.0 1116.7,340.4 1130.4,330.3 1144.0,342.1 1157.7,354.9 1171.4,321.4 1185.0,315.3 1198.7,315.8 1212.4,371.1 1226.0,408.5 1239.7,363.3 1253.3,428.6 1267.0,338.2 1280.7,284.6 1294.3,266.7 1308.0,254.4" fill="none" stroke="#d9e2dc" stroke-width="3" stroke-linejoin="round" stroke-linecap="round"/>
<circle cx="1308.0" cy="254.4" r="5.5" fill="#f2d27b"/>
<line x1="92.0" y1="622" x2="92.0" y2="630" stroke="#69746d" stroke-width="1"/>
<text x="92.0" y="652" text-anchor="start" font-family="'Inter','Segoe UI',Arial,sans-serif" font-size="14" fill="#9aa49d">Feb 6, 2026</text>
<line x1="392.6" y1="622" x2="392.6" y2="630" stroke="#69746d" stroke-width="1"/>
<text x="392.6" y="652" text-anchor="middle" font-family="'Inter','Segoe UI',Arial,sans-serif" font-size="14" fill="#9aa49d">Mar 11, 2026</text>
<line x1="706.8" y1="622" x2="706.8" y2="630" stroke="#69746d" stroke-width="1"/>
<text x="706.8" y="652" text-anchor="middle" font-family="'Inter','Segoe UI',Arial,sans-serif" font-size="14" fill="#9aa49d">Apr 14, 2026</text>
<line x1="1007.4" y1="622" x2="1007.4" y2="630" stroke="#69746d" stroke-width="1"/>
<text x="1007.4" y="652" text-anchor="middle" font-family="'Inter','Segoe UI',Arial,sans-serif" font-size="14" fill="#9aa49d">May 14, 2026</text>
<line x1="1308.0" y1="622" x2="1308.0" y2="630" stroke="#69746d" stroke-width="1"/>
<text x="1308.0" y="652" text-anchor="end" font-family="'Inter','Segoe UI',Arial,sans-serif" font-size="14" fill="#9aa49d">Jun 16, 2026</text>
<g data-overlay-type="support_resistance_zone" data-evidence-refs="ohlcv:2026-05-19:2026-06-16:low" data-zone-type="support_resistance_zone" data-zone-role="floor" data-lower="48.88999938964844" data-upper="49.32099952697754" data-method="20_session_extreme_atr_band">
<rect x="92" y="678" width="5" height="14" fill="#d8b15a" opacity=".8"/>
<text x="108" y="690" text-anchor="start" font-family="'Inter','Segoe UI',Arial,sans-serif" font-size="15" fill="#cad3c7">Observed range floor</text>
</g>
<g data-overlay-type="support_resistance_zone" data-evidence-refs="ohlcv:2026-05-19:2026-06-16:high" data-zone-type="support_resistance_zone" data-zone-role="ceiling" data-lower="52.76900062561035" data-upper="53.20000076293945" data-method="20_session_extreme_atr_band">
<rect x="92" y="700" width="5" height="14" fill="#d8b15a" opacity=".8"/>
<text x="108" y="712" text-anchor="start" font-family="'Inter','Segoe UI',Arial,sans-serif" font-size="15" fill="#cad3c7">Observed range ceiling</text>
</g>
<g data-overlay-type="structure" data-evidence-refs="ohlcv:2026-04-21:2026-05-18:range|ohlcv:2026-06-16:close" data-method="latest_close_vs_prior_20_session_range">
<rect x="92" y="722" width="5" height="14" fill="#d8b15a" opacity=".8"/>
<text x="108" y="734" text-anchor="start" font-family="'Inter','Segoe UI',Arial,sans-serif" font-size="15" fill="#cad3c7">Close remains inside prior observed range</text>
</g>
<text x="92" y="870" text-anchor="start" font-family="'Inter','Segoe UI',Arial,sans-serif" font-size="13" fill="#8d978f">Source: Yahoo daily OHLCV · As of 2026-06-16</text>
<text x="92" y="890" text-anchor="start" font-family="'Inter','Segoe UI',Arial,sans-serif" font-size="12" fill="#5d675f">Observed market structure, not a forecast or recommendation</text>
</svg>
