<svg xmlns="http://www.w3.org/2000/svg" viewBox="0 0 1400 900" role="img" aria-label="Energy sector observed structure" preserveAspectRatio="xMidYMid meet" data-series-hash="45ea3761be86855aa7c7863850eda10c796f99f57d65769f5d1c59251cd11003" data-bar-count="90" data-overlay-count="3" data-time-axis="true" data-time-ticks="5" data-time-tick-dates="2026-02-06|2026-03-11|2026-04-14|2026-05-14|2026-06-16">
<rect width="1400" height="900" fill="#0b0e13"/>
<rect width="1400" height="3" fill="#d8b15a" opacity=".88"/>
<text x="92" y="52" text-anchor="start" font-family="'Inter','Segoe UI',Arial,sans-serif" font-size="18" font-weight="700" fill="#d8b15a">Institutional Price Structure</text>
<text x="92" y="96" text-anchor="start" font-family="'Inter','Segoe UI',Arial,sans-serif" font-size="34" font-weight="760" fill="#f4f7f1">Energy sector observed structure</text>
<rect x="92" y="142" width="1216" height="480" rx="8" fill="#10151d" stroke="rgba(148,163,184,.2)"/>
<line x1="92" y1="622.0" x2="1308" y2="622.0" stroke="rgba(148,163,184,.12)"/>
<text x="1298" y="615.0" text-anchor="end" font-family="'Inter','Segoe UI',Arial,sans-serif" font-size="15" fill="#9aa49d">51.472</text>
<line x1="92" y1="526.0" x2="1308" y2="526.0" stroke="rgba(148,163,184,.12)"/>
<text x="1298" y="519.0" text-anchor="end" font-family="'Inter','Segoe UI',Arial,sans-serif" font-size="15" fill="#9aa49d">54.047</text>
<line x1="92" y1="430.0" x2="1308" y2="430.0" stroke="rgba(148,163,184,.12)"/>
<text x="1298" y="423.0" text-anchor="end" font-family="'Inter','Segoe UI',Arial,sans-serif" font-size="15" fill="#9aa49d">56.622</text>
<line x1="92" y1="334.0" x2="1308" y2="334.0" stroke="rgba(148,163,184,.12)"/>
<text x="1298" y="327.0" text-anchor="end" font-family="'Inter','Segoe UI',Arial,sans-serif" font-size="15" fill="#9aa49d">59.198</text>
<line x1="92" y1="238.0" x2="1308" y2="238.0" stroke="rgba(148,163,184,.12)"/>
<text x="1298" y="231.0" text-anchor="end" font-family="'Inter','Segoe UI',Arial,sans-serif" font-size="15" fill="#9aa49d">61.773</text>
<line x1="92" y1="142.0" x2="1308" y2="142.0" stroke="rgba(148,163,184,.12)"/>
<text x="1298" y="135.0" text-anchor="end" font-family="'Inter','Segoe UI',Arial,sans-serif" font-size="15" fill="#9aa49d">64.348</text>
<rect x="92" y="468.1" width="1216" height="24.3" fill="#6ee7d8" opacity=".09"/>
<line x1="92" y1="468.1" x2="1308" y2="468.1" stroke="#6ee7d8" stroke-width="1.2" opacity=".58"/>
<line x1="92" y1="492.3" x2="1308" y2="492.3" stroke="#6ee7d8" stroke-width="1.2" opacity=".58"/>
<rect x="92" y="240.7" width="1216" height="24.3" fill="#d8b15a" opacity=".09"/>
<line x1="92" y1="240.7" x2="1308" y2="240.7" stroke="#d8b15a" stroke-width="1.2" opacity=".58"/>
<line x1="92" y1="265.0" x2="1308" y2="265.0" stroke="#d8b15a" stroke-width="1.2" opacity=".58"/>
<polyline points="92.0,555.7 105.7,541.2 119.3,543.4 133.0,491.2 146.7,528.5 160.3,514.7 174.0,537.1 187.6,498.7 201.3,483.8 215.0,495.0 228.6,484.9 242.3,486.8 256.0,495.3 269.6,488.6 283.3,456.2 296.9,414.4 310.6,433.8 324.3,446.1 337.9,435.3 351.6,432.0 365.3,441.3 378.9,468.1 392.6,416.7 406.2,396.9 419.9,389.8 433.6,382.4 447.2,359.6 460.9,362.6 474.6,327.9 488.2,329.8 501.9,317.9 515.6,272.8 529.2,282.8 542.9,247.4 556.5,208.7 570.2,231.0 583.9,257.1 597.5,342.5 611.2,332.0 624.9,316.0 638.5,298.1 652.2,376.8 665.8,403.6 679.5,418.2 693.2,411.8 706.8,455.1 720.5,462.1 734.2,431.6 747.8,489.7 761.5,487.9 775.1,458.0 788.8,433.1 802.5,416.7 816.1,420.8 829.8,424.5 843.5,389.5 857.1,340.2 870.8,317.1 884.4,347.0 898.1,326.8 911.8,324.6 925.4,415.9 939.1,455.1 952.8,464.4 966.4,409.6 980.1,394.7 993.8,392.4 1007.4,376.0 1021.1,325.0 1034.7,282.5 1048.4,256.0 1062.1,311.5 1075.7,336.5 1089.4,323.1 1103.1,384.2 1116.7,416.3 1130.4,417.8 1144.0,442.4 1157.7,404.7 1171.4,380.1 1185.0,352.2 1198.7,350.7 1212.4,390.9 1226.0,366.3 1239.7,401.4 1253.3,369.3 1267.0,411.5 1280.7,395.4 1294.3,470.0 1308.0,477.1" fill="none" stroke="#d9e2dc" stroke-width="3" stroke-linejoin="round" stroke-linecap="round"/>
<circle cx="1308.0" cy="477.1" r="5.5" fill="#f2d27b"/>
<line x1="92.0" y1="622" x2="92.0" y2="630" stroke="#69746d" stroke-width="1"/>
<text x="92.0" y="652" text-anchor="start" font-family="'Inter','Segoe UI',Arial,sans-serif" font-size="14" fill="#9aa49d">Feb 6, 2026</text>
<line x1="392.6" y1="622" x2="392.6" y2="630" stroke="#69746d" stroke-width="1"/>
<text x="392.6" y="652" text-anchor="middle" font-family="'Inter','Segoe UI',Arial,sans-serif" font-size="14" fill="#9aa49d">Mar 11, 2026</text>
<line x1="706.8" y1="622" x2="706.8" y2="630" stroke="#69746d" stroke-width="1"/>
<text x="706.8" y="652" text-anchor="middle" font-family="'Inter','Segoe UI',Arial,sans-serif" font-size="14" fill="#9aa49d">Apr 14, 2026</text>
<line x1="1007.4" y1="622" x2="1007.4" y2="630" stroke="#69746d" stroke-width="1"/>
<text x="1007.4" y="652" text-anchor="middle" font-family="'Inter','Segoe UI',Arial,sans-serif" font-size="14" fill="#9aa49d">May 14, 2026</text>
<line x1="1308.0" y1="622" x2="1308.0" y2="630" stroke="#69746d" stroke-width="1"/>
<text x="1308.0" y="652" text-anchor="end" font-family="'Inter','Segoe UI',Arial,sans-serif" font-size="14" fill="#9aa49d">Jun 16, 2026</text>
<g data-overlay-type="support_resistance_zone" data-evidence-refs="ohlcv:2026-05-19:2026-06-16:low" data-zone-type="support_resistance_zone" data-zone-role="floor" data-lower="54.95000076293945" data-upper="55.601150817871094" data-method="20_session_extreme_atr_band">
<rect x="92" y="678" width="5" height="14" fill="#d8b15a" opacity=".8"/>
<text x="108" y="690" text-anchor="start" font-family="'Inter','Segoe UI',Arial,sans-serif" font-size="15" fill="#cad3c7">Observed range floor</text>
</g>
<g data-overlay-type="support_resistance_zone" data-evidence-refs="ohlcv:2026-05-19:2026-06-16:high" data-zone-type="support_resistance_zone" data-zone-role="ceiling" data-lower="61.04885070800781" data-upper="61.70000076293945" data-method="20_session_extreme_atr_band">
<rect x="92" y="700" width="5" height="14" fill="#d8b15a" opacity=".8"/>
<text x="108" y="712" text-anchor="start" font-family="'Inter','Segoe UI',Arial,sans-serif" font-size="15" fill="#cad3c7">Observed range ceiling</text>
</g>
<g data-overlay-type="structure" data-evidence-refs="ohlcv:2026-04-21:2026-05-18:range|ohlcv:2026-06-16:close" data-method="latest_close_vs_prior_20_session_range">
<rect x="92" y="722" width="5" height="14" fill="#d8b15a" opacity=".8"/>
<text x="108" y="734" text-anchor="start" font-family="'Inter','Segoe UI',Arial,sans-serif" font-size="15" fill="#cad3c7">Close remains inside prior observed range</text>
</g>
<text x="92" y="870" text-anchor="start" font-family="'Inter','Segoe UI',Arial,sans-serif" font-size="13" fill="#8d978f">Source: Yahoo daily OHLCV · As of 2026-06-16</text>
<text x="92" y="890" text-anchor="start" font-family="'Inter','Segoe UI',Arial,sans-serif" font-size="12" fill="#5d675f">Observed market structure, not a forecast or recommendation</text>
</svg>
