<svg xmlns="http://www.w3.org/2000/svg" viewBox="0 0 1400 900" role="img" aria-label="البنية المرصودة لقطاع السلع الاستهلاكية الأساسية" preserveAspectRatio="xMidYMid meet" direction="rtl" data-series-hash="3d439dc41aa479b8983b8354aba71e09de59b04a572ef543dab2a3de87358631" data-bar-count="90" data-overlay-count="3" data-time-axis="true" data-time-ticks="5" data-time-tick-dates="2026-02-06|2026-03-11|2026-04-14|2026-05-14|2026-06-16">
<rect width="1400" height="900" fill="#0b0e13"/>
<rect width="1400" height="3" fill="#d8b15a" opacity=".88"/>
<text x="1180" y="52" text-anchor="end" direction="rtl" font-family="'Tajawal','Cairo','Segoe UI',Arial,sans-serif" font-size="18" font-weight="700" fill="#d8b15a">البنية السعرية المؤسسية</text>
<text x="1180" y="96" text-anchor="end" direction="rtl" font-family="'Tajawal','Cairo','Segoe UI',Arial,sans-serif" font-size="34" font-weight="760" fill="#f4f7f1">البنية المرصودة لقطاع السلع الاستهلاكية الأساسية</text>
<rect x="92" y="142" width="1088" height="480" rx="8" fill="#10151d" stroke="rgba(148,163,184,.2)"/>
<line x1="92" y1="622.0" x2="1180" y2="622.0" stroke="rgba(148,163,184,.12)"/>
<text x="1170" y="615.0" text-anchor="end" font-family="'Inter','Segoe UI',Arial,sans-serif" font-size="15" fill="#9aa49d">79.686</text>
<line x1="92" y1="526.0" x2="1180" y2="526.0" stroke="rgba(148,163,184,.12)"/>
<text x="1170" y="519.0" text-anchor="end" font-family="'Inter','Segoe UI',Arial,sans-serif" font-size="15" fill="#9aa49d">81.931</text>
<line x1="92" y1="430.0" x2="1180" y2="430.0" stroke="rgba(148,163,184,.12)"/>
<text x="1170" y="423.0" text-anchor="end" font-family="'Inter','Segoe UI',Arial,sans-serif" font-size="15" fill="#9aa49d">84.177</text>
<line x1="92" y1="334.0" x2="1180" y2="334.0" stroke="rgba(148,163,184,.12)"/>
<text x="1170" y="327.0" text-anchor="end" font-family="'Inter','Segoe UI',Arial,sans-serif" font-size="15" fill="#9aa49d">86.423</text>
<line x1="92" y1="238.0" x2="1180" y2="238.0" stroke="rgba(148,163,184,.12)"/>
<text x="1170" y="231.0" text-anchor="end" font-family="'Inter','Segoe UI',Arial,sans-serif" font-size="15" fill="#9aa49d">88.669</text>
<line x1="92" y1="142.0" x2="1180" y2="142.0" stroke="rgba(148,163,184,.12)"/>
<text x="1170" y="135.0" text-anchor="end" font-family="'Inter','Segoe UI',Arial,sans-serif" font-size="15" fill="#9aa49d">90.914</text>
<rect x="92" y="523.0" width="1088" height="22.3" fill="#6ee7d8" opacity=".09"/>
<line x1="92" y1="523.0" x2="1180" y2="523.0" stroke="#6ee7d8" stroke-width="1.2" opacity=".58"/>
<line x1="92" y1="545.3" x2="1180" y2="545.3" stroke="#6ee7d8" stroke-width="1.2" opacity=".58"/>
<rect x="92" y="322.2" width="1088" height="22.3" fill="#d8b15a" opacity=".09"/>
<line x1="92" y1="322.2" x2="1180" y2="322.2" stroke="#d8b15a" stroke-width="1.2" opacity=".58"/>
<line x1="92" y1="344.5" x2="1180" y2="344.5" stroke="#d8b15a" stroke-width="1.2" opacity=".58"/>
<polyline points="92.0,269.1 104.2,290.9 116.4,302.9 128.7,249.5 140.9,214.9 153.1,202.0 165.3,258.0 177.6,264.9 189.8,280.7 202.0,271.3 214.2,225.1 226.5,192.2 238.7,223.4 250.9,229.8 263.1,180.7 275.4,236.2 287.6,277.7 299.8,302.5 312.0,377.3 324.3,361.5 336.5,353.4 348.7,364.0 360.9,412.4 373.2,426.9 385.4,405.9 397.6,395.7 409.8,407.6 422.1,495.7 434.3,524.3 446.5,553.4 458.7,558.1 471.0,561.1 483.2,544.0 495.4,559.8 507.6,532.5 519.9,528.2 532.1,523.9 544.3,546.1 556.5,527.8 568.8,494.9 581.0,554.7 593.2,489.7 605.4,461.1 617.7,507.2 629.9,542.3 642.1,545.7 654.3,563.2 666.6,547.4 678.8,503.4 691.0,506.4 703.2,529.9 715.5,518.4 727.7,459.8 739.9,470.5 752.1,508.5 764.4,476.9 776.6,483.7 788.8,424.3 801.0,430.3 813.3,457.2 825.5,435.0 837.7,427.3 849.9,438.4 862.2,429.9 874.4,464.5 886.6,418.8 898.8,406.8 911.1,395.7 923.3,410.2 935.5,356.4 947.7,348.2 960.0,372.6 972.2,409.4 984.4,403.4 996.6,453.4 1008.9,412.8 1021.1,419.2 1033.3,484.2 1045.5,521.8 1057.8,530.3 1070.0,516.2 1082.2,521.4 1094.4,461.5 1106.7,477.3 1118.9,433.3 1131.1,373.9 1143.3,383.3 1155.6,359.8 1167.8,374.3 1180.0,369.6" fill="none" stroke="#d9e2dc" stroke-width="3" stroke-linejoin="round" stroke-linecap="round"/>
<circle cx="1180.0" cy="369.6" r="5.5" fill="#f2d27b"/>
<line x1="92.0" y1="622" x2="92.0" y2="630" stroke="#69746d" stroke-width="1"/>
<text x="92.0" y="652" text-anchor="start" font-family="'Tajawal','Cairo','Segoe UI',Arial,sans-serif" font-size="14" fill="#9aa49d" direction="rtl">6 فبر 2026</text>
<line x1="360.9" y1="622" x2="360.9" y2="630" stroke="#69746d" stroke-width="1"/>
<text x="360.9" y="652" text-anchor="middle" font-family="'Tajawal','Cairo','Segoe UI',Arial,sans-serif" font-size="14" fill="#9aa49d" direction="rtl">11 مار 2026</text>
<line x1="642.1" y1="622" x2="642.1" y2="630" stroke="#69746d" stroke-width="1"/>
<text x="642.1" y="652" text-anchor="middle" font-family="'Tajawal','Cairo','Segoe UI',Arial,sans-serif" font-size="14" fill="#9aa49d" direction="rtl">14 أبر 2026</text>
<line x1="911.1" y1="622" x2="911.1" y2="630" stroke="#69746d" stroke-width="1"/>
<text x="911.1" y="652" text-anchor="middle" font-family="'Tajawal','Cairo','Segoe UI',Arial,sans-serif" font-size="14" fill="#9aa49d" direction="rtl">14 ماي 2026</text>
<line x1="1180.0" y1="622" x2="1180.0" y2="630" stroke="#69746d" stroke-width="1"/>
<text x="1180.0" y="652" text-anchor="end" font-family="'Tajawal','Cairo','Segoe UI',Arial,sans-serif" font-size="14" fill="#9aa49d" direction="rtl">16 يون 2026</text>
<g data-overlay-type="support_resistance_zone" data-evidence-refs="ohlcv:2026-05-19:2026-06-16:low" data-zone-type="support_resistance_zone" data-zone-role="floor" data-lower="81.4800033569336" data-upper="82.00200271606445" data-method="20_session_extreme_atr_band">
<rect x="1174" y="678" width="5" height="14" fill="#d8b15a" opacity=".8"/>
<text x="1160" y="690" text-anchor="end" direction="rtl" font-family="'Tajawal','Cairo','Segoe UI',Arial,sans-serif" font-size="15" fill="#cad3c7">الحد الأدنى للنطاق المرصود</text>
</g>
<g data-overlay-type="support_resistance_zone" data-evidence-refs="ohlcv:2026-05-19:2026-06-16:high" data-zone-type="support_resistance_zone" data-zone-role="ceiling" data-lower="86.17799758911133" data-upper="86.69999694824219" data-method="20_session_extreme_atr_band">
<rect x="1174" y="700" width="5" height="14" fill="#d8b15a" opacity=".8"/>
<text x="1160" y="712" text-anchor="end" direction="rtl" font-family="'Tajawal','Cairo','Segoe UI',Arial,sans-serif" font-size="15" fill="#cad3c7">الحد الأعلى للنطاق المرصود</text>
</g>
<g data-overlay-type="structure" data-evidence-refs="ohlcv:2026-04-21:2026-05-18:range|ohlcv:2026-06-16:close" data-method="latest_close_vs_prior_20_session_range">
<rect x="1174" y="722" width="5" height="14" fill="#d8b15a" opacity=".8"/>
<text x="1160" y="734" text-anchor="end" direction="rtl" font-family="'Tajawal','Cairo','Segoe UI',Arial,sans-serif" font-size="15" fill="#cad3c7">الإغلاق ما زال داخل النطاق المرصود السابق</text>
</g>
<text x="1180" y="870" text-anchor="end" direction="rtl" font-family="'Tajawal','Cairo','Segoe UI',Arial,sans-serif" font-size="13" fill="#8d978f">المصدر: بيانات OHLCV اليومية من Yahoo · حتى 2026-06-16</text>
<text x="1180" y="890" text-anchor="end" direction="rtl" font-family="'Tajawal','Cairo','Segoe UI',Arial,sans-serif" font-size="12" fill="#5d675f">قراءة للبنية المرصودة، وليست توقعاً أو توصية</text>
</svg>
