<svg xmlns="http://www.w3.org/2000/svg" viewBox="0 0 1400 900" role="img" aria-label="Consumer Staples sector observed structure" preserveAspectRatio="xMidYMid meet" data-series-hash="3d439dc41aa479b8983b8354aba71e09de59b04a572ef543dab2a3de87358631" data-bar-count="90" data-overlay-count="3" data-time-axis="true" data-time-ticks="5" data-time-tick-dates="2026-02-06|2026-03-11|2026-04-14|2026-05-14|2026-06-16">
<rect width="1400" height="900" fill="#0b0e13"/>
<rect width="1400" height="3" fill="#d8b15a" opacity=".88"/>
<text x="92" y="52" text-anchor="start" font-family="'Inter','Segoe UI',Arial,sans-serif" font-size="18" font-weight="700" fill="#d8b15a">Institutional Price Structure</text>
<text x="92" y="96" text-anchor="start" font-family="'Inter','Segoe UI',Arial,sans-serif" font-size="34" font-weight="760" fill="#f4f7f1">Consumer Staples sector observed structure</text>
<rect x="92" y="142" width="1216" height="480" rx="8" fill="#10151d" stroke="rgba(148,163,184,.2)"/>
<line x1="92" y1="622.0" x2="1308" y2="622.0" stroke="rgba(148,163,184,.12)"/>
<text x="1298" y="615.0" text-anchor="end" font-family="'Inter','Segoe UI',Arial,sans-serif" font-size="15" fill="#9aa49d">79.686</text>
<line x1="92" y1="526.0" x2="1308" y2="526.0" stroke="rgba(148,163,184,.12)"/>
<text x="1298" y="519.0" text-anchor="end" font-family="'Inter','Segoe UI',Arial,sans-serif" font-size="15" fill="#9aa49d">81.931</text>
<line x1="92" y1="430.0" x2="1308" y2="430.0" stroke="rgba(148,163,184,.12)"/>
<text x="1298" y="423.0" text-anchor="end" font-family="'Inter','Segoe UI',Arial,sans-serif" font-size="15" fill="#9aa49d">84.177</text>
<line x1="92" y1="334.0" x2="1308" y2="334.0" stroke="rgba(148,163,184,.12)"/>
<text x="1298" y="327.0" text-anchor="end" font-family="'Inter','Segoe UI',Arial,sans-serif" font-size="15" fill="#9aa49d">86.423</text>
<line x1="92" y1="238.0" x2="1308" y2="238.0" stroke="rgba(148,163,184,.12)"/>
<text x="1298" y="231.0" text-anchor="end" font-family="'Inter','Segoe UI',Arial,sans-serif" font-size="15" fill="#9aa49d">88.669</text>
<line x1="92" y1="142.0" x2="1308" y2="142.0" stroke="rgba(148,163,184,.12)"/>
<text x="1298" y="135.0" text-anchor="end" font-family="'Inter','Segoe UI',Arial,sans-serif" font-size="15" fill="#9aa49d">90.914</text>
<rect x="92" y="523.0" width="1216" height="22.3" fill="#6ee7d8" opacity=".09"/>
<line x1="92" y1="523.0" x2="1308" y2="523.0" stroke="#6ee7d8" stroke-width="1.2" opacity=".58"/>
<line x1="92" y1="545.3" x2="1308" y2="545.3" stroke="#6ee7d8" stroke-width="1.2" opacity=".58"/>
<rect x="92" y="322.2" width="1216" height="22.3" fill="#d8b15a" opacity=".09"/>
<line x1="92" y1="322.2" x2="1308" y2="322.2" stroke="#d8b15a" stroke-width="1.2" opacity=".58"/>
<line x1="92" y1="344.5" x2="1308" y2="344.5" stroke="#d8b15a" stroke-width="1.2" opacity=".58"/>
<polyline points="92.0,269.1 105.7,290.9 119.3,302.9 133.0,249.5 146.7,214.9 160.3,202.0 174.0,258.0 187.6,264.9 201.3,280.7 215.0,271.3 228.6,225.1 242.3,192.2 256.0,223.4 269.6,229.8 283.3,180.7 296.9,236.2 310.6,277.7 324.3,302.5 337.9,377.3 351.6,361.5 365.3,353.4 378.9,364.0 392.6,412.4 406.2,426.9 419.9,405.9 433.6,395.7 447.2,407.6 460.9,495.7 474.6,524.3 488.2,553.4 501.9,558.1 515.6,561.1 529.2,544.0 542.9,559.8 556.5,532.5 570.2,528.2 583.9,523.9 597.5,546.1 611.2,527.8 624.9,494.9 638.5,554.7 652.2,489.7 665.8,461.1 679.5,507.2 693.2,542.3 706.8,545.7 720.5,563.2 734.2,547.4 747.8,503.4 761.5,506.4 775.1,529.9 788.8,518.4 802.5,459.8 816.1,470.5 829.8,508.5 843.5,476.9 857.1,483.7 870.8,424.3 884.4,430.3 898.1,457.2 911.8,435.0 925.4,427.3 939.1,438.4 952.8,429.9 966.4,464.5 980.1,418.8 993.8,406.8 1007.4,395.7 1021.1,410.2 1034.7,356.4 1048.4,348.2 1062.1,372.6 1075.7,409.4 1089.4,403.4 1103.1,453.4 1116.7,412.8 1130.4,419.2 1144.0,484.2 1157.7,521.8 1171.4,530.3 1185.0,516.2 1198.7,521.4 1212.4,461.5 1226.0,477.3 1239.7,433.3 1253.3,373.9 1267.0,383.3 1280.7,359.8 1294.3,374.3 1308.0,369.6" fill="none" stroke="#d9e2dc" stroke-width="3" stroke-linejoin="round" stroke-linecap="round"/>
<circle cx="1308.0" cy="369.6" r="5.5" fill="#f2d27b"/>
<line x1="92.0" y1="622" x2="92.0" y2="630" stroke="#69746d" stroke-width="1"/>
<text x="92.0" y="652" text-anchor="start" font-family="'Inter','Segoe UI',Arial,sans-serif" font-size="14" fill="#9aa49d">Feb 6, 2026</text>
<line x1="392.6" y1="622" x2="392.6" y2="630" stroke="#69746d" stroke-width="1"/>
<text x="392.6" y="652" text-anchor="middle" font-family="'Inter','Segoe UI',Arial,sans-serif" font-size="14" fill="#9aa49d">Mar 11, 2026</text>
<line x1="706.8" y1="622" x2="706.8" y2="630" stroke="#69746d" stroke-width="1"/>
<text x="706.8" y="652" text-anchor="middle" font-family="'Inter','Segoe UI',Arial,sans-serif" font-size="14" fill="#9aa49d">Apr 14, 2026</text>
<line x1="1007.4" y1="622" x2="1007.4" y2="630" stroke="#69746d" stroke-width="1"/>
<text x="1007.4" y="652" text-anchor="middle" font-family="'Inter','Segoe UI',Arial,sans-serif" font-size="14" fill="#9aa49d">May 14, 2026</text>
<line x1="1308.0" y1="622" x2="1308.0" y2="630" stroke="#69746d" stroke-width="1"/>
<text x="1308.0" y="652" text-anchor="end" font-family="'Inter','Segoe UI',Arial,sans-serif" font-size="14" fill="#9aa49d">Jun 16, 2026</text>
<g data-overlay-type="support_resistance_zone" data-evidence-refs="ohlcv:2026-05-19:2026-06-16:low" data-zone-type="support_resistance_zone" data-zone-role="floor" data-lower="81.4800033569336" data-upper="82.00200271606445" data-method="20_session_extreme_atr_band">
<rect x="92" y="678" width="5" height="14" fill="#d8b15a" opacity=".8"/>
<text x="108" y="690" text-anchor="start" font-family="'Inter','Segoe UI',Arial,sans-serif" font-size="15" fill="#cad3c7">Observed range floor</text>
</g>
<g data-overlay-type="support_resistance_zone" data-evidence-refs="ohlcv:2026-05-19:2026-06-16:high" data-zone-type="support_resistance_zone" data-zone-role="ceiling" data-lower="86.17799758911133" data-upper="86.69999694824219" data-method="20_session_extreme_atr_band">
<rect x="92" y="700" width="5" height="14" fill="#d8b15a" opacity=".8"/>
<text x="108" y="712" text-anchor="start" font-family="'Inter','Segoe UI',Arial,sans-serif" font-size="15" fill="#cad3c7">Observed range ceiling</text>
</g>
<g data-overlay-type="structure" data-evidence-refs="ohlcv:2026-04-21:2026-05-18:range|ohlcv:2026-06-16:close" data-method="latest_close_vs_prior_20_session_range">
<rect x="92" y="722" width="5" height="14" fill="#d8b15a" opacity=".8"/>
<text x="108" y="734" text-anchor="start" font-family="'Inter','Segoe UI',Arial,sans-serif" font-size="15" fill="#cad3c7">Close remains inside prior observed range</text>
</g>
<text x="92" y="870" text-anchor="start" font-family="'Inter','Segoe UI',Arial,sans-serif" font-size="13" fill="#8d978f">Source: Yahoo daily OHLCV · As of 2026-06-16</text>
<text x="92" y="890" text-anchor="start" font-family="'Inter','Segoe UI',Arial,sans-serif" font-size="12" fill="#5d675f">Observed market structure, not a forecast or recommendation</text>
</svg>
