<svg xmlns="http://www.w3.org/2000/svg" viewBox="0 0 1400 900" role="img" aria-label="البنية المرصودة لقطاع العقارات" preserveAspectRatio="xMidYMid meet" direction="rtl" data-series-hash="4b07bbf452dc0fc0d64cd9144bad4abf0649bbca71702caaea643d63c4fd3c2e" data-bar-count="90" data-overlay-count="3" data-time-axis="true" data-time-ticks="5" data-time-tick-dates="2026-02-06|2026-03-11|2026-04-14|2026-05-14|2026-06-16">
<rect width="1400" height="900" fill="#0b0e13"/>
<rect width="1400" height="3" fill="#d8b15a" opacity=".88"/>
<text x="1180" y="52" text-anchor="end" direction="rtl" font-family="'Tajawal','Cairo','Segoe UI',Arial,sans-serif" font-size="18" font-weight="700" fill="#d8b15a">البنية السعرية المؤسسية</text>
<text x="1180" y="96" text-anchor="end" direction="rtl" font-family="'Tajawal','Cairo','Segoe UI',Arial,sans-serif" font-size="34" font-weight="760" fill="#f4f7f1">البنية المرصودة لقطاع العقارات</text>
<rect x="92" y="142" width="1088" height="480" rx="8" fill="#10151d" stroke="rgba(148,163,184,.2)"/>
<line x1="92" y1="622.0" x2="1180" y2="622.0" stroke="rgba(148,163,184,.12)"/>
<text x="1170" y="615.0" text-anchor="end" font-family="'Inter','Segoe UI',Arial,sans-serif" font-size="15" fill="#9aa49d">39.483</text>
<line x1="92" y1="526.0" x2="1180" y2="526.0" stroke="rgba(148,163,184,.12)"/>
<text x="1170" y="519.0" text-anchor="end" font-family="'Inter','Segoe UI',Arial,sans-serif" font-size="15" fill="#9aa49d">40.808</text>
<line x1="92" y1="430.0" x2="1180" y2="430.0" stroke="rgba(148,163,184,.12)"/>
<text x="1170" y="423.0" text-anchor="end" font-family="'Inter','Segoe UI',Arial,sans-serif" font-size="15" fill="#9aa49d">42.133</text>
<line x1="92" y1="334.0" x2="1180" y2="334.0" stroke="rgba(148,163,184,.12)"/>
<text x="1170" y="327.0" text-anchor="end" font-family="'Inter','Segoe UI',Arial,sans-serif" font-size="15" fill="#9aa49d">43.457</text>
<line x1="92" y1="238.0" x2="1180" y2="238.0" stroke="rgba(148,163,184,.12)"/>
<text x="1170" y="231.0" text-anchor="end" font-family="'Inter','Segoe UI',Arial,sans-serif" font-size="15" fill="#9aa49d">44.782</text>
<line x1="92" y1="142.0" x2="1180" y2="142.0" stroke="rgba(148,163,184,.12)"/>
<text x="1170" y="135.0" text-anchor="end" font-family="'Inter','Segoe UI',Arial,sans-serif" font-size="15" fill="#9aa49d">46.107</text>
<rect x="92" y="343.0" width="1088" height="18.7" fill="#6ee7d8" opacity=".09"/>
<line x1="92" y1="343.0" x2="1180" y2="343.0" stroke="#6ee7d8" stroke-width="1.2" opacity=".58"/>
<line x1="92" y1="361.7" x2="1180" y2="361.7" stroke="#6ee7d8" stroke-width="1.2" opacity=".58"/>
<rect x="92" y="175.1" width="1088" height="18.7" fill="#d8b15a" opacity=".09"/>
<line x1="92" y1="175.1" x2="1180" y2="175.1" stroke="#d8b15a" stroke-width="1.2" opacity=".58"/>
<line x1="92" y1="193.8" x2="1180" y2="193.8" stroke="#d8b15a" stroke-width="1.2" opacity=".58"/>
<polyline points="92.0,440.3 104.2,421.5 116.4,378.7 128.7,381.6 140.9,376.6 153.1,330.9 165.3,299.0 177.6,341.8 189.8,352.7 202.0,326.6 214.2,322.9 226.5,314.2 238.7,335.3 250.9,321.5 263.1,306.3 275.4,300.5 287.6,316.4 299.8,312.1 312.0,342.5 324.3,375.1 336.5,368.6 348.7,372.9 360.9,409.9 373.2,429.5 385.4,421.5 397.6,397.6 409.8,387.4 422.1,438.2 434.3,445.4 446.5,541.8 458.7,539.6 471.0,563.5 483.2,565.0 495.4,563.5 507.6,583.8 519.9,569.3 532.1,524.4 544.3,515.7 556.5,467.9 568.8,457.0 581.0,459.9 593.2,407.7 605.4,386.7 617.7,380.2 629.9,365.7 642.1,336.0 654.3,337.4 666.6,308.4 678.8,259.9 691.0,248.3 703.2,310.6 715.5,333.8 727.7,297.6 739.9,307.0 752.1,331.6 764.4,301.2 776.6,320.8 788.8,265.7 801.0,271.5 813.3,288.9 825.5,282.4 837.7,241.0 849.9,265.7 862.2,265.0 874.4,253.4 886.6,252.6 898.8,279.5 911.1,301.2 923.3,350.5 935.5,312.8 947.7,299.0 960.0,263.5 972.2,258.4 984.4,254.1 996.6,243.2 1008.9,249.0 1021.1,265.0 1033.3,295.4 1045.5,347.6 1057.8,331.6 1070.0,330.2 1082.2,265.7 1094.4,243.9 1106.7,292.5 1118.9,224.4 1131.1,222.9 1143.3,228.0 1155.6,196.1 1167.8,222.9 1180.0,215.0" fill="none" stroke="#d9e2dc" stroke-width="3" stroke-linejoin="round" stroke-linecap="round"/>
<circle cx="1180.0" cy="215.0" r="5.5" fill="#f2d27b"/>
<line x1="92.0" y1="622" x2="92.0" y2="630" stroke="#69746d" stroke-width="1"/>
<text x="92.0" y="652" text-anchor="start" font-family="'Tajawal','Cairo','Segoe UI',Arial,sans-serif" font-size="14" fill="#9aa49d" direction="rtl">6 فبر 2026</text>
<line x1="360.9" y1="622" x2="360.9" y2="630" stroke="#69746d" stroke-width="1"/>
<text x="360.9" y="652" text-anchor="middle" font-family="'Tajawal','Cairo','Segoe UI',Arial,sans-serif" font-size="14" fill="#9aa49d" direction="rtl">11 مار 2026</text>
<line x1="642.1" y1="622" x2="642.1" y2="630" stroke="#69746d" stroke-width="1"/>
<text x="642.1" y="652" text-anchor="middle" font-family="'Tajawal','Cairo','Segoe UI',Arial,sans-serif" font-size="14" fill="#9aa49d" direction="rtl">14 أبر 2026</text>
<line x1="911.1" y1="622" x2="911.1" y2="630" stroke="#69746d" stroke-width="1"/>
<text x="911.1" y="652" text-anchor="middle" font-family="'Tajawal','Cairo','Segoe UI',Arial,sans-serif" font-size="14" fill="#9aa49d" direction="rtl">14 ماي 2026</text>
<line x1="1180.0" y1="622" x2="1180.0" y2="630" stroke="#69746d" stroke-width="1"/>
<text x="1180.0" y="652" text-anchor="end" font-family="'Tajawal','Cairo','Segoe UI',Arial,sans-serif" font-size="14" fill="#9aa49d" direction="rtl">16 يون 2026</text>
<g data-overlay-type="support_resistance_zone" data-evidence-refs="ohlcv:2026-05-19:2026-06-16:low" data-zone-type="support_resistance_zone" data-zone-role="floor" data-lower="43.07500076293945" data-upper="43.3325008392334" data-method="20_session_extreme_atr_band">
<rect x="1174" y="678" width="5" height="14" fill="#d8b15a" opacity=".8"/>
<text x="1160" y="690" text-anchor="end" direction="rtl" font-family="'Tajawal','Cairo','Segoe UI',Arial,sans-serif" font-size="15" fill="#cad3c7">الحد الأدنى للنطاق المرصود</text>
</g>
<g data-overlay-type="support_resistance_zone" data-evidence-refs="ohlcv:2026-05-19:2026-06-16:high" data-zone-type="support_resistance_zone" data-zone-role="ceiling" data-lower="45.39250144958496" data-upper="45.650001525878906" data-method="20_session_extreme_atr_band">
<rect x="1174" y="700" width="5" height="14" fill="#d8b15a" opacity=".8"/>
<text x="1160" y="712" text-anchor="end" direction="rtl" font-family="'Tajawal','Cairo','Segoe UI',Arial,sans-serif" font-size="15" fill="#cad3c7">الحد الأعلى للنطاق المرصود</text>
</g>
<g data-overlay-type="structure" data-evidence-refs="ohlcv:2026-04-21:2026-05-18:range|ohlcv:2026-06-16:close" data-method="latest_close_vs_prior_20_session_range">
<rect x="1174" y="722" width="5" height="14" fill="#d8b15a" opacity=".8"/>
<text x="1160" y="734" text-anchor="end" direction="rtl" font-family="'Tajawal','Cairo','Segoe UI',Arial,sans-serif" font-size="15" fill="#cad3c7">الإغلاق أعلى النطاق المرصود السابق</text>
</g>
<text x="1180" y="870" text-anchor="end" direction="rtl" font-family="'Tajawal','Cairo','Segoe UI',Arial,sans-serif" font-size="13" fill="#8d978f">المصدر: بيانات OHLCV اليومية من Yahoo · حتى 2026-06-16</text>
<text x="1180" y="890" text-anchor="end" direction="rtl" font-family="'Tajawal','Cairo','Segoe UI',Arial,sans-serif" font-size="12" fill="#5d675f">قراءة للبنية المرصودة، وليست توقعاً أو توصية</text>
</svg>
