<svg xmlns="http://www.w3.org/2000/svg" viewBox="0 0 1400 900" role="img" aria-label="Utilities sector observed structure" preserveAspectRatio="xMidYMid meet" data-series-hash="8447d990e4c48cde41c8b0f841ab38702e6fe2258b9f09cad97cb96dd1b1285d" data-bar-count="90" data-overlay-count="3" data-time-axis="true" data-time-ticks="5" data-time-tick-dates="2026-02-06|2026-03-11|2026-04-14|2026-05-14|2026-06-16">
<rect width="1400" height="900" fill="#0b0e13"/>
<rect width="1400" height="3" fill="#d8b15a" opacity=".88"/>
<text x="92" y="52" text-anchor="start" font-family="'Inter','Segoe UI',Arial,sans-serif" font-size="18" font-weight="700" fill="#d8b15a">Institutional Price Structure</text>
<text x="92" y="96" text-anchor="start" font-family="'Inter','Segoe UI',Arial,sans-serif" font-size="34" font-weight="760" fill="#f4f7f1">Utilities sector observed structure</text>
<rect x="92" y="142" width="1216" height="480" rx="8" fill="#10151d" stroke="rgba(148,163,184,.2)"/>
<line x1="92" y1="622.0" x2="1308" y2="622.0" stroke="rgba(148,163,184,.12)"/>
<text x="1298" y="615.0" text-anchor="end" font-family="'Inter','Segoe UI',Arial,sans-serif" font-size="15" fill="#9aa49d">42.594</text>
<line x1="92" y1="526.0" x2="1308" y2="526.0" stroke="rgba(148,163,184,.12)"/>
<text x="1298" y="519.0" text-anchor="end" font-family="'Inter','Segoe UI',Arial,sans-serif" font-size="15" fill="#9aa49d">43.713</text>
<line x1="92" y1="430.0" x2="1308" y2="430.0" stroke="rgba(148,163,184,.12)"/>
<text x="1298" y="423.0" text-anchor="end" font-family="'Inter','Segoe UI',Arial,sans-serif" font-size="15" fill="#9aa49d">44.831</text>
<line x1="92" y1="334.0" x2="1308" y2="334.0" stroke="rgba(148,163,184,.12)"/>
<text x="1298" y="327.0" text-anchor="end" font-family="'Inter','Segoe UI',Arial,sans-serif" font-size="15" fill="#9aa49d">45.949</text>
<line x1="92" y1="238.0" x2="1308" y2="238.0" stroke="rgba(148,163,184,.12)"/>
<text x="1298" y="231.0" text-anchor="end" font-family="'Inter','Segoe UI',Arial,sans-serif" font-size="15" fill="#9aa49d">47.067</text>
<line x1="92" y1="142.0" x2="1308" y2="142.0" stroke="rgba(148,163,184,.12)"/>
<text x="1298" y="135.0" text-anchor="end" font-family="'Inter','Segoe UI',Arial,sans-serif" font-size="15" fill="#9aa49d">48.186</text>
<rect x="92" y="559.1" width="1216" height="22.1" fill="#6ee7d8" opacity=".09"/>
<line x1="92" y1="559.1" x2="1308" y2="559.1" stroke="#6ee7d8" stroke-width="1.2" opacity=".58"/>
<line x1="92" y1="581.2" x2="1308" y2="581.2" stroke="#6ee7d8" stroke-width="1.2" opacity=".58"/>
<rect x="92" y="360.5" width="1216" height="22.1" fill="#d8b15a" opacity=".09"/>
<line x1="92" y1="360.5" x2="1308" y2="360.5" stroke="#d8b15a" stroke-width="1.2" opacity=".58"/>
<line x1="92" y1="382.6" x2="1308" y2="382.6" stroke="#d8b15a" stroke-width="1.2" opacity=".58"/>
<polyline points="92.0,557.1 105.7,546.0 119.3,484.2 133.0,450.7 146.7,394.0 160.3,286.7 174.0,297.0 187.6,363.1 201.3,320.2 215.0,301.3 228.6,271.3 242.3,226.6 256.0,212.9 269.6,228.3 283.3,181.1 296.9,212.0 310.6,237.8 324.3,220.6 337.9,252.4 351.6,266.1 365.3,256.7 378.9,281.6 392.6,315.0 406.2,286.7 419.9,247.2 433.6,221.5 447.2,232.6 460.9,267.0 474.6,283.3 488.2,445.5 501.9,434.4 515.6,407.8 529.2,394.0 542.9,387.2 556.5,364.8 570.2,336.5 583.9,339.1 597.5,320.2 611.2,300.4 624.9,315.0 638.5,306.5 652.2,262.7 665.8,230.9 679.5,247.2 693.2,296.2 706.8,289.3 720.5,327.9 734.2,299.6 747.8,315.9 761.5,351.1 775.1,419.8 788.8,426.6 802.5,321.9 816.1,314.2 829.8,313.3 843.5,308.2 857.1,357.1 870.8,256.7 884.4,282.4 898.1,297.9 911.8,297.9 925.4,354.5 939.1,405.2 952.8,439.5 966.4,403.5 980.1,399.2 993.8,443.8 1007.4,424.1 1021.1,512.5 1034.7,506.5 1048.4,472.1 1062.1,457.5 1075.7,415.5 1089.4,385.4 1103.1,387.2 1116.7,403.5 1130.4,447.2 1144.0,465.3 1157.7,578.6 1171.4,509.9 1185.0,526.2 1198.7,506.5 1212.4,471.3 1226.0,542.5 1239.7,503.0 1253.3,501.3 1267.0,497.0 1280.7,455.8 1294.3,437.8 1308.0,410.3" fill="none" stroke="#d9e2dc" stroke-width="3" stroke-linejoin="round" stroke-linecap="round"/>
<circle cx="1308.0" cy="410.3" r="5.5" fill="#f2d27b"/>
<line x1="92.0" y1="622" x2="92.0" y2="630" stroke="#69746d" stroke-width="1"/>
<text x="92.0" y="652" text-anchor="start" font-family="'Inter','Segoe UI',Arial,sans-serif" font-size="14" fill="#9aa49d">Feb 6, 2026</text>
<line x1="392.6" y1="622" x2="392.6" y2="630" stroke="#69746d" stroke-width="1"/>
<text x="392.6" y="652" text-anchor="middle" font-family="'Inter','Segoe UI',Arial,sans-serif" font-size="14" fill="#9aa49d">Mar 11, 2026</text>
<line x1="706.8" y1="622" x2="706.8" y2="630" stroke="#69746d" stroke-width="1"/>
<text x="706.8" y="652" text-anchor="middle" font-family="'Inter','Segoe UI',Arial,sans-serif" font-size="14" fill="#9aa49d">Apr 14, 2026</text>
<line x1="1007.4" y1="622" x2="1007.4" y2="630" stroke="#69746d" stroke-width="1"/>
<text x="1007.4" y="652" text-anchor="middle" font-family="'Inter','Segoe UI',Arial,sans-serif" font-size="14" fill="#9aa49d">May 14, 2026</text>
<line x1="1308.0" y1="622" x2="1308.0" y2="630" stroke="#69746d" stroke-width="1"/>
<text x="1308.0" y="652" text-anchor="end" font-family="'Inter','Segoe UI',Arial,sans-serif" font-size="14" fill="#9aa49d">Jun 16, 2026</text>
<g data-overlay-type="support_resistance_zone" data-evidence-refs="ohlcv:2026-05-19:2026-06-16:low" data-zone-type="support_resistance_zone" data-zone-role="floor" data-lower="43.06999969482422" data-upper="43.32699966430664" data-method="20_session_extreme_atr_band">
<rect x="92" y="678" width="5" height="14" fill="#d8b15a" opacity=".8"/>
<text x="108" y="690" text-anchor="start" font-family="'Inter','Segoe UI',Arial,sans-serif" font-size="15" fill="#cad3c7">Observed range floor</text>
</g>
<g data-overlay-type="support_resistance_zone" data-evidence-refs="ohlcv:2026-05-19:2026-06-16:high" data-zone-type="support_resistance_zone" data-zone-role="ceiling" data-lower="45.382999420166016" data-upper="45.63999938964844" data-method="20_session_extreme_atr_band">
<rect x="92" y="700" width="5" height="14" fill="#d8b15a" opacity=".8"/>
<text x="108" y="712" text-anchor="start" font-family="'Inter','Segoe UI',Arial,sans-serif" font-size="15" fill="#cad3c7">Observed range ceiling</text>
</g>
<g data-overlay-type="structure" data-evidence-refs="ohlcv:2026-04-21:2026-05-18:range|ohlcv:2026-06-16:close" data-method="latest_close_vs_prior_20_session_range">
<rect x="92" y="722" width="5" height="14" fill="#d8b15a" opacity=".8"/>
<text x="108" y="734" text-anchor="start" font-family="'Inter','Segoe UI',Arial,sans-serif" font-size="15" fill="#cad3c7">Close remains inside prior observed range</text>
</g>
<text x="92" y="870" text-anchor="start" font-family="'Inter','Segoe UI',Arial,sans-serif" font-size="13" fill="#8d978f">Source: Yahoo daily OHLCV · As of 2026-06-16</text>
<text x="92" y="890" text-anchor="start" font-family="'Inter','Segoe UI',Arial,sans-serif" font-size="12" fill="#5d675f">Observed market structure, not a forecast or recommendation</text>
</svg>
