<svg xmlns="http://www.w3.org/2000/svg" viewBox="0 0 1400 900" role="img" aria-label="Healthcare sector observed structure" preserveAspectRatio="xMidYMid meet" data-series-hash="f46da5b5a696724e34fcc3454be7617dca26a09144edee1e06621cc560f77998" data-bar-count="90" data-overlay-count="3" data-time-axis="true" data-time-ticks="5" data-time-tick-dates="2026-02-06|2026-03-11|2026-04-14|2026-05-14|2026-06-16">
<rect width="1400" height="900" fill="#0b0e13"/>
<rect width="1400" height="3" fill="#d8b15a" opacity=".88"/>
<text x="92" y="52" text-anchor="start" font-family="'Inter','Segoe UI',Arial,sans-serif" font-size="18" font-weight="700" fill="#d8b15a">Institutional Price Structure</text>
<text x="92" y="96" text-anchor="start" font-family="'Inter','Segoe UI',Arial,sans-serif" font-size="34" font-weight="760" fill="#f4f7f1">Healthcare sector observed structure</text>
<rect x="92" y="142" width="1216" height="480" rx="8" fill="#10151d" stroke="rgba(148,163,184,.2)"/>
<line x1="92" y1="622.0" x2="1308" y2="622.0" stroke="rgba(148,163,184,.12)"/>
<text x="1298" y="615.0" text-anchor="end" font-family="'Inter','Segoe UI',Arial,sans-serif" font-size="15" fill="#9aa49d">140.51</text>
<line x1="92" y1="526.0" x2="1308" y2="526.0" stroke="rgba(148,163,184,.12)"/>
<text x="1298" y="519.0" text-anchor="end" font-family="'Inter','Segoe UI',Arial,sans-serif" font-size="15" fill="#9aa49d">144.75</text>
<line x1="92" y1="430.0" x2="1308" y2="430.0" stroke="rgba(148,163,184,.12)"/>
<text x="1298" y="423.0" text-anchor="end" font-family="'Inter','Segoe UI',Arial,sans-serif" font-size="15" fill="#9aa49d">148.99</text>
<line x1="92" y1="334.0" x2="1308" y2="334.0" stroke="rgba(148,163,184,.12)"/>
<text x="1298" y="327.0" text-anchor="end" font-family="'Inter','Segoe UI',Arial,sans-serif" font-size="15" fill="#9aa49d">153.22</text>
<line x1="92" y1="238.0" x2="1308" y2="238.0" stroke="rgba(148,163,184,.12)"/>
<text x="1298" y="231.0" text-anchor="end" font-family="'Inter','Segoe UI',Arial,sans-serif" font-size="15" fill="#9aa49d">157.46</text>
<line x1="92" y1="142.0" x2="1308" y2="142.0" stroke="rgba(148,163,184,.12)"/>
<text x="1298" y="135.0" text-anchor="end" font-family="'Inter','Segoe UI',Arial,sans-serif" font-size="15" fill="#9aa49d">161.70</text>
<rect x="92" y="500.3" width="1216" height="23.4" fill="#6ee7d8" opacity=".09"/>
<line x1="92" y1="500.3" x2="1308" y2="500.3" stroke="#6ee7d8" stroke-width="1.2" opacity=".58"/>
<line x1="92" y1="523.7" x2="1308" y2="523.7" stroke="#6ee7d8" stroke-width="1.2" opacity=".58"/>
<rect x="92" y="290.2" width="1216" height="23.4" fill="#d8b15a" opacity=".09"/>
<line x1="92" y1="290.2" x2="1308" y2="290.2" stroke="#d8b15a" stroke-width="1.2" opacity=".58"/>
<line x1="92" y1="313.5" x2="1308" y2="313.5" stroke="#d8b15a" stroke-width="1.2" opacity=".58"/>
<polyline points="92.0,232.4 105.7,263.9 119.3,286.3 133.0,265.5 146.7,271.1 160.3,233.3 174.0,240.1 187.6,233.3 201.3,242.6 215.0,252.6 228.6,213.6 242.3,228.8 256.0,229.7 269.6,239.0 283.3,176.0 296.9,213.8 310.6,254.4 324.3,247.4 337.9,318.5 351.6,345.9 365.3,310.5 378.9,335.7 392.6,342.5 406.2,403.4 419.9,411.8 433.6,384.2 447.2,415.2 460.9,471.8 474.6,483.8 488.2,512.8 501.9,525.5 515.6,525.0 529.2,492.2 542.9,503.5 556.5,559.7 570.2,547.0 583.9,483.8 597.5,458.4 611.2,479.3 624.9,491.3 638.5,484.7 652.2,414.5 665.8,422.2 679.5,468.0 693.2,453.0 706.8,433.5 720.5,457.5 734.2,483.8 747.8,434.2 761.5,465.5 775.1,499.4 788.8,489.0 802.5,492.2 816.1,538.8 829.8,555.1 843.5,546.5 857.1,569.2 870.8,497.8 884.4,516.6 898.1,526.4 911.8,513.5 925.4,511.2 939.1,526.6 952.8,554.5 966.4,564.7 980.1,501.0 993.8,481.5 1007.4,483.4 1021.1,518.0 1034.7,504.0 1048.4,467.7 1062.1,472.0 1075.7,448.9 1089.4,409.5 1103.1,440.8 1116.7,434.4 1130.4,387.1 1144.0,419.0 1157.7,455.9 1171.4,488.6 1185.0,462.5 1198.7,359.9 1212.4,338.9 1226.0,347.0 1239.7,303.5 1253.3,342.5 1267.0,314.4 1280.7,320.7 1294.3,341.6 1308.0,340.4" fill="none" stroke="#d9e2dc" stroke-width="3" stroke-linejoin="round" stroke-linecap="round"/>
<circle cx="1308.0" cy="340.4" r="5.5" fill="#f2d27b"/>
<line x1="92.0" y1="622" x2="92.0" y2="630" stroke="#69746d" stroke-width="1"/>
<text x="92.0" y="652" text-anchor="start" font-family="'Inter','Segoe UI',Arial,sans-serif" font-size="14" fill="#9aa49d">Feb 6, 2026</text>
<line x1="392.6" y1="622" x2="392.6" y2="630" stroke="#69746d" stroke-width="1"/>
<text x="392.6" y="652" text-anchor="middle" font-family="'Inter','Segoe UI',Arial,sans-serif" font-size="14" fill="#9aa49d">Mar 11, 2026</text>
<line x1="706.8" y1="622" x2="706.8" y2="630" stroke="#69746d" stroke-width="1"/>
<text x="706.8" y="652" text-anchor="middle" font-family="'Inter','Segoe UI',Arial,sans-serif" font-size="14" fill="#9aa49d">Apr 14, 2026</text>
<line x1="1007.4" y1="622" x2="1007.4" y2="630" stroke="#69746d" stroke-width="1"/>
<text x="1007.4" y="652" text-anchor="middle" font-family="'Inter','Segoe UI',Arial,sans-serif" font-size="14" fill="#9aa49d">May 14, 2026</text>
<line x1="1308.0" y1="622" x2="1308.0" y2="630" stroke="#69746d" stroke-width="1"/>
<text x="1308.0" y="652" text-anchor="end" font-family="'Inter','Segoe UI',Arial,sans-serif" font-size="14" fill="#9aa49d">Jun 16, 2026</text>
<g data-overlay-type="support_resistance_zone" data-evidence-refs="ohlcv:2026-05-19:2026-06-16:low" data-zone-type="support_resistance_zone" data-zone-role="floor" data-lower="144.85000610351562" data-upper="145.881005859375" data-method="20_session_extreme_atr_band">
<rect x="92" y="678" width="5" height="14" fill="#d8b15a" opacity=".8"/>
<text x="108" y="690" text-anchor="start" font-family="'Inter','Segoe UI',Arial,sans-serif" font-size="15" fill="#cad3c7">Observed range floor</text>
</g>
<g data-overlay-type="support_resistance_zone" data-evidence-refs="ohlcv:2026-05-19:2026-06-16:high" data-zone-type="support_resistance_zone" data-zone-role="ceiling" data-lower="154.12900390625" data-upper="155.16000366210938" data-method="20_session_extreme_atr_band">
<rect x="92" y="700" width="5" height="14" fill="#d8b15a" opacity=".8"/>
<text x="108" y="712" text-anchor="start" font-family="'Inter','Segoe UI',Arial,sans-serif" font-size="15" fill="#cad3c7">Observed range ceiling</text>
</g>
<g data-overlay-type="structure" data-evidence-refs="ohlcv:2026-04-21:2026-05-18:range|ohlcv:2026-06-16:close" data-method="latest_close_vs_prior_20_session_range">
<rect x="92" y="722" width="5" height="14" fill="#d8b15a" opacity=".8"/>
<text x="108" y="734" text-anchor="start" font-family="'Inter','Segoe UI',Arial,sans-serif" font-size="15" fill="#cad3c7">Close above prior observed range</text>
</g>
<text x="92" y="870" text-anchor="start" font-family="'Inter','Segoe UI',Arial,sans-serif" font-size="13" fill="#8d978f">Source: Yahoo daily OHLCV · As of 2026-06-16</text>
<text x="92" y="890" text-anchor="start" font-family="'Inter','Segoe UI',Arial,sans-serif" font-size="12" fill="#5d675f">Observed market structure, not a forecast or recommendation</text>
</svg>
