<svg xmlns="http://www.w3.org/2000/svg" viewBox="0 0 1400 900" role="img" aria-label="HYG ETF observed structure" preserveAspectRatio="xMidYMid meet" data-series-hash="70849c99b543d839abf0425ac15c2dc4a83bb256adb5ab75f0a96a985e744ad2" data-bar-count="90" data-overlay-count="3" data-time-axis="true" data-time-ticks="5" data-time-tick-dates="2026-02-10|2026-03-13|2026-04-16|2026-05-18|2026-06-18">
<rect width="1400" height="900" fill="#0b0e13"/>
<rect width="1400" height="3" fill="#d8b15a" opacity=".88"/>
<text x="92" y="52" text-anchor="start" font-family="'Inter','Segoe UI',Arial,sans-serif" font-size="18" font-weight="700" fill="#d8b15a">Institutional Price Structure</text>
<text x="92" y="96" text-anchor="start" font-family="'Inter','Segoe UI',Arial,sans-serif" font-size="34" font-weight="760" fill="#f4f7f1">HYG ETF observed structure</text>
<rect x="92" y="142" width="1216" height="480" rx="8" fill="#10151d" stroke="rgba(148,163,184,.2)"/>
<line x1="92" y1="622.0" x2="1308" y2="622.0" stroke="rgba(148,163,184,.12)"/>
<text x="1298" y="615.0" text-anchor="end" font-family="'Inter','Segoe UI',Arial,sans-serif" font-size="15" fill="#9aa49d">78.375</text>
<line x1="92" y1="526.0" x2="1308" y2="526.0" stroke="rgba(148,163,184,.12)"/>
<text x="1298" y="519.0" text-anchor="end" font-family="'Inter','Segoe UI',Arial,sans-serif" font-size="15" fill="#9aa49d">78.941</text>
<line x1="92" y1="430.0" x2="1308" y2="430.0" stroke="rgba(148,163,184,.12)"/>
<text x="1298" y="423.0" text-anchor="end" font-family="'Inter','Segoe UI',Arial,sans-serif" font-size="15" fill="#9aa49d">79.507</text>
<line x1="92" y1="334.0" x2="1308" y2="334.0" stroke="rgba(148,163,184,.12)"/>
<text x="1298" y="327.0" text-anchor="end" font-family="'Inter','Segoe UI',Arial,sans-serif" font-size="15" fill="#9aa49d">80.073</text>
<line x1="92" y1="238.0" x2="1308" y2="238.0" stroke="rgba(148,163,184,.12)"/>
<text x="1298" y="231.0" text-anchor="end" font-family="'Inter','Segoe UI',Arial,sans-serif" font-size="15" fill="#9aa49d">80.639</text>
<line x1="92" y1="142.0" x2="1308" y2="142.0" stroke="rgba(148,163,184,.12)"/>
<text x="1298" y="135.0" text-anchor="end" font-family="'Inter','Segoe UI',Arial,sans-serif" font-size="15" fill="#9aa49d">81.205</text>
<rect x="92" y="439.5" width="1216" height="17.1" fill="#6ee7d8" opacity=".09"/>
<line x1="92" y1="439.5" x2="1308" y2="439.5" stroke="#6ee7d8" stroke-width="1.2" opacity=".58"/>
<line x1="92" y1="456.6" x2="1308" y2="456.6" stroke="#6ee7d8" stroke-width="1.2" opacity=".58"/>
<rect x="92" y="285.3" width="1216" height="17.1" fill="#d8b15a" opacity=".09"/>
<line x1="92" y1="285.3" x2="1308" y2="285.3" stroke="#d8b15a" stroke-width="1.2" opacity=".58"/>
<line x1="92" y1="302.5" x2="1308" y2="302.5" stroke="#d8b15a" stroke-width="1.2" opacity=".58"/>
<polyline points="92.0,203.9 105.7,205.6 119.3,212.4 133.0,202.2 146.7,209.0 160.3,192.1 174.0,187.0 187.6,176.8 201.3,198.8 215.0,209.0 228.6,190.4 242.3,202.2 256.0,224.3 269.6,298.9 283.3,326.0 296.9,278.6 310.6,332.8 324.3,399.0 337.9,317.6 351.6,339.6 365.3,370.1 378.9,456.6 392.6,482.1 406.2,439.7 419.9,378.6 433.6,448.1 447.2,404.0 460.9,529.5 474.6,441.4 488.2,487.1 501.9,444.7 515.6,529.5 529.2,563.5 542.9,548.2 556.5,421.0 570.2,453.2 583.9,421.0 597.5,397.3 611.2,393.9 624.9,314.2 638.5,298.9 652.2,353.2 665.8,302.3 679.5,261.6 693.2,268.4 706.8,287.0 720.5,236.2 734.2,248.0 747.8,283.6 761.5,261.6 775.1,283.6 788.8,265.0 802.5,259.9 816.1,278.6 829.8,324.3 843.5,281.9 857.1,336.2 870.8,380.3 884.4,360.0 898.1,319.3 911.8,370.1 925.4,322.6 939.1,349.8 952.8,368.4 966.4,361.6 980.1,371.8 993.8,438.0 1007.4,424.4 1021.1,456.6 1034.7,370.1 1048.4,363.3 1062.1,361.6 1075.7,315.9 1089.4,324.3 1103.1,307.4 1116.7,293.8 1130.4,373.5 1144.0,363.3 1157.7,400.7 1171.4,375.2 1185.0,443.1 1198.7,424.4 1212.4,410.8 1226.0,436.3 1239.7,356.6 1253.3,356.6 1267.0,339.6 1280.7,341.3 1294.3,392.2 1308.0,344.7" fill="none" stroke="#d9e2dc" stroke-width="3" stroke-linejoin="round" stroke-linecap="round"/>
<circle cx="1308.0" cy="344.7" r="5.5" fill="#f2d27b"/>
<line x1="92.0" y1="622" x2="92.0" y2="630" stroke="#69746d" stroke-width="1"/>
<text x="92.0" y="652" text-anchor="start" font-family="'Inter','Segoe UI',Arial,sans-serif" font-size="14" fill="#9aa49d">Feb 10, 2026</text>
<line x1="392.6" y1="622" x2="392.6" y2="630" stroke="#69746d" stroke-width="1"/>
<text x="392.6" y="652" text-anchor="middle" font-family="'Inter','Segoe UI',Arial,sans-serif" font-size="14" fill="#9aa49d">Mar 13, 2026</text>
<line x1="706.8" y1="622" x2="706.8" y2="630" stroke="#69746d" stroke-width="1"/>
<text x="706.8" y="652" text-anchor="middle" font-family="'Inter','Segoe UI',Arial,sans-serif" font-size="14" fill="#9aa49d">Apr 16, 2026</text>
<line x1="1007.4" y1="622" x2="1007.4" y2="630" stroke="#69746d" stroke-width="1"/>
<text x="1007.4" y="652" text-anchor="middle" font-family="'Inter','Segoe UI',Arial,sans-serif" font-size="14" fill="#9aa49d">May 18, 2026</text>
<line x1="1308.0" y1="622" x2="1308.0" y2="630" stroke="#69746d" stroke-width="1"/>
<text x="1308.0" y="652" text-anchor="end" font-family="'Inter','Segoe UI',Arial,sans-serif" font-size="14" fill="#9aa49d">Jun 18, 2026</text>
<g data-overlay-type="support_resistance_zone" data-evidence-refs="ohlcv:2026-05-21:2026-06-18:low" data-zone-type="support_resistance_zone" data-zone-role="floor" data-lower="79.3499984741211" data-upper="79.45099868774415" data-method="20_session_extreme_atr_band">
<rect x="92" y="678" width="5" height="14" fill="#d8b15a" opacity=".8"/>
<text x="108" y="690" text-anchor="start" font-family="'Inter','Segoe UI',Arial,sans-serif" font-size="15" fill="#cad3c7">Observed range floor</text>
</g>
<g data-overlay-type="support_resistance_zone" data-evidence-refs="ohlcv:2026-05-21:2026-06-18:high" data-zone-type="support_resistance_zone" data-zone-role="ceiling" data-lower="80.25900039672851" data-upper="80.36000061035156" data-method="20_session_extreme_atr_band">
<rect x="92" y="700" width="5" height="14" fill="#d8b15a" opacity=".8"/>
<text x="108" y="712" text-anchor="start" font-family="'Inter','Segoe UI',Arial,sans-serif" font-size="15" fill="#cad3c7">Observed range ceiling</text>
</g>
<g data-overlay-type="structure" data-evidence-refs="ohlcv:2026-04-23:2026-05-20:range|ohlcv:2026-06-18:close" data-method="latest_close_vs_prior_20_session_range">
<rect x="92" y="722" width="5" height="14" fill="#d8b15a" opacity=".8"/>
<text x="108" y="734" text-anchor="start" font-family="'Inter','Segoe UI',Arial,sans-serif" font-size="15" fill="#cad3c7">Close remains inside prior observed range</text>
</g>
<text x="92" y="870" text-anchor="start" font-family="'Inter','Segoe UI',Arial,sans-serif" font-size="13" fill="#8d978f">Source: Yahoo daily OHLCV · As of 2026-06-18</text>
<text x="92" y="890" text-anchor="start" font-family="'Inter','Segoe UI',Arial,sans-serif" font-size="12" fill="#5d675f">Observed market structure, not a forecast or recommendation</text>
</svg>
