<svg xmlns="http://www.w3.org/2000/svg" viewBox="0 0 1400 900" role="img" aria-label="البنية المرصودة لصندوق IEF" preserveAspectRatio="xMidYMid meet" direction="rtl" data-series-hash="6ade48315c6e25910381de9957235bd1146bed4b876d2a9b03f7c7b49fd7beaa" data-bar-count="90" data-overlay-count="3" data-time-axis="true" data-time-ticks="5" data-time-tick-dates="2026-02-10|2026-03-13|2026-04-16|2026-05-18|2026-06-18">
<rect width="1400" height="900" fill="#0b0e13"/>
<rect width="1400" height="3" fill="#d8b15a" opacity=".88"/>
<text x="1180" y="52" text-anchor="end" direction="rtl" font-family="'Tajawal','Cairo','Segoe UI',Arial,sans-serif" font-size="18" font-weight="700" fill="#d8b15a">البنية السعرية المؤسسية</text>
<text x="1180" y="96" text-anchor="end" direction="rtl" font-family="'Tajawal','Cairo','Segoe UI',Arial,sans-serif" font-size="34" font-weight="760" fill="#f4f7f1">البنية المرصودة لصندوق IEF</text>
<rect x="92" y="142" width="1088" height="480" rx="8" fill="#10151d" stroke="rgba(148,163,184,.2)"/>
<line x1="92" y1="622.0" x2="1180" y2="622.0" stroke="rgba(148,163,184,.12)"/>
<text x="1170" y="615.0" text-anchor="end" font-family="'Inter','Segoe UI',Arial,sans-serif" font-size="15" fill="#9aa49d">92.542</text>
<line x1="92" y1="526.0" x2="1180" y2="526.0" stroke="rgba(148,163,184,.12)"/>
<text x="1170" y="519.0" text-anchor="end" font-family="'Inter','Segoe UI',Arial,sans-serif" font-size="15" fill="#9aa49d">93.725</text>
<line x1="92" y1="430.0" x2="1180" y2="430.0" stroke="rgba(148,163,184,.12)"/>
<text x="1170" y="423.0" text-anchor="end" font-family="'Inter','Segoe UI',Arial,sans-serif" font-size="15" fill="#9aa49d">94.908</text>
<line x1="92" y1="334.0" x2="1180" y2="334.0" stroke="rgba(148,163,184,.12)"/>
<text x="1170" y="327.0" text-anchor="end" font-family="'Inter','Segoe UI',Arial,sans-serif" font-size="15" fill="#9aa49d">96.092</text>
<line x1="92" y1="238.0" x2="1180" y2="238.0" stroke="rgba(148,163,184,.12)"/>
<text x="1170" y="231.0" text-anchor="end" font-family="'Inter','Segoe UI',Arial,sans-serif" font-size="15" fill="#9aa49d">97.275</text>
<line x1="92" y1="142.0" x2="1180" y2="142.0" stroke="rgba(148,163,184,.12)"/>
<text x="1170" y="135.0" text-anchor="end" font-family="'Inter','Segoe UI',Arial,sans-serif" font-size="15" fill="#9aa49d">98.458</text>
<rect x="92" y="548.1" width="1088" height="11.6" fill="#6ee7d8" opacity=".09"/>
<line x1="92" y1="548.1" x2="1180" y2="548.1" stroke="#6ee7d8" stroke-width="1.2" opacity=".58"/>
<line x1="92" y1="559.7" x2="1180" y2="559.7" stroke="#6ee7d8" stroke-width="1.2" opacity=".58"/>
<rect x="92" y="443.7" width="1088" height="11.6" fill="#d8b15a" opacity=".09"/>
<line x1="92" y1="443.7" x2="1180" y2="443.7" stroke="#d8b15a" stroke-width="1.2" opacity=".58"/>
<line x1="92" y1="455.3" x2="1180" y2="455.3" stroke="#d8b15a" stroke-width="1.2" opacity=".58"/>
<polyline points="92.0,300.1 104.2,322.0 116.4,274.1 128.7,243.3 140.9,244.1 153.1,260.3 165.3,253.0 177.6,253.0 189.8,224.6 202.0,226.2 214.2,232.7 226.5,211.6 238.7,180.0 250.9,250.6 263.1,259.5 275.4,275.7 287.6,300.1 299.8,304.9 312.0,280.6 324.3,305.7 336.5,341.4 348.7,366.6 360.9,374.7 373.2,339.8 385.4,326.0 397.6,361.7 409.8,362.5 422.1,432.3 434.3,408.0 446.5,433.9 458.7,393.4 471.0,455.8 483.2,455.0 495.4,400.7 507.6,386.9 519.9,419.3 532.1,401.5 544.3,421.8 556.5,402.3 568.8,385.2 581.0,387.7 593.2,400.7 605.4,383.6 617.7,358.5 629.9,375.5 642.1,389.3 654.3,347.1 666.6,354.4 678.8,388.5 691.0,380.4 703.2,392.5 715.5,377.1 727.7,395.0 739.9,402.3 752.1,438.8 764.4,424.2 776.6,443.7 788.8,472.1 801.0,460.7 813.3,422.6 825.5,446.1 837.7,425.8 849.9,451.8 862.2,477.7 874.4,477.7 886.6,482.6 898.8,543.5 911.1,546.7 923.3,575.9 935.5,524.8 947.7,519.9 960.0,513.4 972.2,481.0 984.4,477.7 996.6,459.9 1008.9,451.0 1021.1,489.9 1033.3,484.2 1045.5,503.7 1057.8,494.0 1070.0,534.5 1082.2,542.6 1094.4,521.6 1106.7,528.9 1118.9,476.1 1131.1,489.1 1143.3,481.0 1155.6,461.5 1167.8,502.1 1180.0,474.5" fill="none" stroke="#d9e2dc" stroke-width="3" stroke-linejoin="round" stroke-linecap="round"/>
<circle cx="1180.0" cy="474.5" r="5.5" fill="#f2d27b"/>
<line x1="92.0" y1="622" x2="92.0" y2="630" stroke="#69746d" stroke-width="1"/>
<text x="92.0" y="652" text-anchor="start" font-family="'Tajawal','Cairo','Segoe UI',Arial,sans-serif" font-size="14" fill="#9aa49d" direction="rtl">10 فبر 2026</text>
<line x1="360.9" y1="622" x2="360.9" y2="630" stroke="#69746d" stroke-width="1"/>
<text x="360.9" y="652" text-anchor="middle" font-family="'Tajawal','Cairo','Segoe UI',Arial,sans-serif" font-size="14" fill="#9aa49d" direction="rtl">13 مار 2026</text>
<line x1="642.1" y1="622" x2="642.1" y2="630" stroke="#69746d" stroke-width="1"/>
<text x="642.1" y="652" text-anchor="middle" font-family="'Tajawal','Cairo','Segoe UI',Arial,sans-serif" font-size="14" fill="#9aa49d" direction="rtl">16 أبر 2026</text>
<line x1="911.1" y1="622" x2="911.1" y2="630" stroke="#69746d" stroke-width="1"/>
<text x="911.1" y="652" text-anchor="middle" font-family="'Tajawal','Cairo','Segoe UI',Arial,sans-serif" font-size="14" fill="#9aa49d" direction="rtl">18 ماي 2026</text>
<line x1="1180.0" y1="622" x2="1180.0" y2="630" stroke="#69746d" stroke-width="1"/>
<text x="1180.0" y="652" text-anchor="end" font-family="'Tajawal','Cairo','Segoe UI',Arial,sans-serif" font-size="14" fill="#9aa49d" direction="rtl">18 يون 2026</text>
<g data-overlay-type="support_resistance_zone" data-evidence-refs="ohlcv:2026-05-21:2026-06-18:low" data-zone-type="support_resistance_zone" data-zone-role="floor" data-lower="93.30999755859375" data-upper="93.45299758911133" data-method="20_session_extreme_atr_band">
<rect x="1174" y="678" width="5" height="14" fill="#d8b15a" opacity=".8"/>
<text x="1160" y="690" text-anchor="end" direction="rtl" font-family="'Tajawal','Cairo','Segoe UI',Arial,sans-serif" font-size="15" fill="#cad3c7">الحد الأدنى للنطاق المرصود</text>
</g>
<g data-overlay-type="support_resistance_zone" data-evidence-refs="ohlcv:2026-05-21:2026-06-18:high" data-zone-type="support_resistance_zone" data-zone-role="ceiling" data-lower="94.59699783325195" data-upper="94.73999786376953" data-method="20_session_extreme_atr_band">
<rect x="1174" y="700" width="5" height="14" fill="#d8b15a" opacity=".8"/>
<text x="1160" y="712" text-anchor="end" direction="rtl" font-family="'Tajawal','Cairo','Segoe UI',Arial,sans-serif" font-size="15" fill="#cad3c7">الحد الأعلى للنطاق المرصود</text>
</g>
<g data-overlay-type="structure" data-evidence-refs="ohlcv:2026-04-23:2026-05-20:range|ohlcv:2026-06-18:close" data-method="latest_close_vs_prior_20_session_range">
<rect x="1174" y="722" width="5" height="14" fill="#d8b15a" opacity=".8"/>
<text x="1160" y="734" text-anchor="end" direction="rtl" font-family="'Tajawal','Cairo','Segoe UI',Arial,sans-serif" font-size="15" fill="#cad3c7">الإغلاق ما زال داخل النطاق المرصود السابق</text>
</g>
<text x="1180" y="870" text-anchor="end" direction="rtl" font-family="'Tajawal','Cairo','Segoe UI',Arial,sans-serif" font-size="13" fill="#8d978f">المصدر: بيانات OHLCV اليومية من Yahoo · حتى 2026-06-18</text>
<text x="1180" y="890" text-anchor="end" direction="rtl" font-family="'Tajawal','Cairo','Segoe UI',Arial,sans-serif" font-size="12" fill="#5d675f">قراءة للبنية المرصودة، وليست توقعاً أو توصية</text>
</svg>
