<svg xmlns="http://www.w3.org/2000/svg" viewBox="0 0 1400 900" role="img" aria-label="IEF ETF observed structure" preserveAspectRatio="xMidYMid meet" data-series-hash="6ade48315c6e25910381de9957235bd1146bed4b876d2a9b03f7c7b49fd7beaa" data-bar-count="90" data-overlay-count="3" data-time-axis="true" data-time-ticks="5" data-time-tick-dates="2026-02-10|2026-03-13|2026-04-16|2026-05-18|2026-06-18">
<rect width="1400" height="900" fill="#0b0e13"/>
<rect width="1400" height="3" fill="#d8b15a" opacity=".88"/>
<text x="92" y="52" text-anchor="start" font-family="'Inter','Segoe UI',Arial,sans-serif" font-size="18" font-weight="700" fill="#d8b15a">Institutional Price Structure</text>
<text x="92" y="96" text-anchor="start" font-family="'Inter','Segoe UI',Arial,sans-serif" font-size="34" font-weight="760" fill="#f4f7f1">IEF ETF observed structure</text>
<rect x="92" y="142" width="1216" height="480" rx="8" fill="#10151d" stroke="rgba(148,163,184,.2)"/>
<line x1="92" y1="622.0" x2="1308" y2="622.0" stroke="rgba(148,163,184,.12)"/>
<text x="1298" y="615.0" text-anchor="end" font-family="'Inter','Segoe UI',Arial,sans-serif" font-size="15" fill="#9aa49d">92.542</text>
<line x1="92" y1="526.0" x2="1308" y2="526.0" stroke="rgba(148,163,184,.12)"/>
<text x="1298" y="519.0" text-anchor="end" font-family="'Inter','Segoe UI',Arial,sans-serif" font-size="15" fill="#9aa49d">93.725</text>
<line x1="92" y1="430.0" x2="1308" y2="430.0" stroke="rgba(148,163,184,.12)"/>
<text x="1298" y="423.0" text-anchor="end" font-family="'Inter','Segoe UI',Arial,sans-serif" font-size="15" fill="#9aa49d">94.908</text>
<line x1="92" y1="334.0" x2="1308" y2="334.0" stroke="rgba(148,163,184,.12)"/>
<text x="1298" y="327.0" text-anchor="end" font-family="'Inter','Segoe UI',Arial,sans-serif" font-size="15" fill="#9aa49d">96.092</text>
<line x1="92" y1="238.0" x2="1308" y2="238.0" stroke="rgba(148,163,184,.12)"/>
<text x="1298" y="231.0" text-anchor="end" font-family="'Inter','Segoe UI',Arial,sans-serif" font-size="15" fill="#9aa49d">97.275</text>
<line x1="92" y1="142.0" x2="1308" y2="142.0" stroke="rgba(148,163,184,.12)"/>
<text x="1298" y="135.0" text-anchor="end" font-family="'Inter','Segoe UI',Arial,sans-serif" font-size="15" fill="#9aa49d">98.458</text>
<rect x="92" y="548.1" width="1216" height="11.6" fill="#6ee7d8" opacity=".09"/>
<line x1="92" y1="548.1" x2="1308" y2="548.1" stroke="#6ee7d8" stroke-width="1.2" opacity=".58"/>
<line x1="92" y1="559.7" x2="1308" y2="559.7" stroke="#6ee7d8" stroke-width="1.2" opacity=".58"/>
<rect x="92" y="443.7" width="1216" height="11.6" fill="#d8b15a" opacity=".09"/>
<line x1="92" y1="443.7" x2="1308" y2="443.7" stroke="#d8b15a" stroke-width="1.2" opacity=".58"/>
<line x1="92" y1="455.3" x2="1308" y2="455.3" stroke="#d8b15a" stroke-width="1.2" opacity=".58"/>
<polyline points="92.0,300.1 105.7,322.0 119.3,274.1 133.0,243.3 146.7,244.1 160.3,260.3 174.0,253.0 187.6,253.0 201.3,224.6 215.0,226.2 228.6,232.7 242.3,211.6 256.0,180.0 269.6,250.6 283.3,259.5 296.9,275.7 310.6,300.1 324.3,304.9 337.9,280.6 351.6,305.7 365.3,341.4 378.9,366.6 392.6,374.7 406.2,339.8 419.9,326.0 433.6,361.7 447.2,362.5 460.9,432.3 474.6,408.0 488.2,433.9 501.9,393.4 515.6,455.8 529.2,455.0 542.9,400.7 556.5,386.9 570.2,419.3 583.9,401.5 597.5,421.8 611.2,402.3 624.9,385.2 638.5,387.7 652.2,400.7 665.8,383.6 679.5,358.5 693.2,375.5 706.8,389.3 720.5,347.1 734.2,354.4 747.8,388.5 761.5,380.4 775.1,392.5 788.8,377.1 802.5,395.0 816.1,402.3 829.8,438.8 843.5,424.2 857.1,443.7 870.8,472.1 884.4,460.7 898.1,422.6 911.8,446.1 925.4,425.8 939.1,451.8 952.8,477.7 966.4,477.7 980.1,482.6 993.8,543.5 1007.4,546.7 1021.1,575.9 1034.7,524.8 1048.4,519.9 1062.1,513.4 1075.7,481.0 1089.4,477.7 1103.1,459.9 1116.7,451.0 1130.4,489.9 1144.0,484.2 1157.7,503.7 1171.4,494.0 1185.0,534.5 1198.7,542.6 1212.4,521.6 1226.0,528.9 1239.7,476.1 1253.3,489.1 1267.0,481.0 1280.7,461.5 1294.3,502.1 1308.0,474.5" fill="none" stroke="#d9e2dc" stroke-width="3" stroke-linejoin="round" stroke-linecap="round"/>
<circle cx="1308.0" cy="474.5" r="5.5" fill="#f2d27b"/>
<line x1="92.0" y1="622" x2="92.0" y2="630" stroke="#69746d" stroke-width="1"/>
<text x="92.0" y="652" text-anchor="start" font-family="'Inter','Segoe UI',Arial,sans-serif" font-size="14" fill="#9aa49d">Feb 10, 2026</text>
<line x1="392.6" y1="622" x2="392.6" y2="630" stroke="#69746d" stroke-width="1"/>
<text x="392.6" y="652" text-anchor="middle" font-family="'Inter','Segoe UI',Arial,sans-serif" font-size="14" fill="#9aa49d">Mar 13, 2026</text>
<line x1="706.8" y1="622" x2="706.8" y2="630" stroke="#69746d" stroke-width="1"/>
<text x="706.8" y="652" text-anchor="middle" font-family="'Inter','Segoe UI',Arial,sans-serif" font-size="14" fill="#9aa49d">Apr 16, 2026</text>
<line x1="1007.4" y1="622" x2="1007.4" y2="630" stroke="#69746d" stroke-width="1"/>
<text x="1007.4" y="652" text-anchor="middle" font-family="'Inter','Segoe UI',Arial,sans-serif" font-size="14" fill="#9aa49d">May 18, 2026</text>
<line x1="1308.0" y1="622" x2="1308.0" y2="630" stroke="#69746d" stroke-width="1"/>
<text x="1308.0" y="652" text-anchor="end" font-family="'Inter','Segoe UI',Arial,sans-serif" font-size="14" fill="#9aa49d">Jun 18, 2026</text>
<g data-overlay-type="support_resistance_zone" data-evidence-refs="ohlcv:2026-05-21:2026-06-18:low" data-zone-type="support_resistance_zone" data-zone-role="floor" data-lower="93.30999755859375" data-upper="93.45299758911133" data-method="20_session_extreme_atr_band">
<rect x="92" y="678" width="5" height="14" fill="#d8b15a" opacity=".8"/>
<text x="108" y="690" text-anchor="start" font-family="'Inter','Segoe UI',Arial,sans-serif" font-size="15" fill="#cad3c7">Observed range floor</text>
</g>
<g data-overlay-type="support_resistance_zone" data-evidence-refs="ohlcv:2026-05-21:2026-06-18:high" data-zone-type="support_resistance_zone" data-zone-role="ceiling" data-lower="94.59699783325195" data-upper="94.73999786376953" data-method="20_session_extreme_atr_band">
<rect x="92" y="700" width="5" height="14" fill="#d8b15a" opacity=".8"/>
<text x="108" y="712" text-anchor="start" font-family="'Inter','Segoe UI',Arial,sans-serif" font-size="15" fill="#cad3c7">Observed range ceiling</text>
</g>
<g data-overlay-type="structure" data-evidence-refs="ohlcv:2026-04-23:2026-05-20:range|ohlcv:2026-06-18:close" data-method="latest_close_vs_prior_20_session_range">
<rect x="92" y="722" width="5" height="14" fill="#d8b15a" opacity=".8"/>
<text x="108" y="734" text-anchor="start" font-family="'Inter','Segoe UI',Arial,sans-serif" font-size="15" fill="#cad3c7">Close remains inside prior observed range</text>
</g>
<text x="92" y="870" text-anchor="start" font-family="'Inter','Segoe UI',Arial,sans-serif" font-size="13" fill="#8d978f">Source: Yahoo daily OHLCV · As of 2026-06-18</text>
<text x="92" y="890" text-anchor="start" font-family="'Inter','Segoe UI',Arial,sans-serif" font-size="12" fill="#5d675f">Observed market structure, not a forecast or recommendation</text>
</svg>
