<svg xmlns="http://www.w3.org/2000/svg" viewBox="0 0 1400 900" role="img" aria-label="LQD ETF observed structure" preserveAspectRatio="xMidYMid meet" data-series-hash="db3495018387c3ef5f58b071f3efdc5819745b588cce643418d07089f39a9765" data-bar-count="90" data-overlay-count="3" data-time-axis="true" data-time-ticks="5" data-time-tick-dates="2026-02-09|2026-03-12|2026-04-15|2026-05-15|2026-06-17">
<rect width="1400" height="900" fill="#0b0e13"/>
<rect width="1400" height="3" fill="#d8b15a" opacity=".88"/>
<text x="92" y="52" text-anchor="start" font-family="'Inter','Segoe UI',Arial,sans-serif" font-size="18" font-weight="700" fill="#d8b15a">Institutional Price Structure</text>
<text x="92" y="96" text-anchor="start" font-family="'Inter','Segoe UI',Arial,sans-serif" font-size="34" font-weight="760" fill="#f4f7f1">LQD ETF observed structure</text>
<rect x="92" y="142" width="1216" height="480" rx="8" fill="#10151d" stroke="rgba(148,163,184,.2)"/>
<line x1="92" y1="622.0" x2="1308" y2="622.0" stroke="rgba(148,163,184,.12)"/>
<text x="1298" y="615.0" text-anchor="end" font-family="'Inter','Segoe UI',Arial,sans-serif" font-size="15" fill="#9aa49d">106.53</text>
<line x1="92" y1="526.0" x2="1308" y2="526.0" stroke="rgba(148,163,184,.12)"/>
<text x="1298" y="519.0" text-anchor="end" font-family="'Inter','Segoe UI',Arial,sans-serif" font-size="15" fill="#9aa49d">107.69</text>
<line x1="92" y1="430.0" x2="1308" y2="430.0" stroke="rgba(148,163,184,.12)"/>
<text x="1298" y="423.0" text-anchor="end" font-family="'Inter','Segoe UI',Arial,sans-serif" font-size="15" fill="#9aa49d">108.85</text>
<line x1="92" y1="334.0" x2="1308" y2="334.0" stroke="rgba(148,163,184,.12)"/>
<text x="1298" y="327.0" text-anchor="end" font-family="'Inter','Segoe UI',Arial,sans-serif" font-size="15" fill="#9aa49d">110.01</text>
<line x1="92" y1="238.0" x2="1308" y2="238.0" stroke="rgba(148,163,184,.12)"/>
<text x="1298" y="231.0" text-anchor="end" font-family="'Inter','Segoe UI',Arial,sans-serif" font-size="15" fill="#9aa49d">111.17</text>
<line x1="92" y1="142.0" x2="1308" y2="142.0" stroke="rgba(148,163,184,.12)"/>
<text x="1298" y="135.0" text-anchor="end" font-family="'Inter','Segoe UI',Arial,sans-serif" font-size="15" fill="#9aa49d">112.33</text>
<rect x="92" y="550.1" width="1216" height="18.9" fill="#6ee7d8" opacity=".09"/>
<line x1="92" y1="550.1" x2="1308" y2="550.1" stroke="#6ee7d8" stroke-width="1.2" opacity=".58"/>
<line x1="92" y1="569.0" x2="1308" y2="569.0" stroke="#6ee7d8" stroke-width="1.2" opacity=".58"/>
<rect x="92" y="367.9" width="1216" height="18.9" fill="#d8b15a" opacity=".09"/>
<line x1="92" y1="367.9" x2="1308" y2="367.9" stroke="#d8b15a" stroke-width="1.2" opacity=".58"/>
<line x1="92" y1="386.8" x2="1308" y2="386.8" stroke="#d8b15a" stroke-width="1.2" opacity=".58"/>
<polyline points="92.0,288.5 105.7,267.0 119.3,276.9 133.0,233.9 146.7,203.2 160.3,194.1 174.0,203.2 187.6,195.8 201.3,203.2 215.0,193.3 228.6,195.8 242.3,198.3 256.0,192.5 269.6,195.8 283.3,258.7 296.9,262.8 310.6,254.6 324.3,291.0 337.9,321.6 351.6,267.0 365.3,329.9 378.9,404.3 392.6,453.2 406.2,486.3 419.9,443.2 433.6,392.8 447.2,441.6 460.9,401.9 474.6,512.8 488.2,454.0 501.9,472.2 515.6,439.9 529.2,510.3 542.9,531.8 556.5,474.7 570.2,418.4 583.9,445.7 597.5,407.7 611.2,421.7 624.9,411.8 638.5,377.0 652.2,377.0 665.8,401.0 679.5,366.3 693.2,336.5 706.8,339.8 720.5,382.0 734.2,331.5 747.8,332.3 761.5,367.1 775.1,349.7 788.8,374.6 802.5,367.9 816.1,393.6 829.8,389.4 843.5,439.9 857.1,430.0 870.8,450.7 884.4,479.7 898.1,446.6 911.8,401.9 925.4,439.1 939.1,401.0 952.8,423.4 966.4,454.0 980.1,449.0 993.8,454.8 1007.4,511.9 1021.1,528.5 1034.7,573.2 1048.4,504.5 1062.1,486.3 1075.7,469.7 1089.4,435.8 1103.1,423.4 1116.7,396.1 1130.4,387.8 1144.0,423.4 1157.7,424.2 1171.4,449.0 1185.0,430.0 1198.7,486.3 1212.4,495.4 1226.0,466.4 1239.7,487.1 1253.3,411.0 1267.0,416.8 1280.7,418.4 1294.3,407.7 1308.0,436.6" fill="none" stroke="#d9e2dc" stroke-width="3" stroke-linejoin="round" stroke-linecap="round"/>
<circle cx="1308.0" cy="436.6" r="5.5" fill="#f2d27b"/>
<line x1="92.0" y1="622" x2="92.0" y2="630" stroke="#69746d" stroke-width="1"/>
<text x="92.0" y="652" text-anchor="start" font-family="'Inter','Segoe UI',Arial,sans-serif" font-size="14" fill="#9aa49d">Feb 9, 2026</text>
<line x1="392.6" y1="622" x2="392.6" y2="630" stroke="#69746d" stroke-width="1"/>
<text x="392.6" y="652" text-anchor="middle" font-family="'Inter','Segoe UI',Arial,sans-serif" font-size="14" fill="#9aa49d">Mar 12, 2026</text>
<line x1="706.8" y1="622" x2="706.8" y2="630" stroke="#69746d" stroke-width="1"/>
<text x="706.8" y="652" text-anchor="middle" font-family="'Inter','Segoe UI',Arial,sans-serif" font-size="14" fill="#9aa49d">Apr 15, 2026</text>
<line x1="1007.4" y1="622" x2="1007.4" y2="630" stroke="#69746d" stroke-width="1"/>
<text x="1007.4" y="652" text-anchor="middle" font-family="'Inter','Segoe UI',Arial,sans-serif" font-size="14" fill="#9aa49d">May 15, 2026</text>
<line x1="1308.0" y1="622" x2="1308.0" y2="630" stroke="#69746d" stroke-width="1"/>
<text x="1308.0" y="652" text-anchor="end" font-family="'Inter','Segoe UI',Arial,sans-serif" font-size="14" fill="#9aa49d">Jun 17, 2026</text>
<g data-overlay-type="support_resistance_zone" data-evidence-refs="ohlcv:2026-05-20:2026-06-17:low" data-zone-type="support_resistance_zone" data-zone-role="floor" data-lower="107.16999816894531" data-upper="107.39859756469727" data-method="20_session_extreme_atr_band">
<rect x="92" y="678" width="5" height="14" fill="#d8b15a" opacity=".8"/>
<text x="108" y="690" text-anchor="start" font-family="'Inter','Segoe UI',Arial,sans-serif" font-size="15" fill="#cad3c7">Observed range floor</text>
</g>
<g data-overlay-type="support_resistance_zone" data-evidence-refs="ohlcv:2026-05-20:2026-06-17:high" data-zone-type="support_resistance_zone" data-zone-role="ceiling" data-lower="109.37139907836914" data-upper="109.5999984741211" data-method="20_session_extreme_atr_band">
<rect x="92" y="700" width="5" height="14" fill="#d8b15a" opacity=".8"/>
<text x="108" y="712" text-anchor="start" font-family="'Inter','Segoe UI',Arial,sans-serif" font-size="15" fill="#cad3c7">Observed range ceiling</text>
</g>
<g data-overlay-type="structure" data-evidence-refs="ohlcv:2026-04-22:2026-05-19:range|ohlcv:2026-06-17:close" data-method="latest_close_vs_prior_20_session_range">
<rect x="92" y="722" width="5" height="14" fill="#d8b15a" opacity=".8"/>
<text x="108" y="734" text-anchor="start" font-family="'Inter','Segoe UI',Arial,sans-serif" font-size="15" fill="#cad3c7">Close remains inside prior observed range</text>
</g>
<text x="92" y="870" text-anchor="start" font-family="'Inter','Segoe UI',Arial,sans-serif" font-size="13" fill="#8d978f">Source: Yahoo daily OHLCV · As of 2026-06-17</text>
<text x="92" y="890" text-anchor="start" font-family="'Inter','Segoe UI',Arial,sans-serif" font-size="12" fill="#5d675f">Observed market structure, not a forecast or recommendation</text>
</svg>
