<svg xmlns="http://www.w3.org/2000/svg" viewBox="0 0 1400 900" role="img" aria-label="البنية المرصودة لصندوق LQD" preserveAspectRatio="xMidYMid meet" direction="rtl" data-series-hash="db3495018387c3ef5f58b071f3efdc5819745b588cce643418d07089f39a9765" data-bar-count="90" data-overlay-count="3" data-time-axis="true" data-time-ticks="5" data-time-tick-dates="2026-02-09|2026-03-12|2026-04-15|2026-05-15|2026-06-17">
<rect width="1400" height="900" fill="#0b0e13"/>
<rect width="1400" height="3" fill="#d8b15a" opacity=".88"/>
<text x="1180" y="52" text-anchor="end" direction="rtl" font-family="'Tajawal','Cairo','Segoe UI',Arial,sans-serif" font-size="18" font-weight="700" fill="#d8b15a">البنية السعرية المؤسسية</text>
<text x="1180" y="96" text-anchor="end" direction="rtl" font-family="'Tajawal','Cairo','Segoe UI',Arial,sans-serif" font-size="34" font-weight="760" fill="#f4f7f1">البنية المرصودة لصندوق LQD</text>
<rect x="92" y="142" width="1088" height="480" rx="8" fill="#10151d" stroke="rgba(148,163,184,.2)"/>
<line x1="92" y1="622.0" x2="1180" y2="622.0" stroke="rgba(148,163,184,.12)"/>
<text x="1170" y="615.0" text-anchor="end" font-family="'Inter','Segoe UI',Arial,sans-serif" font-size="15" fill="#9aa49d">106.53</text>
<line x1="92" y1="526.0" x2="1180" y2="526.0" stroke="rgba(148,163,184,.12)"/>
<text x="1170" y="519.0" text-anchor="end" font-family="'Inter','Segoe UI',Arial,sans-serif" font-size="15" fill="#9aa49d">107.69</text>
<line x1="92" y1="430.0" x2="1180" y2="430.0" stroke="rgba(148,163,184,.12)"/>
<text x="1170" y="423.0" text-anchor="end" font-family="'Inter','Segoe UI',Arial,sans-serif" font-size="15" fill="#9aa49d">108.85</text>
<line x1="92" y1="334.0" x2="1180" y2="334.0" stroke="rgba(148,163,184,.12)"/>
<text x="1170" y="327.0" text-anchor="end" font-family="'Inter','Segoe UI',Arial,sans-serif" font-size="15" fill="#9aa49d">110.01</text>
<line x1="92" y1="238.0" x2="1180" y2="238.0" stroke="rgba(148,163,184,.12)"/>
<text x="1170" y="231.0" text-anchor="end" font-family="'Inter','Segoe UI',Arial,sans-serif" font-size="15" fill="#9aa49d">111.17</text>
<line x1="92" y1="142.0" x2="1180" y2="142.0" stroke="rgba(148,163,184,.12)"/>
<text x="1170" y="135.0" text-anchor="end" font-family="'Inter','Segoe UI',Arial,sans-serif" font-size="15" fill="#9aa49d">112.33</text>
<rect x="92" y="550.1" width="1088" height="18.9" fill="#6ee7d8" opacity=".09"/>
<line x1="92" y1="550.1" x2="1180" y2="550.1" stroke="#6ee7d8" stroke-width="1.2" opacity=".58"/>
<line x1="92" y1="569.0" x2="1180" y2="569.0" stroke="#6ee7d8" stroke-width="1.2" opacity=".58"/>
<rect x="92" y="367.9" width="1088" height="18.9" fill="#d8b15a" opacity=".09"/>
<line x1="92" y1="367.9" x2="1180" y2="367.9" stroke="#d8b15a" stroke-width="1.2" opacity=".58"/>
<line x1="92" y1="386.8" x2="1180" y2="386.8" stroke="#d8b15a" stroke-width="1.2" opacity=".58"/>
<polyline points="92.0,288.5 104.2,267.0 116.4,276.9 128.7,233.9 140.9,203.2 153.1,194.1 165.3,203.2 177.6,195.8 189.8,203.2 202.0,193.3 214.2,195.8 226.5,198.3 238.7,192.5 250.9,195.8 263.1,258.7 275.4,262.8 287.6,254.6 299.8,291.0 312.0,321.6 324.3,267.0 336.5,329.9 348.7,404.3 360.9,453.2 373.2,486.3 385.4,443.2 397.6,392.8 409.8,441.6 422.1,401.9 434.3,512.8 446.5,454.0 458.7,472.2 471.0,439.9 483.2,510.3 495.4,531.8 507.6,474.7 519.9,418.4 532.1,445.7 544.3,407.7 556.5,421.7 568.8,411.8 581.0,377.0 593.2,377.0 605.4,401.0 617.7,366.3 629.9,336.5 642.1,339.8 654.3,382.0 666.6,331.5 678.8,332.3 691.0,367.1 703.2,349.7 715.5,374.6 727.7,367.9 739.9,393.6 752.1,389.4 764.4,439.9 776.6,430.0 788.8,450.7 801.0,479.7 813.3,446.6 825.5,401.9 837.7,439.1 849.9,401.0 862.2,423.4 874.4,454.0 886.6,449.0 898.8,454.8 911.1,511.9 923.3,528.5 935.5,573.2 947.7,504.5 960.0,486.3 972.2,469.7 984.4,435.8 996.6,423.4 1008.9,396.1 1021.1,387.8 1033.3,423.4 1045.5,424.2 1057.8,449.0 1070.0,430.0 1082.2,486.3 1094.4,495.4 1106.7,466.4 1118.9,487.1 1131.1,411.0 1143.3,416.8 1155.6,418.4 1167.8,407.7 1180.0,436.6" fill="none" stroke="#d9e2dc" stroke-width="3" stroke-linejoin="round" stroke-linecap="round"/>
<circle cx="1180.0" cy="436.6" r="5.5" fill="#f2d27b"/>
<line x1="92.0" y1="622" x2="92.0" y2="630" stroke="#69746d" stroke-width="1"/>
<text x="92.0" y="652" text-anchor="start" font-family="'Tajawal','Cairo','Segoe UI',Arial,sans-serif" font-size="14" fill="#9aa49d" direction="rtl">9 فبر 2026</text>
<line x1="360.9" y1="622" x2="360.9" y2="630" stroke="#69746d" stroke-width="1"/>
<text x="360.9" y="652" text-anchor="middle" font-family="'Tajawal','Cairo','Segoe UI',Arial,sans-serif" font-size="14" fill="#9aa49d" direction="rtl">12 مار 2026</text>
<line x1="642.1" y1="622" x2="642.1" y2="630" stroke="#69746d" stroke-width="1"/>
<text x="642.1" y="652" text-anchor="middle" font-family="'Tajawal','Cairo','Segoe UI',Arial,sans-serif" font-size="14" fill="#9aa49d" direction="rtl">15 أبر 2026</text>
<line x1="911.1" y1="622" x2="911.1" y2="630" stroke="#69746d" stroke-width="1"/>
<text x="911.1" y="652" text-anchor="middle" font-family="'Tajawal','Cairo','Segoe UI',Arial,sans-serif" font-size="14" fill="#9aa49d" direction="rtl">15 ماي 2026</text>
<line x1="1180.0" y1="622" x2="1180.0" y2="630" stroke="#69746d" stroke-width="1"/>
<text x="1180.0" y="652" text-anchor="end" font-family="'Tajawal','Cairo','Segoe UI',Arial,sans-serif" font-size="14" fill="#9aa49d" direction="rtl">17 يون 2026</text>
<g data-overlay-type="support_resistance_zone" data-evidence-refs="ohlcv:2026-05-20:2026-06-17:low" data-zone-type="support_resistance_zone" data-zone-role="floor" data-lower="107.16999816894531" data-upper="107.39859756469727" data-method="20_session_extreme_atr_band">
<rect x="1174" y="678" width="5" height="14" fill="#d8b15a" opacity=".8"/>
<text x="1160" y="690" text-anchor="end" direction="rtl" font-family="'Tajawal','Cairo','Segoe UI',Arial,sans-serif" font-size="15" fill="#cad3c7">الحد الأدنى للنطاق المرصود</text>
</g>
<g data-overlay-type="support_resistance_zone" data-evidence-refs="ohlcv:2026-05-20:2026-06-17:high" data-zone-type="support_resistance_zone" data-zone-role="ceiling" data-lower="109.37139907836914" data-upper="109.5999984741211" data-method="20_session_extreme_atr_band">
<rect x="1174" y="700" width="5" height="14" fill="#d8b15a" opacity=".8"/>
<text x="1160" y="712" text-anchor="end" direction="rtl" font-family="'Tajawal','Cairo','Segoe UI',Arial,sans-serif" font-size="15" fill="#cad3c7">الحد الأعلى للنطاق المرصود</text>
</g>
<g data-overlay-type="structure" data-evidence-refs="ohlcv:2026-04-22:2026-05-19:range|ohlcv:2026-06-17:close" data-method="latest_close_vs_prior_20_session_range">
<rect x="1174" y="722" width="5" height="14" fill="#d8b15a" opacity=".8"/>
<text x="1160" y="734" text-anchor="end" direction="rtl" font-family="'Tajawal','Cairo','Segoe UI',Arial,sans-serif" font-size="15" fill="#cad3c7">الإغلاق ما زال داخل النطاق المرصود السابق</text>
</g>
<text x="1180" y="870" text-anchor="end" direction="rtl" font-family="'Tajawal','Cairo','Segoe UI',Arial,sans-serif" font-size="13" fill="#8d978f">المصدر: بيانات OHLCV اليومية من Yahoo · حتى 2026-06-17</text>
<text x="1180" y="890" text-anchor="end" direction="rtl" font-family="'Tajawal','Cairo','Segoe UI',Arial,sans-serif" font-size="12" fill="#5d675f">قراءة للبنية المرصودة، وليست توقعاً أو توصية</text>
</svg>
