<svg xmlns="http://www.w3.org/2000/svg" viewBox="0 0 1400 900" role="img" aria-label="البنية المرصودة لصندوق SMH" preserveAspectRatio="xMidYMid meet" direction="rtl" data-series-hash="6a6609004e13053358d2b6b8f1773d53bc3a3e2e7615236b5c758a01de68c355" data-bar-count="90" data-overlay-count="3" data-time-axis="true" data-time-ticks="5" data-time-tick-dates="2026-02-10|2026-03-13|2026-04-16|2026-05-18|2026-06-18">
<rect width="1400" height="900" fill="#0b0e13"/>
<rect width="1400" height="3" fill="#d8b15a" opacity=".88"/>
<text x="1180" y="52" text-anchor="end" direction="rtl" font-family="'Tajawal','Cairo','Segoe UI',Arial,sans-serif" font-size="18" font-weight="700" fill="#d8b15a">البنية السعرية المؤسسية</text>
<text x="1180" y="96" text-anchor="end" direction="rtl" font-family="'Tajawal','Cairo','Segoe UI',Arial,sans-serif" font-size="34" font-weight="760" fill="#f4f7f1">البنية المرصودة لصندوق SMH</text>
<rect x="92" y="142" width="1088" height="480" rx="8" fill="#10151d" stroke="rgba(148,163,184,.2)"/>
<line x1="92" y1="622.0" x2="1180" y2="622.0" stroke="rgba(148,163,184,.12)"/>
<text x="1170" y="615.0" text-anchor="end" font-family="'Inter','Segoe UI',Arial,sans-serif" font-size="15" fill="#9aa49d">335.54</text>
<line x1="92" y1="526.0" x2="1180" y2="526.0" stroke="rgba(148,163,184,.12)"/>
<text x="1170" y="519.0" text-anchor="end" font-family="'Inter','Segoe UI',Arial,sans-serif" font-size="15" fill="#9aa49d">406.06</text>
<line x1="92" y1="430.0" x2="1180" y2="430.0" stroke="rgba(148,163,184,.12)"/>
<text x="1170" y="423.0" text-anchor="end" font-family="'Inter','Segoe UI',Arial,sans-serif" font-size="15" fill="#9aa49d">476.57</text>
<line x1="92" y1="334.0" x2="1180" y2="334.0" stroke="rgba(148,163,184,.12)"/>
<text x="1170" y="327.0" text-anchor="end" font-family="'Inter','Segoe UI',Arial,sans-serif" font-size="15" fill="#9aa49d">547.09</text>
<line x1="92" y1="238.0" x2="1180" y2="238.0" stroke="rgba(148,163,184,.12)"/>
<text x="1170" y="231.0" text-anchor="end" font-family="'Inter','Segoe UI',Arial,sans-serif" font-size="15" fill="#9aa49d">617.60</text>
<line x1="92" y1="142.0" x2="1180" y2="142.0" stroke="rgba(148,163,184,.12)"/>
<text x="1170" y="135.0" text-anchor="end" font-family="'Inter','Segoe UI',Arial,sans-serif" font-size="15" fill="#9aa49d">688.12</text>
<rect x="92" y="308.8" width="1088" height="14.9" fill="#6ee7d8" opacity=".09"/>
<line x1="92" y1="308.8" x2="1180" y2="308.8" stroke="#6ee7d8" stroke-width="1.2" opacity=".58"/>
<line x1="92" y1="323.7" x2="1180" y2="323.7" stroke="#6ee7d8" stroke-width="1.2" opacity=".58"/>
<rect x="92" y="175.1" width="1088" height="14.9" fill="#d8b15a" opacity=".09"/>
<line x1="92" y1="175.1" x2="1180" y2="175.1" stroke="#d8b15a" stroke-width="1.2" opacity=".58"/>
<line x1="92" y1="190.0" x2="1180" y2="190.0" stroke="#d8b15a" stroke-width="1.2" opacity=".58"/>
<polyline points="92.0,527.8 104.2,514.1 116.4,525.9 128.7,523.7 140.9,524.0 153.1,517.2 165.3,520.4 177.6,513.8 189.8,516.7 202.0,508.2 214.2,498.6 226.5,517.9 238.7,525.6 250.9,525.5 263.1,546.4 275.4,535.5 287.6,540.6 299.8,560.7 312.0,541.9 324.3,537.9 336.5,532.8 348.7,550.4 360.9,551.5 373.2,542.5 385.4,538.5 397.6,542.9 409.8,541.2 422.1,555.0 434.3,546.0 446.5,541.6 458.7,535.6 471.0,560.3 483.2,569.3 495.4,585.3 507.6,556.8 519.9,545.2 532.1,544.7 544.3,539.7 556.5,534.4 568.8,503.0 581.0,493.0 593.2,484.0 605.4,475.2 617.7,463.5 629.9,462.1 642.1,459.6 654.3,446.9 666.6,447.2 678.8,446.2 691.0,429.7 703.2,422.8 715.5,389.3 727.7,389.6 739.9,410.1 752.1,398.7 764.4,389.0 776.6,384.7 788.8,388.9 801.0,367.2 813.3,330.4 825.5,343.5 837.7,307.5 849.9,294.2 862.2,314.7 874.4,299.5 886.6,291.5 898.8,321.4 911.1,335.3 923.3,338.3 935.5,310.1 947.7,305.7 960.0,294.2 972.2,259.0 984.4,268.1 996.6,262.2 1008.9,263.4 1021.1,251.3 1033.3,218.1 1045.5,210.4 1057.8,224.5 1070.0,303.2 1082.2,264.5 1094.4,274.2 1106.7,301.6 1118.9,249.1 1131.1,234.8 1143.3,197.8 1155.6,240.2 1167.8,229.3 1180.0,180.4" fill="none" stroke="#d9e2dc" stroke-width="3" stroke-linejoin="round" stroke-linecap="round"/>
<circle cx="1180.0" cy="180.4" r="5.5" fill="#f2d27b"/>
<line x1="92.0" y1="622" x2="92.0" y2="630" stroke="#69746d" stroke-width="1"/>
<text x="92.0" y="652" text-anchor="start" font-family="'Tajawal','Cairo','Segoe UI',Arial,sans-serif" font-size="14" fill="#9aa49d" direction="rtl">10 فبر 2026</text>
<line x1="360.9" y1="622" x2="360.9" y2="630" stroke="#69746d" stroke-width="1"/>
<text x="360.9" y="652" text-anchor="middle" font-family="'Tajawal','Cairo','Segoe UI',Arial,sans-serif" font-size="14" fill="#9aa49d" direction="rtl">13 مار 2026</text>
<line x1="642.1" y1="622" x2="642.1" y2="630" stroke="#69746d" stroke-width="1"/>
<text x="642.1" y="652" text-anchor="middle" font-family="'Tajawal','Cairo','Segoe UI',Arial,sans-serif" font-size="14" fill="#9aa49d" direction="rtl">16 أبر 2026</text>
<line x1="911.1" y1="622" x2="911.1" y2="630" stroke="#69746d" stroke-width="1"/>
<text x="911.1" y="652" text-anchor="middle" font-family="'Tajawal','Cairo','Segoe UI',Arial,sans-serif" font-size="14" fill="#9aa49d" direction="rtl">18 ماي 2026</text>
<line x1="1180.0" y1="622" x2="1180.0" y2="630" stroke="#69746d" stroke-width="1"/>
<text x="1180.0" y="652" text-anchor="end" font-family="'Tajawal','Cairo','Segoe UI',Arial,sans-serif" font-size="14" fill="#9aa49d" direction="rtl">18 يون 2026</text>
<g data-overlay-type="support_resistance_zone" data-evidence-refs="ohlcv:2026-05-21:2026-06-18:low" data-zone-type="support_resistance_zone" data-zone-role="floor" data-lower="554.6599731445312" data-upper="565.573974609375" data-method="20_session_extreme_atr_band">
<rect x="1174" y="678" width="5" height="14" fill="#d8b15a" opacity=".8"/>
<text x="1160" y="690" text-anchor="end" direction="rtl" font-family="'Tajawal','Cairo','Segoe UI',Arial,sans-serif" font-size="15" fill="#cad3c7">الحد الأدنى للنطاق المرصود</text>
</g>
<g data-overlay-type="support_resistance_zone" data-evidence-refs="ohlcv:2026-05-21:2026-06-18:high" data-zone-type="support_resistance_zone" data-zone-role="ceiling" data-lower="652.885986328125" data-upper="663.7999877929688" data-method="20_session_extreme_atr_band">
<rect x="1174" y="700" width="5" height="14" fill="#d8b15a" opacity=".8"/>
<text x="1160" y="712" text-anchor="end" direction="rtl" font-family="'Tajawal','Cairo','Segoe UI',Arial,sans-serif" font-size="15" fill="#cad3c7">الحد الأعلى للنطاق المرصود</text>
</g>
<g data-overlay-type="structure" data-evidence-refs="ohlcv:2026-04-23:2026-05-20:range|ohlcv:2026-06-18:close" data-method="latest_close_vs_prior_20_session_range">
<rect x="1174" y="722" width="5" height="14" fill="#d8b15a" opacity=".8"/>
<text x="1160" y="734" text-anchor="end" direction="rtl" font-family="'Tajawal','Cairo','Segoe UI',Arial,sans-serif" font-size="15" fill="#cad3c7">الإغلاق أعلى النطاق المرصود السابق</text>
</g>
<text x="1180" y="870" text-anchor="end" direction="rtl" font-family="'Tajawal','Cairo','Segoe UI',Arial,sans-serif" font-size="13" fill="#8d978f">المصدر: بيانات OHLCV اليومية من Yahoo · حتى 2026-06-18</text>
<text x="1180" y="890" text-anchor="end" direction="rtl" font-family="'Tajawal','Cairo','Segoe UI',Arial,sans-serif" font-size="12" fill="#5d675f">قراءة للبنية المرصودة، وليست توقعاً أو توصية</text>
</svg>
