<svg xmlns="http://www.w3.org/2000/svg" viewBox="0 0 1400 900" role="img" aria-label="TLT ETF observed structure" preserveAspectRatio="xMidYMid meet" data-series-hash="ef143467e07a152afae9e946ea4be089ab5707c044fc69efe9db79fd717ad655" data-bar-count="90" data-overlay-count="3" data-time-axis="true" data-time-ticks="5" data-time-tick-dates="2026-02-10|2026-03-13|2026-04-16|2026-05-18|2026-06-18">
<rect width="1400" height="900" fill="#0b0e13"/>
<rect width="1400" height="3" fill="#d8b15a" opacity=".88"/>
<text x="92" y="52" text-anchor="start" font-family="'Inter','Segoe UI',Arial,sans-serif" font-size="18" font-weight="700" fill="#d8b15a">Institutional Price Structure</text>
<text x="92" y="96" text-anchor="start" font-family="'Inter','Segoe UI',Arial,sans-serif" font-size="34" font-weight="760" fill="#f4f7f1">TLT ETF observed structure</text>
<rect x="92" y="142" width="1216" height="480" rx="8" fill="#10151d" stroke="rgba(148,163,184,.2)"/>
<line x1="92" y1="622.0" x2="1308" y2="622.0" stroke="rgba(148,163,184,.12)"/>
<text x="1298" y="615.0" text-anchor="end" font-family="'Inter','Segoe UI',Arial,sans-serif" font-size="15" fill="#9aa49d">82.123</text>
<line x1="92" y1="526.0" x2="1308" y2="526.0" stroke="rgba(148,163,184,.12)"/>
<text x="1298" y="519.0" text-anchor="end" font-family="'Inter','Segoe UI',Arial,sans-serif" font-size="15" fill="#9aa49d">84.000</text>
<line x1="92" y1="430.0" x2="1308" y2="430.0" stroke="rgba(148,163,184,.12)"/>
<text x="1298" y="423.0" text-anchor="end" font-family="'Inter','Segoe UI',Arial,sans-serif" font-size="15" fill="#9aa49d">85.877</text>
<line x1="92" y1="334.0" x2="1308" y2="334.0" stroke="rgba(148,163,184,.12)"/>
<text x="1298" y="327.0" text-anchor="end" font-family="'Inter','Segoe UI',Arial,sans-serif" font-size="15" fill="#9aa49d">87.753</text>
<line x1="92" y1="238.0" x2="1308" y2="238.0" stroke="rgba(148,163,184,.12)"/>
<text x="1298" y="231.0" text-anchor="end" font-family="'Inter','Segoe UI',Arial,sans-serif" font-size="15" fill="#9aa49d">89.630</text>
<line x1="92" y1="142.0" x2="1308" y2="142.0" stroke="rgba(148,163,184,.12)"/>
<text x="1298" y="135.0" text-anchor="end" font-family="'Inter','Segoe UI',Arial,sans-serif" font-size="15" fill="#9aa49d">91.507</text>
<rect x="92" y="544.6" width="1216" height="15.6" fill="#6ee7d8" opacity=".09"/>
<line x1="92" y1="544.6" x2="1308" y2="544.6" stroke="#6ee7d8" stroke-width="1.2" opacity=".58"/>
<line x1="92" y1="560.3" x2="1308" y2="560.3" stroke="#6ee7d8" stroke-width="1.2" opacity=".58"/>
<rect x="92" y="363.3" width="1216" height="15.6" fill="#d8b15a" opacity=".09"/>
<line x1="92" y1="363.3" x2="1308" y2="363.3" stroke="#d8b15a" stroke-width="1.2" opacity=".58"/>
<line x1="92" y1="379.0" x2="1308" y2="379.0" stroke="#d8b15a" stroke-width="1.2" opacity=".58"/>
<polyline points="92.0,294.3 105.7,318.3 119.3,258.5 133.0,233.4 146.7,225.7 160.3,243.1 174.0,238.5 187.6,249.3 201.3,232.4 215.0,224.2 228.6,223.7 242.3,205.3 256.0,177.1 269.6,239.0 283.3,248.2 296.9,262.6 310.6,281.0 324.3,297.9 337.9,258.5 351.6,307.1 365.3,365.4 378.9,374.1 392.6,396.1 406.2,361.8 419.9,349.5 433.6,374.6 447.2,347.5 460.9,432.4 474.6,403.7 488.2,423.2 501.9,380.7 515.6,418.1 529.2,442.1 542.9,383.8 556.5,388.4 570.2,410.4 583.9,383.3 597.5,390.4 611.2,391.0 624.9,376.6 638.5,387.9 652.2,398.6 665.8,385.3 679.5,361.8 693.2,381.2 706.8,409.4 720.5,369.0 734.2,370.0 747.8,394.5 761.5,385.8 775.1,395.6 788.8,387.4 802.5,409.4 816.1,404.8 829.8,439.0 843.5,443.1 857.1,443.6 870.8,476.9 884.4,452.8 898.1,419.6 911.8,441.6 925.4,419.6 939.1,446.2 952.8,475.3 966.4,485.1 980.1,478.9 993.8,543.4 1007.4,548.5 1021.1,576.1 1034.7,530.6 1048.4,514.7 1062.1,491.2 1075.7,469.7 1089.4,459.5 1103.1,437.0 1116.7,436.0 1130.4,450.8 1144.0,441.6 1157.7,459.0 1171.4,449.3 1185.0,471.8 1198.7,494.3 1212.4,468.7 1226.0,481.0 1239.7,424.7 1253.3,435.5 1267.0,438.0 1280.7,414.0 1294.3,406.8 1308.0,385.3" fill="none" stroke="#d9e2dc" stroke-width="3" stroke-linejoin="round" stroke-linecap="round"/>
<circle cx="1308.0" cy="385.3" r="5.5" fill="#f2d27b"/>
<line x1="92.0" y1="622" x2="92.0" y2="630" stroke="#69746d" stroke-width="1"/>
<text x="92.0" y="652" text-anchor="start" font-family="'Inter','Segoe UI',Arial,sans-serif" font-size="14" fill="#9aa49d">Feb 10, 2026</text>
<line x1="392.6" y1="622" x2="392.6" y2="630" stroke="#69746d" stroke-width="1"/>
<text x="392.6" y="652" text-anchor="middle" font-family="'Inter','Segoe UI',Arial,sans-serif" font-size="14" fill="#9aa49d">Mar 13, 2026</text>
<line x1="706.8" y1="622" x2="706.8" y2="630" stroke="#69746d" stroke-width="1"/>
<text x="706.8" y="652" text-anchor="middle" font-family="'Inter','Segoe UI',Arial,sans-serif" font-size="14" fill="#9aa49d">Apr 16, 2026</text>
<line x1="1007.4" y1="622" x2="1007.4" y2="630" stroke="#69746d" stroke-width="1"/>
<text x="1007.4" y="652" text-anchor="middle" font-family="'Inter','Segoe UI',Arial,sans-serif" font-size="14" fill="#9aa49d">May 18, 2026</text>
<line x1="1308.0" y1="622" x2="1308.0" y2="630" stroke="#69746d" stroke-width="1"/>
<text x="1308.0" y="652" text-anchor="end" font-family="'Inter','Segoe UI',Arial,sans-serif" font-size="14" fill="#9aa49d">Jun 18, 2026</text>
<g data-overlay-type="support_resistance_zone" data-evidence-refs="ohlcv:2026-05-21:2026-06-18:low" data-zone-type="support_resistance_zone" data-zone-role="floor" data-lower="83.33000183105469" data-upper="83.63555187225342" data-method="20_session_extreme_atr_band">
<rect x="92" y="678" width="5" height="14" fill="#d8b15a" opacity=".8"/>
<text x="108" y="690" text-anchor="start" font-family="'Inter','Segoe UI',Arial,sans-serif" font-size="15" fill="#cad3c7">Observed range floor</text>
</g>
<g data-overlay-type="support_resistance_zone" data-evidence-refs="ohlcv:2026-05-21:2026-06-18:high" data-zone-type="support_resistance_zone" data-zone-role="ceiling" data-lower="86.87445026397705" data-upper="87.18000030517578" data-method="20_session_extreme_atr_band">
<rect x="92" y="700" width="5" height="14" fill="#d8b15a" opacity=".8"/>
<text x="108" y="712" text-anchor="start" font-family="'Inter','Segoe UI',Arial,sans-serif" font-size="15" fill="#cad3c7">Observed range ceiling</text>
</g>
<g data-overlay-type="structure" data-evidence-refs="ohlcv:2026-04-23:2026-05-20:range|ohlcv:2026-06-18:close" data-method="latest_close_vs_prior_20_session_range">
<rect x="92" y="722" width="5" height="14" fill="#d8b15a" opacity=".8"/>
<text x="108" y="734" text-anchor="start" font-family="'Inter','Segoe UI',Arial,sans-serif" font-size="15" fill="#cad3c7">Close remains inside prior observed range</text>
</g>
<text x="92" y="870" text-anchor="start" font-family="'Inter','Segoe UI',Arial,sans-serif" font-size="13" fill="#8d978f">Source: Yahoo daily OHLCV · As of 2026-06-18</text>
<text x="92" y="890" text-anchor="start" font-family="'Inter','Segoe UI',Arial,sans-serif" font-size="12" fill="#5d675f">Observed market structure, not a forecast or recommendation</text>
</svg>
