<svg xmlns="http://www.w3.org/2000/svg" viewBox="0 0 1400 900" role="img" aria-label="XLB ETF observed structure" preserveAspectRatio="xMidYMid meet" data-series-hash="f57e4f13567c2760ac7bc9d8cf3b9ff1ae9241beeb8629c980cd498e1e862ba4" data-bar-count="90" data-overlay-count="3" data-time-axis="true" data-time-ticks="5" data-time-tick-dates="2026-02-10|2026-03-13|2026-04-16|2026-05-18|2026-06-18">
<rect width="1400" height="900" fill="#0b0e13"/>
<rect width="1400" height="3" fill="#d8b15a" opacity=".88"/>
<text x="92" y="52" text-anchor="start" font-family="'Inter','Segoe UI',Arial,sans-serif" font-size="18" font-weight="700" fill="#d8b15a">Institutional Price Structure</text>
<text x="92" y="96" text-anchor="start" font-family="'Inter','Segoe UI',Arial,sans-serif" font-size="34" font-weight="760" fill="#f4f7f1">XLB ETF observed structure</text>
<rect x="92" y="142" width="1216" height="480" rx="8" fill="#10151d" stroke="rgba(148,163,184,.2)"/>
<line x1="92" y1="622.0" x2="1308" y2="622.0" stroke="rgba(148,163,184,.12)"/>
<text x="1298" y="615.0" text-anchor="end" font-family="'Inter','Segoe UI',Arial,sans-serif" font-size="15" fill="#9aa49d">46.137</text>
<line x1="92" y1="526.0" x2="1308" y2="526.0" stroke="rgba(148,163,184,.12)"/>
<text x="1298" y="519.0" text-anchor="end" font-family="'Inter','Segoe UI',Arial,sans-serif" font-size="15" fill="#9aa49d">47.856</text>
<line x1="92" y1="430.0" x2="1308" y2="430.0" stroke="rgba(148,163,184,.12)"/>
<text x="1298" y="423.0" text-anchor="end" font-family="'Inter','Segoe UI',Arial,sans-serif" font-size="15" fill="#9aa49d">49.575</text>
<line x1="92" y1="334.0" x2="1308" y2="334.0" stroke="rgba(148,163,184,.12)"/>
<text x="1298" y="327.0" text-anchor="end" font-family="'Inter','Segoe UI',Arial,sans-serif" font-size="15" fill="#9aa49d">51.295</text>
<line x1="92" y1="238.0" x2="1308" y2="238.0" stroke="rgba(148,163,184,.12)"/>
<text x="1298" y="231.0" text-anchor="end" font-family="'Inter','Segoe UI',Arial,sans-serif" font-size="15" fill="#9aa49d">53.014</text>
<line x1="92" y1="142.0" x2="1308" y2="142.0" stroke="rgba(148,163,184,.12)"/>
<text x="1298" y="135.0" text-anchor="end" font-family="'Inter','Segoe UI',Arial,sans-serif" font-size="15" fill="#9aa49d">54.733</text>
<rect x="92" y="431.0" width="1216" height="23.3" fill="#6ee7d8" opacity=".09"/>
<line x1="92" y1="431.0" x2="1308" y2="431.0" stroke="#6ee7d8" stroke-width="1.2" opacity=".58"/>
<line x1="92" y1="454.3" x2="1308" y2="454.3" stroke="#6ee7d8" stroke-width="1.2" opacity=".58"/>
<rect x="92" y="221.5" width="1216" height="23.3" fill="#d8b15a" opacity=".09"/>
<line x1="92" y1="221.5" x2="1308" y2="221.5" stroke="#d8b15a" stroke-width="1.2" opacity=".58"/>
<line x1="92" y1="244.7" x2="1308" y2="244.7" stroke="#d8b15a" stroke-width="1.2" opacity=".58"/>
<polyline points="92.0,243.8 105.7,204.1 119.3,248.3 133.0,221.5 146.7,255.5 160.3,237.6 174.0,248.3 187.6,241.0 201.3,241.0 215.0,218.7 228.6,235.4 242.3,238.8 256.0,215.9 269.6,224.8 283.3,298.0 296.9,299.1 310.6,359.9 324.3,414.1 337.9,406.8 351.6,413.0 365.3,415.2 378.9,424.2 392.6,451.5 406.2,439.8 419.9,433.1 433.6,491.2 447.2,532.5 460.9,574.9 474.6,543.1 488.2,492.8 501.9,439.2 515.6,457.1 529.2,467.2 542.9,457.1 556.5,408.0 570.2,380.6 583.9,383.4 597.5,394.0 611.2,401.8 624.9,308.6 638.5,313.0 652.2,296.8 665.8,284.0 679.5,294.0 693.2,329.2 706.8,308.6 720.5,301.3 734.2,281.8 747.8,307.5 761.5,304.1 775.1,305.2 788.8,299.1 802.5,306.9 816.1,328.1 829.8,352.7 843.5,324.2 857.1,330.9 870.8,370.0 884.4,320.9 898.1,271.7 911.8,328.1 925.4,317.5 939.1,280.1 952.8,286.8 966.4,291.3 980.1,313.0 993.8,389.5 1007.4,394.0 1021.1,459.9 1034.7,421.9 1048.4,405.2 1062.1,390.1 1075.7,351.0 1089.4,340.4 1103.1,330.3 1116.7,342.1 1130.4,354.9 1144.0,321.4 1157.7,315.3 1171.4,315.8 1185.0,371.1 1198.7,408.5 1212.4,363.3 1226.0,428.6 1239.7,338.2 1253.3,284.6 1267.0,266.7 1280.7,254.4 1294.3,293.5 1308.0,305.2" fill="none" stroke="#d9e2dc" stroke-width="3" stroke-linejoin="round" stroke-linecap="round"/>
<circle cx="1308.0" cy="305.2" r="5.5" fill="#f2d27b"/>
<line x1="92.0" y1="622" x2="92.0" y2="630" stroke="#69746d" stroke-width="1"/>
<text x="92.0" y="652" text-anchor="start" font-family="'Inter','Segoe UI',Arial,sans-serif" font-size="14" fill="#9aa49d">Feb 10, 2026</text>
<line x1="392.6" y1="622" x2="392.6" y2="630" stroke="#69746d" stroke-width="1"/>
<text x="392.6" y="652" text-anchor="middle" font-family="'Inter','Segoe UI',Arial,sans-serif" font-size="14" fill="#9aa49d">Mar 13, 2026</text>
<line x1="706.8" y1="622" x2="706.8" y2="630" stroke="#69746d" stroke-width="1"/>
<text x="706.8" y="652" text-anchor="middle" font-family="'Inter','Segoe UI',Arial,sans-serif" font-size="14" fill="#9aa49d">Apr 16, 2026</text>
<line x1="1007.4" y1="622" x2="1007.4" y2="630" stroke="#69746d" stroke-width="1"/>
<text x="1007.4" y="652" text-anchor="middle" font-family="'Inter','Segoe UI',Arial,sans-serif" font-size="14" fill="#9aa49d">May 18, 2026</text>
<line x1="1308.0" y1="622" x2="1308.0" y2="630" stroke="#69746d" stroke-width="1"/>
<text x="1308.0" y="652" text-anchor="end" font-family="'Inter','Segoe UI',Arial,sans-serif" font-size="14" fill="#9aa49d">Jun 18, 2026</text>
<g data-overlay-type="support_resistance_zone" data-evidence-refs="ohlcv:2026-05-21:2026-06-18:low" data-zone-type="support_resistance_zone" data-zone-role="floor" data-lower="49.13999938964844" data-upper="49.556999588012694" data-method="20_session_extreme_atr_band">
<rect x="92" y="678" width="5" height="14" fill="#d8b15a" opacity=".8"/>
<text x="108" y="690" text-anchor="start" font-family="'Inter','Segoe UI',Arial,sans-serif" font-size="15" fill="#cad3c7">Observed range floor</text>
</g>
<g data-overlay-type="support_resistance_zone" data-evidence-refs="ohlcv:2026-05-21:2026-06-18:high" data-zone-type="support_resistance_zone" data-zone-role="ceiling" data-lower="52.89300117492676" data-upper="53.310001373291016" data-method="20_session_extreme_atr_band">
<rect x="92" y="700" width="5" height="14" fill="#d8b15a" opacity=".8"/>
<text x="108" y="712" text-anchor="start" font-family="'Inter','Segoe UI',Arial,sans-serif" font-size="15" fill="#cad3c7">Observed range ceiling</text>
</g>
<g data-overlay-type="structure" data-evidence-refs="ohlcv:2026-04-23:2026-05-20:range|ohlcv:2026-06-18:close" data-method="latest_close_vs_prior_20_session_range">
<rect x="92" y="722" width="5" height="14" fill="#d8b15a" opacity=".8"/>
<text x="108" y="734" text-anchor="start" font-family="'Inter','Segoe UI',Arial,sans-serif" font-size="15" fill="#cad3c7">Close remains inside prior observed range</text>
</g>
<text x="92" y="870" text-anchor="start" font-family="'Inter','Segoe UI',Arial,sans-serif" font-size="13" fill="#8d978f">Source: Yahoo daily OHLCV · As of 2026-06-18</text>
<text x="92" y="890" text-anchor="start" font-family="'Inter','Segoe UI',Arial,sans-serif" font-size="12" fill="#5d675f">Observed market structure, not a forecast or recommendation</text>
</svg>
