<svg xmlns="http://www.w3.org/2000/svg" viewBox="0 0 1400 900" role="img" aria-label="XLE ETF observed structure" preserveAspectRatio="xMidYMid meet" data-series-hash="f287515d6d89a962f543ea375f76d617419b7ce2431ff225dbb2347e30e53f5f" data-bar-count="90" data-overlay-count="3" data-time-axis="true" data-time-ticks="5" data-time-tick-dates="2026-02-10|2026-03-13|2026-04-16|2026-05-18|2026-06-18">
<rect width="1400" height="900" fill="#0b0e13"/>
<rect width="1400" height="3" fill="#d8b15a" opacity=".88"/>
<text x="92" y="52" text-anchor="start" font-family="'Inter','Segoe UI',Arial,sans-serif" font-size="18" font-weight="700" fill="#d8b15a">Institutional Price Structure</text>
<text x="92" y="96" text-anchor="start" font-family="'Inter','Segoe UI',Arial,sans-serif" font-size="34" font-weight="760" fill="#f4f7f1">XLE ETF observed structure</text>
<rect x="92" y="142" width="1216" height="480" rx="8" fill="#10151d" stroke="rgba(148,163,184,.2)"/>
<line x1="92" y1="622.0" x2="1308" y2="622.0" stroke="rgba(148,163,184,.12)"/>
<text x="1298" y="615.0" text-anchor="end" font-family="'Inter','Segoe UI',Arial,sans-serif" font-size="15" fill="#9aa49d">52.358</text>
<line x1="92" y1="526.0" x2="1308" y2="526.0" stroke="rgba(148,163,184,.12)"/>
<text x="1298" y="519.0" text-anchor="end" font-family="'Inter','Segoe UI',Arial,sans-serif" font-size="15" fill="#9aa49d">54.743</text>
<line x1="92" y1="430.0" x2="1308" y2="430.0" stroke="rgba(148,163,184,.12)"/>
<text x="1298" y="423.0" text-anchor="end" font-family="'Inter','Segoe UI',Arial,sans-serif" font-size="15" fill="#9aa49d">57.128</text>
<line x1="92" y1="334.0" x2="1308" y2="334.0" stroke="rgba(148,163,184,.12)"/>
<text x="1298" y="327.0" text-anchor="end" font-family="'Inter','Segoe UI',Arial,sans-serif" font-size="15" fill="#9aa49d">59.512</text>
<line x1="92" y1="238.0" x2="1308" y2="238.0" stroke="rgba(148,163,184,.12)"/>
<text x="1298" y="231.0" text-anchor="end" font-family="'Inter','Segoe UI',Arial,sans-serif" font-size="15" fill="#9aa49d">61.897</text>
<line x1="92" y1="142.0" x2="1308" y2="142.0" stroke="rgba(148,163,184,.12)"/>
<text x="1298" y="135.0" text-anchor="end" font-family="'Inter','Segoe UI',Arial,sans-serif" font-size="15" fill="#9aa49d">64.282</text>
<rect x="92" y="559.9" width="1216" height="26.1" fill="#6ee7d8" opacity=".09"/>
<line x1="92" y1="559.9" x2="1308" y2="559.9" stroke="#6ee7d8" stroke-width="1.2" opacity=".58"/>
<line x1="92" y1="586.1" x2="1308" y2="586.1" stroke="#6ee7d8" stroke-width="1.2" opacity=".58"/>
<rect x="92" y="290.6" width="1216" height="26.1" fill="#d8b15a" opacity=".09"/>
<line x1="92" y1="290.6" x2="1308" y2="290.6" stroke="#d8b15a" stroke-width="1.2" opacity=".58"/>
<line x1="92" y1="316.8" x2="1308" y2="316.8" stroke="#d8b15a" stroke-width="1.2" opacity=".58"/>
<polyline points="92.0,572.8 105.7,516.4 119.3,556.7 133.0,541.8 146.7,566.0 160.3,524.5 174.0,508.4 187.6,520.5 201.3,509.6 215.0,511.6 228.6,520.9 242.3,513.6 256.0,478.6 269.6,433.5 283.3,454.5 296.9,467.7 310.6,456.1 324.3,452.4 337.9,462.5 351.6,491.5 365.3,435.9 378.9,414.6 392.6,407.0 406.2,398.9 419.9,374.4 433.6,377.6 447.2,340.1 460.9,342.2 474.6,329.3 488.2,280.6 501.9,291.4 515.6,253.2 529.2,211.3 542.9,235.5 556.5,263.7 570.2,355.8 583.9,344.6 597.5,327.3 611.2,307.9 624.9,392.9 638.5,421.8 652.2,437.5 665.8,430.7 679.5,477.4 693.2,485.0 706.8,452.0 720.5,514.8 734.2,512.8 747.8,480.6 761.5,453.6 775.1,435.9 788.8,440.4 802.5,444.4 816.1,406.6 829.8,353.4 843.5,328.5 857.1,360.7 870.8,338.9 884.4,336.5 898.1,435.1 911.8,477.4 925.4,487.5 939.1,428.3 952.8,412.2 966.4,409.8 980.1,392.1 993.8,336.9 1007.4,291.0 1021.1,262.5 1034.7,322.4 1048.4,349.4 1062.1,334.9 1075.7,400.9 1089.4,435.5 1103.1,437.1 1116.7,463.7 1130.4,423.1 1144.0,396.5 1157.7,366.3 1171.4,364.7 1185.0,408.2 1198.7,381.6 1212.4,419.4 1226.0,384.8 1239.7,430.3 1253.3,413.0 1267.0,493.5 1280.7,501.1 1294.3,528.9 1308.0,565.1" fill="none" stroke="#d9e2dc" stroke-width="3" stroke-linejoin="round" stroke-linecap="round"/>
<circle cx="1308.0" cy="565.1" r="5.5" fill="#f2d27b"/>
<line x1="92.0" y1="622" x2="92.0" y2="630" stroke="#69746d" stroke-width="1"/>
<text x="92.0" y="652" text-anchor="start" font-family="'Inter','Segoe UI',Arial,sans-serif" font-size="14" fill="#9aa49d">Feb 10, 2026</text>
<line x1="392.6" y1="622" x2="392.6" y2="630" stroke="#69746d" stroke-width="1"/>
<text x="392.6" y="652" text-anchor="middle" font-family="'Inter','Segoe UI',Arial,sans-serif" font-size="14" fill="#9aa49d">Mar 13, 2026</text>
<line x1="706.8" y1="622" x2="706.8" y2="630" stroke="#69746d" stroke-width="1"/>
<text x="706.8" y="652" text-anchor="middle" font-family="'Inter','Segoe UI',Arial,sans-serif" font-size="14" fill="#9aa49d">Apr 16, 2026</text>
<line x1="1007.4" y1="622" x2="1007.4" y2="630" stroke="#69746d" stroke-width="1"/>
<text x="1007.4" y="652" text-anchor="middle" font-family="'Inter','Segoe UI',Arial,sans-serif" font-size="14" fill="#9aa49d">May 18, 2026</text>
<line x1="1308.0" y1="622" x2="1308.0" y2="630" stroke="#69746d" stroke-width="1"/>
<text x="1308.0" y="652" text-anchor="end" font-family="'Inter','Segoe UI',Arial,sans-serif" font-size="14" fill="#9aa49d">Jun 18, 2026</text>
<g data-overlay-type="support_resistance_zone" data-evidence-refs="ohlcv:2026-05-21:2026-06-18:low" data-zone-type="support_resistance_zone" data-zone-role="floor" data-lower="53.25" data-upper="53.89934984207153" data-method="20_session_extreme_atr_band">
<rect x="92" y="678" width="5" height="14" fill="#d8b15a" opacity=".8"/>
<text x="108" y="690" text-anchor="start" font-family="'Inter','Segoe UI',Arial,sans-serif" font-size="15" fill="#cad3c7">Observed range floor</text>
</g>
<g data-overlay-type="support_resistance_zone" data-evidence-refs="ohlcv:2026-05-21:2026-06-18:high" data-zone-type="support_resistance_zone" data-zone-role="ceiling" data-lower="59.94065031051636" data-upper="60.59000015258789" data-method="20_session_extreme_atr_band">
<rect x="92" y="700" width="5" height="14" fill="#d8b15a" opacity=".8"/>
<text x="108" y="712" text-anchor="start" font-family="'Inter','Segoe UI',Arial,sans-serif" font-size="15" fill="#cad3c7">Observed range ceiling</text>
</g>
<g data-overlay-type="structure" data-evidence-refs="ohlcv:2026-04-23:2026-05-20:range|ohlcv:2026-06-18:close" data-method="latest_close_vs_prior_20_session_range">
<rect x="92" y="722" width="5" height="14" fill="#d8b15a" opacity=".8"/>
<text x="108" y="734" text-anchor="start" font-family="'Inter','Segoe UI',Arial,sans-serif" font-size="15" fill="#cad3c7">Close below prior observed range</text>
</g>
<text x="92" y="870" text-anchor="start" font-family="'Inter','Segoe UI',Arial,sans-serif" font-size="13" fill="#8d978f">Source: Yahoo daily OHLCV · As of 2026-06-18</text>
<text x="92" y="890" text-anchor="start" font-family="'Inter','Segoe UI',Arial,sans-serif" font-size="12" fill="#5d675f">Observed market structure, not a forecast or recommendation</text>
</svg>
