<svg xmlns="http://www.w3.org/2000/svg" viewBox="0 0 1400 900" role="img" aria-label="البنية المرصودة لصندوق XLI" preserveAspectRatio="xMidYMid meet" direction="rtl" data-series-hash="c349151bd9aa3b7ff3f38cb0b91342ad197617730382767f110879a6ecc47910" data-bar-count="90" data-overlay-count="3" data-time-axis="true" data-time-ticks="5" data-time-tick-dates="2026-02-10|2026-03-13|2026-04-16|2026-05-18|2026-06-18">
<rect width="1400" height="900" fill="#0b0e13"/>
<rect width="1400" height="3" fill="#d8b15a" opacity=".88"/>
<text x="1180" y="52" text-anchor="end" direction="rtl" font-family="'Tajawal','Cairo','Segoe UI',Arial,sans-serif" font-size="18" font-weight="700" fill="#d8b15a">البنية السعرية المؤسسية</text>
<text x="1180" y="96" text-anchor="end" direction="rtl" font-family="'Tajawal','Cairo','Segoe UI',Arial,sans-serif" font-size="34" font-weight="760" fill="#f4f7f1">البنية المرصودة لصندوق XLI</text>
<rect x="92" y="142" width="1088" height="480" rx="8" fill="#10151d" stroke="rgba(148,163,184,.2)"/>
<line x1="92" y1="622.0" x2="1180" y2="622.0" stroke="rgba(148,163,184,.12)"/>
<text x="1170" y="615.0" text-anchor="end" font-family="'Inter','Segoe UI',Arial,sans-serif" font-size="15" fill="#9aa49d">153.93</text>
<line x1="92" y1="526.0" x2="1180" y2="526.0" stroke="rgba(148,163,184,.12)"/>
<text x="1170" y="519.0" text-anchor="end" font-family="'Inter','Segoe UI',Arial,sans-serif" font-size="15" fill="#9aa49d">160.16</text>
<line x1="92" y1="430.0" x2="1180" y2="430.0" stroke="rgba(148,163,184,.12)"/>
<text x="1170" y="423.0" text-anchor="end" font-family="'Inter','Segoe UI',Arial,sans-serif" font-size="15" fill="#9aa49d">166.39</text>
<line x1="92" y1="334.0" x2="1180" y2="334.0" stroke="rgba(148,163,184,.12)"/>
<text x="1170" y="327.0" text-anchor="end" font-family="'Inter','Segoe UI',Arial,sans-serif" font-size="15" fill="#9aa49d">172.61</text>
<line x1="92" y1="238.0" x2="1180" y2="238.0" stroke="rgba(148,163,184,.12)"/>
<text x="1170" y="231.0" text-anchor="end" font-family="'Inter','Segoe UI',Arial,sans-serif" font-size="15" fill="#9aa49d">178.84</text>
<line x1="92" y1="142.0" x2="1180" y2="142.0" stroke="rgba(148,163,184,.12)"/>
<text x="1170" y="135.0" text-anchor="end" font-family="'Inter','Segoe UI',Arial,sans-serif" font-size="15" fill="#9aa49d">185.07</text>
<rect x="92" y="369.5" width="1088" height="21.6" fill="#6ee7d8" opacity=".09"/>
<line x1="92" y1="369.5" x2="1180" y2="369.5" stroke="#6ee7d8" stroke-width="1.2" opacity=".58"/>
<line x1="92" y1="391.1" x2="1180" y2="391.1" stroke="#6ee7d8" stroke-width="1.2" opacity=".58"/>
<rect x="92" y="175.1" width="1088" height="21.6" fill="#d8b15a" opacity=".09"/>
<line x1="92" y1="175.1" x2="1180" y2="175.1" stroke="#d8b15a" stroke-width="1.2" opacity=".58"/>
<line x1="92" y1="196.7" x2="1180" y2="196.7" stroke="#d8b15a" stroke-width="1.2" opacity=".58"/>
<polyline points="92.0,314.0 104.2,299.7 116.4,331.9 128.7,310.0 140.9,296.0 153.1,296.6 165.3,276.5 177.6,262.8 189.8,299.8 202.0,266.7 214.2,288.0 226.5,271.0 238.7,264.2 250.9,237.1 263.1,290.4 275.4,282.3 287.6,342.5 299.8,375.2 312.0,359.8 324.3,374.0 336.5,382.2 348.7,447.7 360.9,456.8 373.2,435.0 385.4,428.3 397.6,448.6 409.8,465.9 422.1,502.7 434.3,481.4 446.5,466.8 458.7,449.8 471.0,508.9 483.2,540.8 495.4,580.7 507.6,501.8 519.9,460.2 532.1,470.3 544.3,457.4 556.5,462.5 568.8,367.5 581.0,340.5 593.2,350.9 605.4,332.2 617.7,322.6 629.9,356.1 642.1,369.2 654.3,320.2 666.6,314.2 678.8,352.1 691.0,358.3 703.2,311.5 715.5,336.2 727.7,335.6 739.9,359.2 752.1,375.4 764.4,303.7 776.6,328.7 788.8,359.2 801.0,337.1 813.3,268.4 825.5,312.6 837.7,325.0 849.9,296.6 862.2,307.2 874.4,318.5 886.6,304.8 898.8,352.7 911.1,362.7 923.3,393.7 935.5,363.0 947.7,366.1 960.0,347.0 972.2,308.0 984.4,308.0 996.6,315.7 1008.9,326.0 1021.1,337.3 1033.3,309.7 1045.5,311.9 1057.8,279.3 1070.0,309.8 1082.2,318.3 1094.4,288.0 1106.7,379.5 1118.9,294.9 1131.1,279.0 1143.3,240.5 1155.6,222.4 1167.8,226.3 1180.0,206.1" fill="none" stroke="#d9e2dc" stroke-width="3" stroke-linejoin="round" stroke-linecap="round"/>
<circle cx="1180.0" cy="206.1" r="5.5" fill="#f2d27b"/>
<line x1="92.0" y1="622" x2="92.0" y2="630" stroke="#69746d" stroke-width="1"/>
<text x="92.0" y="652" text-anchor="start" font-family="'Tajawal','Cairo','Segoe UI',Arial,sans-serif" font-size="14" fill="#9aa49d" direction="rtl">10 فبر 2026</text>
<line x1="360.9" y1="622" x2="360.9" y2="630" stroke="#69746d" stroke-width="1"/>
<text x="360.9" y="652" text-anchor="middle" font-family="'Tajawal','Cairo','Segoe UI',Arial,sans-serif" font-size="14" fill="#9aa49d" direction="rtl">13 مار 2026</text>
<line x1="642.1" y1="622" x2="642.1" y2="630" stroke="#69746d" stroke-width="1"/>
<text x="642.1" y="652" text-anchor="middle" font-family="'Tajawal','Cairo','Segoe UI',Arial,sans-serif" font-size="14" fill="#9aa49d" direction="rtl">16 أبر 2026</text>
<line x1="911.1" y1="622" x2="911.1" y2="630" stroke="#69746d" stroke-width="1"/>
<text x="911.1" y="652" text-anchor="middle" font-family="'Tajawal','Cairo','Segoe UI',Arial,sans-serif" font-size="14" fill="#9aa49d" direction="rtl">18 ماي 2026</text>
<line x1="1180.0" y1="622" x2="1180.0" y2="630" stroke="#69746d" stroke-width="1"/>
<text x="1180.0" y="652" text-anchor="end" font-family="'Tajawal','Cairo','Segoe UI',Arial,sans-serif" font-size="14" fill="#9aa49d" direction="rtl">18 يون 2026</text>
<g data-overlay-type="support_resistance_zone" data-evidence-refs="ohlcv:2026-05-21:2026-06-18:low" data-zone-type="support_resistance_zone" data-zone-role="floor" data-lower="168.91000366210938" data-upper="170.31100311279297" data-method="20_session_extreme_atr_band">
<rect x="1174" y="678" width="5" height="14" fill="#d8b15a" opacity=".8"/>
<text x="1160" y="690" text-anchor="end" direction="rtl" font-family="'Tajawal','Cairo','Segoe UI',Arial,sans-serif" font-size="15" fill="#cad3c7">الحد الأدنى للنطاق المرصود</text>
</g>
<g data-overlay-type="support_resistance_zone" data-evidence-refs="ohlcv:2026-05-21:2026-06-18:high" data-zone-type="support_resistance_zone" data-zone-role="ceiling" data-lower="181.5189987182617" data-upper="182.9199981689453" data-method="20_session_extreme_atr_band">
<rect x="1174" y="700" width="5" height="14" fill="#d8b15a" opacity=".8"/>
<text x="1160" y="712" text-anchor="end" direction="rtl" font-family="'Tajawal','Cairo','Segoe UI',Arial,sans-serif" font-size="15" fill="#cad3c7">الحد الأعلى للنطاق المرصود</text>
</g>
<g data-overlay-type="structure" data-evidence-refs="ohlcv:2026-04-23:2026-05-20:range|ohlcv:2026-06-18:close" data-method="latest_close_vs_prior_20_session_range">
<rect x="1174" y="722" width="5" height="14" fill="#d8b15a" opacity=".8"/>
<text x="1160" y="734" text-anchor="end" direction="rtl" font-family="'Tajawal','Cairo','Segoe UI',Arial,sans-serif" font-size="15" fill="#cad3c7">الإغلاق أعلى النطاق المرصود السابق</text>
</g>
<text x="1180" y="870" text-anchor="end" direction="rtl" font-family="'Tajawal','Cairo','Segoe UI',Arial,sans-serif" font-size="13" fill="#8d978f">المصدر: بيانات OHLCV اليومية من Yahoo · حتى 2026-06-18</text>
<text x="1180" y="890" text-anchor="end" direction="rtl" font-family="'Tajawal','Cairo','Segoe UI',Arial,sans-serif" font-size="12" fill="#5d675f">قراءة للبنية المرصودة، وليست توقعاً أو توصية</text>
</svg>
