<svg xmlns="http://www.w3.org/2000/svg" viewBox="0 0 1400 900" role="img" aria-label="البنية المرصودة لصندوق XLP" preserveAspectRatio="xMidYMid meet" direction="rtl" data-series-hash="5a12f12c1e412aa8b70688d49725d9a04abafb7425d39f7beb1e4e438c8e0287" data-bar-count="90" data-overlay-count="3" data-time-axis="true" data-time-ticks="5" data-time-tick-dates="2026-02-09|2026-03-12|2026-04-15|2026-05-15|2026-06-17">
<rect width="1400" height="900" fill="#0b0e13"/>
<rect width="1400" height="3" fill="#d8b15a" opacity=".88"/>
<text x="1180" y="52" text-anchor="end" direction="rtl" font-family="'Tajawal','Cairo','Segoe UI',Arial,sans-serif" font-size="18" font-weight="700" fill="#d8b15a">البنية السعرية المؤسسية</text>
<text x="1180" y="96" text-anchor="end" direction="rtl" font-family="'Tajawal','Cairo','Segoe UI',Arial,sans-serif" font-size="34" font-weight="760" fill="#f4f7f1">البنية المرصودة لصندوق XLP</text>
<rect x="92" y="142" width="1088" height="480" rx="8" fill="#10151d" stroke="rgba(148,163,184,.2)"/>
<line x1="92" y1="622.0" x2="1180" y2="622.0" stroke="rgba(148,163,184,.12)"/>
<text x="1170" y="615.0" text-anchor="end" font-family="'Inter','Segoe UI',Arial,sans-serif" font-size="15" fill="#9aa49d">79.686</text>
<line x1="92" y1="526.0" x2="1180" y2="526.0" stroke="rgba(148,163,184,.12)"/>
<text x="1170" y="519.0" text-anchor="end" font-family="'Inter','Segoe UI',Arial,sans-serif" font-size="15" fill="#9aa49d">81.931</text>
<line x1="92" y1="430.0" x2="1180" y2="430.0" stroke="rgba(148,163,184,.12)"/>
<text x="1170" y="423.0" text-anchor="end" font-family="'Inter','Segoe UI',Arial,sans-serif" font-size="15" fill="#9aa49d">84.177</text>
<line x1="92" y1="334.0" x2="1180" y2="334.0" stroke="rgba(148,163,184,.12)"/>
<text x="1170" y="327.0" text-anchor="end" font-family="'Inter','Segoe UI',Arial,sans-serif" font-size="15" fill="#9aa49d">86.423</text>
<line x1="92" y1="238.0" x2="1180" y2="238.0" stroke="rgba(148,163,184,.12)"/>
<text x="1170" y="231.0" text-anchor="end" font-family="'Inter','Segoe UI',Arial,sans-serif" font-size="15" fill="#9aa49d">88.669</text>
<line x1="92" y1="142.0" x2="1180" y2="142.0" stroke="rgba(148,163,184,.12)"/>
<text x="1170" y="135.0" text-anchor="end" font-family="'Inter','Segoe UI',Arial,sans-serif" font-size="15" fill="#9aa49d">90.914</text>
<rect x="92" y="524.5" width="1088" height="20.8" fill="#6ee7d8" opacity=".09"/>
<line x1="92" y1="524.5" x2="1180" y2="524.5" stroke="#6ee7d8" stroke-width="1.2" opacity=".58"/>
<line x1="92" y1="545.3" x2="1180" y2="545.3" stroke="#6ee7d8" stroke-width="1.2" opacity=".58"/>
<rect x="92" y="337.1" width="1088" height="20.8" fill="#d8b15a" opacity=".09"/>
<line x1="92" y1="337.1" x2="1180" y2="337.1" stroke="#d8b15a" stroke-width="1.2" opacity=".58"/>
<line x1="92" y1="357.9" x2="1180" y2="357.9" stroke="#d8b15a" stroke-width="1.2" opacity=".58"/>
<polyline points="92.0,290.9 104.2,302.9 116.4,249.5 128.7,214.9 140.9,202.0 153.1,258.0 165.3,264.9 177.6,280.7 189.8,271.3 202.0,225.1 214.2,192.2 226.5,223.4 238.7,229.8 250.9,180.7 263.1,236.2 275.4,277.7 287.6,302.5 299.8,377.3 312.0,361.5 324.3,353.4 336.5,364.0 348.7,412.4 360.9,426.9 373.2,405.9 385.4,395.7 397.6,407.6 409.8,495.7 422.1,524.3 434.3,553.4 446.5,558.1 458.7,561.1 471.0,544.0 483.2,559.8 495.4,532.5 507.6,528.2 519.9,523.9 532.1,546.1 544.3,527.8 556.5,494.9 568.8,554.7 581.0,489.7 593.2,461.1 605.4,507.2 617.7,542.3 629.9,545.7 642.1,563.2 654.3,547.4 666.6,503.4 678.8,506.4 691.0,529.9 703.2,518.4 715.5,459.8 727.7,470.5 739.9,508.5 752.1,476.9 764.4,483.7 776.6,424.3 788.8,430.3 801.0,457.2 813.3,435.0 825.5,427.3 837.7,438.4 849.9,429.9 862.2,464.5 874.4,418.8 886.6,406.8 898.8,395.7 911.1,410.2 923.3,356.4 935.5,348.2 947.7,372.6 960.0,409.4 972.2,403.4 984.4,453.4 996.6,412.8 1008.9,419.2 1021.1,484.2 1033.3,521.8 1045.5,530.3 1057.8,516.2 1070.0,521.4 1082.2,461.5 1094.4,477.3 1106.7,433.3 1118.9,373.9 1131.1,383.3 1143.3,359.8 1155.6,374.3 1167.8,369.6 1180.0,451.3" fill="none" stroke="#d9e2dc" stroke-width="3" stroke-linejoin="round" stroke-linecap="round"/>
<circle cx="1180.0" cy="451.3" r="5.5" fill="#f2d27b"/>
<line x1="92.0" y1="622" x2="92.0" y2="630" stroke="#69746d" stroke-width="1"/>
<text x="92.0" y="652" text-anchor="start" font-family="'Tajawal','Cairo','Segoe UI',Arial,sans-serif" font-size="14" fill="#9aa49d" direction="rtl">9 فبر 2026</text>
<line x1="360.9" y1="622" x2="360.9" y2="630" stroke="#69746d" stroke-width="1"/>
<text x="360.9" y="652" text-anchor="middle" font-family="'Tajawal','Cairo','Segoe UI',Arial,sans-serif" font-size="14" fill="#9aa49d" direction="rtl">12 مار 2026</text>
<line x1="642.1" y1="622" x2="642.1" y2="630" stroke="#69746d" stroke-width="1"/>
<text x="642.1" y="652" text-anchor="middle" font-family="'Tajawal','Cairo','Segoe UI',Arial,sans-serif" font-size="14" fill="#9aa49d" direction="rtl">15 أبر 2026</text>
<line x1="911.1" y1="622" x2="911.1" y2="630" stroke="#69746d" stroke-width="1"/>
<text x="911.1" y="652" text-anchor="middle" font-family="'Tajawal','Cairo','Segoe UI',Arial,sans-serif" font-size="14" fill="#9aa49d" direction="rtl">15 ماي 2026</text>
<line x1="1180.0" y1="622" x2="1180.0" y2="630" stroke="#69746d" stroke-width="1"/>
<text x="1180.0" y="652" text-anchor="end" font-family="'Tajawal','Cairo','Segoe UI',Arial,sans-serif" font-size="14" fill="#9aa49d" direction="rtl">17 يون 2026</text>
<g data-overlay-type="support_resistance_zone" data-evidence-refs="ohlcv:2026-05-20:2026-06-17:low" data-zone-type="support_resistance_zone" data-zone-role="floor" data-lower="81.4800033569336" data-upper="81.96700286865234" data-method="20_session_extreme_atr_band">
<rect x="1174" y="678" width="5" height="14" fill="#d8b15a" opacity=".8"/>
<text x="1160" y="690" text-anchor="end" direction="rtl" font-family="'Tajawal','Cairo','Segoe UI',Arial,sans-serif" font-size="15" fill="#cad3c7">الحد الأدنى للنطاق المرصود</text>
</g>
<g data-overlay-type="support_resistance_zone" data-evidence-refs="ohlcv:2026-05-20:2026-06-17:high" data-zone-type="support_resistance_zone" data-zone-role="ceiling" data-lower="85.86299896240234" data-upper="86.3499984741211" data-method="20_session_extreme_atr_band">
<rect x="1174" y="700" width="5" height="14" fill="#d8b15a" opacity=".8"/>
<text x="1160" y="712" text-anchor="end" direction="rtl" font-family="'Tajawal','Cairo','Segoe UI',Arial,sans-serif" font-size="15" fill="#cad3c7">الحد الأعلى للنطاق المرصود</text>
</g>
<g data-overlay-type="structure" data-evidence-refs="ohlcv:2026-04-22:2026-05-19:range|ohlcv:2026-06-17:close" data-method="latest_close_vs_prior_20_session_range">
<rect x="1174" y="722" width="5" height="14" fill="#d8b15a" opacity=".8"/>
<text x="1160" y="734" text-anchor="end" direction="rtl" font-family="'Tajawal','Cairo','Segoe UI',Arial,sans-serif" font-size="15" fill="#cad3c7">الإغلاق ما زال داخل النطاق المرصود السابق</text>
</g>
<text x="1180" y="870" text-anchor="end" direction="rtl" font-family="'Tajawal','Cairo','Segoe UI',Arial,sans-serif" font-size="13" fill="#8d978f">المصدر: بيانات OHLCV اليومية من Yahoo · حتى 2026-06-17</text>
<text x="1180" y="890" text-anchor="end" direction="rtl" font-family="'Tajawal','Cairo','Segoe UI',Arial,sans-serif" font-size="12" fill="#5d675f">قراءة للبنية المرصودة، وليست توقعاً أو توصية</text>
</svg>
