<svg xmlns="http://www.w3.org/2000/svg" viewBox="0 0 1400 900" role="img" aria-label="XLP ETF observed structure" preserveAspectRatio="xMidYMid meet" data-series-hash="5a12f12c1e412aa8b70688d49725d9a04abafb7425d39f7beb1e4e438c8e0287" data-bar-count="90" data-overlay-count="3" data-time-axis="true" data-time-ticks="5" data-time-tick-dates="2026-02-09|2026-03-12|2026-04-15|2026-05-15|2026-06-17">
<rect width="1400" height="900" fill="#0b0e13"/>
<rect width="1400" height="3" fill="#d8b15a" opacity=".88"/>
<text x="92" y="52" text-anchor="start" font-family="'Inter','Segoe UI',Arial,sans-serif" font-size="18" font-weight="700" fill="#d8b15a">Institutional Price Structure</text>
<text x="92" y="96" text-anchor="start" font-family="'Inter','Segoe UI',Arial,sans-serif" font-size="34" font-weight="760" fill="#f4f7f1">XLP ETF observed structure</text>
<rect x="92" y="142" width="1216" height="480" rx="8" fill="#10151d" stroke="rgba(148,163,184,.2)"/>
<line x1="92" y1="622.0" x2="1308" y2="622.0" stroke="rgba(148,163,184,.12)"/>
<text x="1298" y="615.0" text-anchor="end" font-family="'Inter','Segoe UI',Arial,sans-serif" font-size="15" fill="#9aa49d">79.686</text>
<line x1="92" y1="526.0" x2="1308" y2="526.0" stroke="rgba(148,163,184,.12)"/>
<text x="1298" y="519.0" text-anchor="end" font-family="'Inter','Segoe UI',Arial,sans-serif" font-size="15" fill="#9aa49d">81.931</text>
<line x1="92" y1="430.0" x2="1308" y2="430.0" stroke="rgba(148,163,184,.12)"/>
<text x="1298" y="423.0" text-anchor="end" font-family="'Inter','Segoe UI',Arial,sans-serif" font-size="15" fill="#9aa49d">84.177</text>
<line x1="92" y1="334.0" x2="1308" y2="334.0" stroke="rgba(148,163,184,.12)"/>
<text x="1298" y="327.0" text-anchor="end" font-family="'Inter','Segoe UI',Arial,sans-serif" font-size="15" fill="#9aa49d">86.423</text>
<line x1="92" y1="238.0" x2="1308" y2="238.0" stroke="rgba(148,163,184,.12)"/>
<text x="1298" y="231.0" text-anchor="end" font-family="'Inter','Segoe UI',Arial,sans-serif" font-size="15" fill="#9aa49d">88.669</text>
<line x1="92" y1="142.0" x2="1308" y2="142.0" stroke="rgba(148,163,184,.12)"/>
<text x="1298" y="135.0" text-anchor="end" font-family="'Inter','Segoe UI',Arial,sans-serif" font-size="15" fill="#9aa49d">90.914</text>
<rect x="92" y="524.5" width="1216" height="20.8" fill="#6ee7d8" opacity=".09"/>
<line x1="92" y1="524.5" x2="1308" y2="524.5" stroke="#6ee7d8" stroke-width="1.2" opacity=".58"/>
<line x1="92" y1="545.3" x2="1308" y2="545.3" stroke="#6ee7d8" stroke-width="1.2" opacity=".58"/>
<rect x="92" y="337.1" width="1216" height="20.8" fill="#d8b15a" opacity=".09"/>
<line x1="92" y1="337.1" x2="1308" y2="337.1" stroke="#d8b15a" stroke-width="1.2" opacity=".58"/>
<line x1="92" y1="357.9" x2="1308" y2="357.9" stroke="#d8b15a" stroke-width="1.2" opacity=".58"/>
<polyline points="92.0,290.9 105.7,302.9 119.3,249.5 133.0,214.9 146.7,202.0 160.3,258.0 174.0,264.9 187.6,280.7 201.3,271.3 215.0,225.1 228.6,192.2 242.3,223.4 256.0,229.8 269.6,180.7 283.3,236.2 296.9,277.7 310.6,302.5 324.3,377.3 337.9,361.5 351.6,353.4 365.3,364.0 378.9,412.4 392.6,426.9 406.2,405.9 419.9,395.7 433.6,407.6 447.2,495.7 460.9,524.3 474.6,553.4 488.2,558.1 501.9,561.1 515.6,544.0 529.2,559.8 542.9,532.5 556.5,528.2 570.2,523.9 583.9,546.1 597.5,527.8 611.2,494.9 624.9,554.7 638.5,489.7 652.2,461.1 665.8,507.2 679.5,542.3 693.2,545.7 706.8,563.2 720.5,547.4 734.2,503.4 747.8,506.4 761.5,529.9 775.1,518.4 788.8,459.8 802.5,470.5 816.1,508.5 829.8,476.9 843.5,483.7 857.1,424.3 870.8,430.3 884.4,457.2 898.1,435.0 911.8,427.3 925.4,438.4 939.1,429.9 952.8,464.5 966.4,418.8 980.1,406.8 993.8,395.7 1007.4,410.2 1021.1,356.4 1034.7,348.2 1048.4,372.6 1062.1,409.4 1075.7,403.4 1089.4,453.4 1103.1,412.8 1116.7,419.2 1130.4,484.2 1144.0,521.8 1157.7,530.3 1171.4,516.2 1185.0,521.4 1198.7,461.5 1212.4,477.3 1226.0,433.3 1239.7,373.9 1253.3,383.3 1267.0,359.8 1280.7,374.3 1294.3,369.6 1308.0,451.3" fill="none" stroke="#d9e2dc" stroke-width="3" stroke-linejoin="round" stroke-linecap="round"/>
<circle cx="1308.0" cy="451.3" r="5.5" fill="#f2d27b"/>
<line x1="92.0" y1="622" x2="92.0" y2="630" stroke="#69746d" stroke-width="1"/>
<text x="92.0" y="652" text-anchor="start" font-family="'Inter','Segoe UI',Arial,sans-serif" font-size="14" fill="#9aa49d">Feb 9, 2026</text>
<line x1="392.6" y1="622" x2="392.6" y2="630" stroke="#69746d" stroke-width="1"/>
<text x="392.6" y="652" text-anchor="middle" font-family="'Inter','Segoe UI',Arial,sans-serif" font-size="14" fill="#9aa49d">Mar 12, 2026</text>
<line x1="706.8" y1="622" x2="706.8" y2="630" stroke="#69746d" stroke-width="1"/>
<text x="706.8" y="652" text-anchor="middle" font-family="'Inter','Segoe UI',Arial,sans-serif" font-size="14" fill="#9aa49d">Apr 15, 2026</text>
<line x1="1007.4" y1="622" x2="1007.4" y2="630" stroke="#69746d" stroke-width="1"/>
<text x="1007.4" y="652" text-anchor="middle" font-family="'Inter','Segoe UI',Arial,sans-serif" font-size="14" fill="#9aa49d">May 15, 2026</text>
<line x1="1308.0" y1="622" x2="1308.0" y2="630" stroke="#69746d" stroke-width="1"/>
<text x="1308.0" y="652" text-anchor="end" font-family="'Inter','Segoe UI',Arial,sans-serif" font-size="14" fill="#9aa49d">Jun 17, 2026</text>
<g data-overlay-type="support_resistance_zone" data-evidence-refs="ohlcv:2026-05-20:2026-06-17:low" data-zone-type="support_resistance_zone" data-zone-role="floor" data-lower="81.4800033569336" data-upper="81.96700286865234" data-method="20_session_extreme_atr_band">
<rect x="92" y="678" width="5" height="14" fill="#d8b15a" opacity=".8"/>
<text x="108" y="690" text-anchor="start" font-family="'Inter','Segoe UI',Arial,sans-serif" font-size="15" fill="#cad3c7">Observed range floor</text>
</g>
<g data-overlay-type="support_resistance_zone" data-evidence-refs="ohlcv:2026-05-20:2026-06-17:high" data-zone-type="support_resistance_zone" data-zone-role="ceiling" data-lower="85.86299896240234" data-upper="86.3499984741211" data-method="20_session_extreme_atr_band">
<rect x="92" y="700" width="5" height="14" fill="#d8b15a" opacity=".8"/>
<text x="108" y="712" text-anchor="start" font-family="'Inter','Segoe UI',Arial,sans-serif" font-size="15" fill="#cad3c7">Observed range ceiling</text>
</g>
<g data-overlay-type="structure" data-evidence-refs="ohlcv:2026-04-22:2026-05-19:range|ohlcv:2026-06-17:close" data-method="latest_close_vs_prior_20_session_range">
<rect x="92" y="722" width="5" height="14" fill="#d8b15a" opacity=".8"/>
<text x="108" y="734" text-anchor="start" font-family="'Inter','Segoe UI',Arial,sans-serif" font-size="15" fill="#cad3c7">Close remains inside prior observed range</text>
</g>
<text x="92" y="870" text-anchor="start" font-family="'Inter','Segoe UI',Arial,sans-serif" font-size="13" fill="#8d978f">Source: Yahoo daily OHLCV · As of 2026-06-17</text>
<text x="92" y="890" text-anchor="start" font-family="'Inter','Segoe UI',Arial,sans-serif" font-size="12" fill="#5d675f">Observed market structure, not a forecast or recommendation</text>
</svg>
