<svg xmlns="http://www.w3.org/2000/svg" viewBox="0 0 1400 900" role="img" aria-label="XLRE ETF observed structure" preserveAspectRatio="xMidYMid meet" data-series-hash="b8e442069ca05db898ed654d9fd5c4b27040f9f7c39b4a13dd2edae832f5b1fc" data-bar-count="90" data-overlay-count="3" data-time-axis="true" data-time-ticks="5" data-time-tick-dates="2026-02-09|2026-03-12|2026-04-15|2026-05-15|2026-06-17">
<rect width="1400" height="900" fill="#0b0e13"/>
<rect width="1400" height="3" fill="#d8b15a" opacity=".88"/>
<text x="92" y="52" text-anchor="start" font-family="'Inter','Segoe UI',Arial,sans-serif" font-size="18" font-weight="700" fill="#d8b15a">Institutional Price Structure</text>
<text x="92" y="96" text-anchor="start" font-family="'Inter','Segoe UI',Arial,sans-serif" font-size="34" font-weight="760" fill="#f4f7f1">XLRE ETF observed structure</text>
<rect x="92" y="142" width="1216" height="480" rx="8" fill="#10151d" stroke="rgba(148,163,184,.2)"/>
<line x1="92" y1="622.0" x2="1308" y2="622.0" stroke="rgba(148,163,184,.12)"/>
<text x="1298" y="615.0" text-anchor="end" font-family="'Inter','Segoe UI',Arial,sans-serif" font-size="15" fill="#9aa49d">39.483</text>
<line x1="92" y1="526.0" x2="1308" y2="526.0" stroke="rgba(148,163,184,.12)"/>
<text x="1298" y="519.0" text-anchor="end" font-family="'Inter','Segoe UI',Arial,sans-serif" font-size="15" fill="#9aa49d">40.808</text>
<line x1="92" y1="430.0" x2="1308" y2="430.0" stroke="rgba(148,163,184,.12)"/>
<text x="1298" y="423.0" text-anchor="end" font-family="'Inter','Segoe UI',Arial,sans-serif" font-size="15" fill="#9aa49d">42.133</text>
<line x1="92" y1="334.0" x2="1308" y2="334.0" stroke="rgba(148,163,184,.12)"/>
<text x="1298" y="327.0" text-anchor="end" font-family="'Inter','Segoe UI',Arial,sans-serif" font-size="15" fill="#9aa49d">43.457</text>
<line x1="92" y1="238.0" x2="1308" y2="238.0" stroke="rgba(148,163,184,.12)"/>
<text x="1298" y="231.0" text-anchor="end" font-family="'Inter','Segoe UI',Arial,sans-serif" font-size="15" fill="#9aa49d">44.782</text>
<line x1="92" y1="142.0" x2="1308" y2="142.0" stroke="rgba(148,163,184,.12)"/>
<text x="1298" y="135.0" text-anchor="end" font-family="'Inter','Segoe UI',Arial,sans-serif" font-size="15" fill="#9aa49d">46.107</text>
<rect x="92" y="343.0" width="1216" height="18.7" fill="#6ee7d8" opacity=".09"/>
<line x1="92" y1="343.0" x2="1308" y2="343.0" stroke="#6ee7d8" stroke-width="1.2" opacity=".58"/>
<line x1="92" y1="361.7" x2="1308" y2="361.7" stroke="#6ee7d8" stroke-width="1.2" opacity=".58"/>
<rect x="92" y="175.1" width="1216" height="18.7" fill="#d8b15a" opacity=".09"/>
<line x1="92" y1="175.1" x2="1308" y2="175.1" stroke="#d8b15a" stroke-width="1.2" opacity=".58"/>
<line x1="92" y1="193.8" x2="1308" y2="193.8" stroke="#d8b15a" stroke-width="1.2" opacity=".58"/>
<polyline points="92.0,421.5 105.7,378.7 119.3,381.6 133.0,376.6 146.7,330.9 160.3,299.0 174.0,341.8 187.6,352.7 201.3,326.6 215.0,322.9 228.6,314.2 242.3,335.3 256.0,321.5 269.6,306.3 283.3,300.5 296.9,316.4 310.6,312.1 324.3,342.5 337.9,375.1 351.6,368.6 365.3,372.9 378.9,409.9 392.6,429.5 406.2,421.5 419.9,397.6 433.6,387.4 447.2,438.2 460.9,445.4 474.6,541.8 488.2,539.6 501.9,563.5 515.6,565.0 529.2,563.5 542.9,583.8 556.5,569.3 570.2,524.4 583.9,515.7 597.5,467.9 611.2,457.0 624.9,459.9 638.5,407.7 652.2,386.7 665.8,380.2 679.5,365.7 693.2,336.0 706.8,337.4 720.5,308.4 734.2,259.9 747.8,248.3 761.5,310.6 775.1,333.8 788.8,297.6 802.5,307.0 816.1,331.6 829.8,301.2 843.5,320.8 857.1,265.7 870.8,271.5 884.4,288.9 898.1,282.4 911.8,241.0 925.4,265.7 939.1,265.0 952.8,253.4 966.4,252.6 980.1,279.5 993.8,301.2 1007.4,350.5 1021.1,312.8 1034.7,299.0 1048.4,263.5 1062.1,258.4 1075.7,254.1 1089.4,243.2 1103.1,249.0 1116.7,265.0 1130.4,295.4 1144.0,347.6 1157.7,331.6 1171.4,330.2 1185.0,265.7 1198.7,243.9 1212.4,292.5 1226.0,224.4 1239.7,222.9 1253.3,228.0 1267.0,196.1 1280.7,222.9 1294.3,215.0 1308.0,296.8" fill="none" stroke="#d9e2dc" stroke-width="3" stroke-linejoin="round" stroke-linecap="round"/>
<circle cx="1308.0" cy="296.8" r="5.5" fill="#f2d27b"/>
<line x1="92.0" y1="622" x2="92.0" y2="630" stroke="#69746d" stroke-width="1"/>
<text x="92.0" y="652" text-anchor="start" font-family="'Inter','Segoe UI',Arial,sans-serif" font-size="14" fill="#9aa49d">Feb 9, 2026</text>
<line x1="392.6" y1="622" x2="392.6" y2="630" stroke="#69746d" stroke-width="1"/>
<text x="392.6" y="652" text-anchor="middle" font-family="'Inter','Segoe UI',Arial,sans-serif" font-size="14" fill="#9aa49d">Mar 12, 2026</text>
<line x1="706.8" y1="622" x2="706.8" y2="630" stroke="#69746d" stroke-width="1"/>
<text x="706.8" y="652" text-anchor="middle" font-family="'Inter','Segoe UI',Arial,sans-serif" font-size="14" fill="#9aa49d">Apr 15, 2026</text>
<line x1="1007.4" y1="622" x2="1007.4" y2="630" stroke="#69746d" stroke-width="1"/>
<text x="1007.4" y="652" text-anchor="middle" font-family="'Inter','Segoe UI',Arial,sans-serif" font-size="14" fill="#9aa49d">May 15, 2026</text>
<line x1="1308.0" y1="622" x2="1308.0" y2="630" stroke="#69746d" stroke-width="1"/>
<text x="1308.0" y="652" text-anchor="end" font-family="'Inter','Segoe UI',Arial,sans-serif" font-size="14" fill="#9aa49d">Jun 17, 2026</text>
<g data-overlay-type="support_resistance_zone" data-evidence-refs="ohlcv:2026-05-20:2026-06-17:low" data-zone-type="support_resistance_zone" data-zone-role="floor" data-lower="43.07500076293945" data-upper="43.3325008392334" data-method="20_session_extreme_atr_band">
<rect x="92" y="678" width="5" height="14" fill="#d8b15a" opacity=".8"/>
<text x="108" y="690" text-anchor="start" font-family="'Inter','Segoe UI',Arial,sans-serif" font-size="15" fill="#cad3c7">Observed range floor</text>
</g>
<g data-overlay-type="support_resistance_zone" data-evidence-refs="ohlcv:2026-05-20:2026-06-17:high" data-zone-type="support_resistance_zone" data-zone-role="ceiling" data-lower="45.39250144958496" data-upper="45.650001525878906" data-method="20_session_extreme_atr_band">
<rect x="92" y="700" width="5" height="14" fill="#d8b15a" opacity=".8"/>
<text x="108" y="712" text-anchor="start" font-family="'Inter','Segoe UI',Arial,sans-serif" font-size="15" fill="#cad3c7">Observed range ceiling</text>
</g>
<g data-overlay-type="structure" data-evidence-refs="ohlcv:2026-04-22:2026-05-19:range|ohlcv:2026-06-17:close" data-method="latest_close_vs_prior_20_session_range">
<rect x="92" y="722" width="5" height="14" fill="#d8b15a" opacity=".8"/>
<text x="108" y="734" text-anchor="start" font-family="'Inter','Segoe UI',Arial,sans-serif" font-size="15" fill="#cad3c7">Close remains inside prior observed range</text>
</g>
<text x="92" y="870" text-anchor="start" font-family="'Inter','Segoe UI',Arial,sans-serif" font-size="13" fill="#8d978f">Source: Yahoo daily OHLCV · As of 2026-06-17</text>
<text x="92" y="890" text-anchor="start" font-family="'Inter','Segoe UI',Arial,sans-serif" font-size="12" fill="#5d675f">Observed market structure, not a forecast or recommendation</text>
</svg>
