<svg xmlns="http://www.w3.org/2000/svg" viewBox="0 0 1400 900" role="img" aria-label="XLU ETF observed structure" preserveAspectRatio="xMidYMid meet" data-series-hash="cf11d4c8f4a3666bf938d8dccb6d716d045a24818ec74bb29e0bc47f16d6036b" data-bar-count="90" data-overlay-count="3" data-time-axis="true" data-time-ticks="5" data-time-tick-dates="2026-02-10|2026-03-13|2026-04-16|2026-05-18|2026-06-18">
<rect width="1400" height="900" fill="#0b0e13"/>
<rect width="1400" height="3" fill="#d8b15a" opacity=".88"/>
<text x="92" y="52" text-anchor="start" font-family="'Inter','Segoe UI',Arial,sans-serif" font-size="18" font-weight="700" fill="#d8b15a">Institutional Price Structure</text>
<text x="92" y="96" text-anchor="start" font-family="'Inter','Segoe UI',Arial,sans-serif" font-size="34" font-weight="760" fill="#f4f7f1">XLU ETF observed structure</text>
<rect x="92" y="142" width="1216" height="480" rx="8" fill="#10151d" stroke="rgba(148,163,184,.2)"/>
<line x1="92" y1="622.0" x2="1308" y2="622.0" stroke="rgba(148,163,184,.12)"/>
<text x="1298" y="615.0" text-anchor="end" font-family="'Inter','Segoe UI',Arial,sans-serif" font-size="15" fill="#9aa49d">42.692</text>
<line x1="92" y1="526.0" x2="1308" y2="526.0" stroke="rgba(148,163,184,.12)"/>
<text x="1298" y="519.0" text-anchor="end" font-family="'Inter','Segoe UI',Arial,sans-serif" font-size="15" fill="#9aa49d">43.789</text>
<line x1="92" y1="430.0" x2="1308" y2="430.0" stroke="rgba(148,163,184,.12)"/>
<text x="1298" y="423.0" text-anchor="end" font-family="'Inter','Segoe UI',Arial,sans-serif" font-size="15" fill="#9aa49d">44.886</text>
<line x1="92" y1="334.0" x2="1308" y2="334.0" stroke="rgba(148,163,184,.12)"/>
<text x="1298" y="327.0" text-anchor="end" font-family="'Inter','Segoe UI',Arial,sans-serif" font-size="15" fill="#9aa49d">45.984</text>
<line x1="92" y1="238.0" x2="1308" y2="238.0" stroke="rgba(148,163,184,.12)"/>
<text x="1298" y="231.0" text-anchor="end" font-family="'Inter','Segoe UI',Arial,sans-serif" font-size="15" fill="#9aa49d">47.081</text>
<line x1="92" y1="142.0" x2="1308" y2="142.0" stroke="rgba(148,163,184,.12)"/>
<text x="1298" y="135.0" text-anchor="end" font-family="'Inter','Segoe UI',Arial,sans-serif" font-size="15" fill="#9aa49d">48.178</text>
<rect x="92" y="566.4" width="1216" height="22.5" fill="#6ee7d8" opacity=".09"/>
<line x1="92" y1="566.4" x2="1308" y2="566.4" stroke="#6ee7d8" stroke-width="1.2" opacity=".58"/>
<line x1="92" y1="588.9" x2="1308" y2="588.9" stroke="#6ee7d8" stroke-width="1.2" opacity=".58"/>
<rect x="92" y="364.1" width="1216" height="22.5" fill="#d8b15a" opacity=".09"/>
<line x1="92" y1="364.1" x2="1308" y2="364.1" stroke="#d8b15a" stroke-width="1.2" opacity=".58"/>
<line x1="92" y1="386.5" x2="1308" y2="386.5" stroke="#d8b15a" stroke-width="1.2" opacity=".58"/>
<polyline points="92.0,490.0 105.7,455.9 119.3,398.2 133.0,288.8 146.7,299.3 160.3,366.7 174.0,322.9 187.6,303.7 201.3,273.1 215.0,227.6 228.6,213.6 242.3,229.3 256.0,181.2 269.6,212.7 283.3,239.0 296.9,221.5 310.6,253.8 324.3,267.8 337.9,258.2 351.6,283.6 365.3,317.7 378.9,288.8 392.6,248.6 406.2,222.3 419.9,233.7 433.6,268.7 447.2,285.3 460.9,450.7 474.6,439.3 488.2,412.2 501.9,398.2 515.6,391.2 529.2,368.4 542.9,339.6 556.5,342.2 570.2,322.9 583.9,302.8 597.5,317.7 611.2,309.0 624.9,264.3 638.5,232.0 652.2,248.6 665.8,298.5 679.5,291.5 693.2,330.8 706.8,302.0 720.5,318.6 734.2,354.4 747.8,424.4 761.5,431.4 775.1,324.7 788.8,316.8 802.5,316.0 816.1,310.7 829.8,360.6 843.5,258.2 857.1,284.5 870.8,300.2 884.4,300.2 898.1,357.9 911.8,409.6 925.4,444.5 939.1,407.8 952.8,403.4 966.4,448.9 980.1,428.8 993.8,518.9 1007.4,512.8 1021.1,477.8 1034.7,462.9 1048.4,420.1 1062.1,389.4 1075.7,391.2 1089.4,407.8 1103.1,452.4 1116.7,470.8 1130.4,586.3 1144.0,516.3 1157.7,532.9 1171.4,512.8 1185.0,476.9 1198.7,549.5 1212.4,509.3 1226.0,507.5 1239.7,503.2 1253.3,461.2 1267.0,442.8 1280.7,414.8 1294.3,467.3 1308.0,441.1" fill="none" stroke="#d9e2dc" stroke-width="3" stroke-linejoin="round" stroke-linecap="round"/>
<circle cx="1308.0" cy="441.1" r="5.5" fill="#f2d27b"/>
<line x1="92.0" y1="622" x2="92.0" y2="630" stroke="#69746d" stroke-width="1"/>
<text x="92.0" y="652" text-anchor="start" font-family="'Inter','Segoe UI',Arial,sans-serif" font-size="14" fill="#9aa49d">Feb 10, 2026</text>
<line x1="392.6" y1="622" x2="392.6" y2="630" stroke="#69746d" stroke-width="1"/>
<text x="392.6" y="652" text-anchor="middle" font-family="'Inter','Segoe UI',Arial,sans-serif" font-size="14" fill="#9aa49d">Mar 13, 2026</text>
<line x1="706.8" y1="622" x2="706.8" y2="630" stroke="#69746d" stroke-width="1"/>
<text x="706.8" y="652" text-anchor="middle" font-family="'Inter','Segoe UI',Arial,sans-serif" font-size="14" fill="#9aa49d">Apr 16, 2026</text>
<line x1="1007.4" y1="622" x2="1007.4" y2="630" stroke="#69746d" stroke-width="1"/>
<text x="1007.4" y="652" text-anchor="middle" font-family="'Inter','Segoe UI',Arial,sans-serif" font-size="14" fill="#9aa49d">May 18, 2026</text>
<line x1="1308.0" y1="622" x2="1308.0" y2="630" stroke="#69746d" stroke-width="1"/>
<text x="1308.0" y="652" text-anchor="end" font-family="'Inter','Segoe UI',Arial,sans-serif" font-size="14" fill="#9aa49d">Jun 18, 2026</text>
<g data-overlay-type="support_resistance_zone" data-evidence-refs="ohlcv:2026-05-21:2026-06-18:low" data-zone-type="support_resistance_zone" data-zone-role="floor" data-lower="43.06999969482422" data-upper="43.32699966430664" data-method="20_session_extreme_atr_band">
<rect x="92" y="678" width="5" height="14" fill="#d8b15a" opacity=".8"/>
<text x="108" y="690" text-anchor="start" font-family="'Inter','Segoe UI',Arial,sans-serif" font-size="15" fill="#cad3c7">Observed range floor</text>
</g>
<g data-overlay-type="support_resistance_zone" data-evidence-refs="ohlcv:2026-05-21:2026-06-18:high" data-zone-type="support_resistance_zone" data-zone-role="ceiling" data-lower="45.382999420166016" data-upper="45.63999938964844" data-method="20_session_extreme_atr_band">
<rect x="92" y="700" width="5" height="14" fill="#d8b15a" opacity=".8"/>
<text x="108" y="712" text-anchor="start" font-family="'Inter','Segoe UI',Arial,sans-serif" font-size="15" fill="#cad3c7">Observed range ceiling</text>
</g>
<g data-overlay-type="structure" data-evidence-refs="ohlcv:2026-04-23:2026-05-20:range|ohlcv:2026-06-18:close" data-method="latest_close_vs_prior_20_session_range">
<rect x="92" y="722" width="5" height="14" fill="#d8b15a" opacity=".8"/>
<text x="108" y="734" text-anchor="start" font-family="'Inter','Segoe UI',Arial,sans-serif" font-size="15" fill="#cad3c7">Close remains inside prior observed range</text>
</g>
<text x="92" y="870" text-anchor="start" font-family="'Inter','Segoe UI',Arial,sans-serif" font-size="13" fill="#8d978f">Source: Yahoo daily OHLCV · As of 2026-06-18</text>
<text x="92" y="890" text-anchor="start" font-family="'Inter','Segoe UI',Arial,sans-serif" font-size="12" fill="#5d675f">Observed market structure, not a forecast or recommendation</text>
</svg>
