<svg xmlns="http://www.w3.org/2000/svg" viewBox="0 0 1400 900" role="img" aria-label="XLV ETF observed structure" preserveAspectRatio="xMidYMid meet" data-series-hash="28eb0ee8d72ef536a20e0b46737c014b22485e701780407714a41ca70449a95b" data-bar-count="90" data-overlay-count="3" data-time-axis="true" data-time-ticks="5" data-time-tick-dates="2026-02-10|2026-03-13|2026-04-16|2026-05-18|2026-06-18">
<rect width="1400" height="900" fill="#0b0e13"/>
<rect width="1400" height="3" fill="#d8b15a" opacity=".88"/>
<text x="92" y="52" text-anchor="start" font-family="'Inter','Segoe UI',Arial,sans-serif" font-size="18" font-weight="700" fill="#d8b15a">Institutional Price Structure</text>
<text x="92" y="96" text-anchor="start" font-family="'Inter','Segoe UI',Arial,sans-serif" font-size="34" font-weight="760" fill="#f4f7f1">XLV ETF observed structure</text>
<rect x="92" y="142" width="1216" height="480" rx="8" fill="#10151d" stroke="rgba(148,163,184,.2)"/>
<line x1="92" y1="622.0" x2="1308" y2="622.0" stroke="rgba(148,163,184,.12)"/>
<text x="1298" y="615.0" text-anchor="end" font-family="'Inter','Segoe UI',Arial,sans-serif" font-size="15" fill="#9aa49d">140.51</text>
<line x1="92" y1="526.0" x2="1308" y2="526.0" stroke="rgba(148,163,184,.12)"/>
<text x="1298" y="519.0" text-anchor="end" font-family="'Inter','Segoe UI',Arial,sans-serif" font-size="15" fill="#9aa49d">144.75</text>
<line x1="92" y1="430.0" x2="1308" y2="430.0" stroke="rgba(148,163,184,.12)"/>
<text x="1298" y="423.0" text-anchor="end" font-family="'Inter','Segoe UI',Arial,sans-serif" font-size="15" fill="#9aa49d">148.99</text>
<line x1="92" y1="334.0" x2="1308" y2="334.0" stroke="rgba(148,163,184,.12)"/>
<text x="1298" y="327.0" text-anchor="end" font-family="'Inter','Segoe UI',Arial,sans-serif" font-size="15" fill="#9aa49d">153.22</text>
<line x1="92" y1="238.0" x2="1308" y2="238.0" stroke="rgba(148,163,184,.12)"/>
<text x="1298" y="231.0" text-anchor="end" font-family="'Inter','Segoe UI',Arial,sans-serif" font-size="15" fill="#9aa49d">157.46</text>
<line x1="92" y1="142.0" x2="1308" y2="142.0" stroke="rgba(148,163,184,.12)"/>
<text x="1298" y="135.0" text-anchor="end" font-family="'Inter','Segoe UI',Arial,sans-serif" font-size="15" fill="#9aa49d">161.70</text>
<rect x="92" y="490.9" width="1216" height="22.3" fill="#6ee7d8" opacity=".09"/>
<line x1="92" y1="490.9" x2="1308" y2="490.9" stroke="#6ee7d8" stroke-width="1.2" opacity=".58"/>
<line x1="92" y1="513.2" x2="1308" y2="513.2" stroke="#6ee7d8" stroke-width="1.2" opacity=".58"/>
<rect x="92" y="290.2" width="1216" height="22.3" fill="#d8b15a" opacity=".09"/>
<line x1="92" y1="290.2" x2="1308" y2="290.2" stroke="#d8b15a" stroke-width="1.2" opacity=".58"/>
<line x1="92" y1="312.5" x2="1308" y2="312.5" stroke="#d8b15a" stroke-width="1.2" opacity=".58"/>
<polyline points="92.0,286.3 105.7,265.5 119.3,271.1 133.0,233.3 146.7,240.1 160.3,233.3 174.0,242.6 187.6,252.6 201.3,213.6 215.0,228.8 228.6,229.7 242.3,239.0 256.0,176.0 269.6,213.8 283.3,254.4 296.9,247.4 310.6,318.5 324.3,345.9 337.9,310.5 351.6,335.7 365.3,342.5 378.9,403.4 392.6,411.8 406.2,384.2 419.9,415.2 433.6,471.8 447.2,483.8 460.9,512.8 474.6,525.5 488.2,525.0 501.9,492.2 515.6,503.5 529.2,559.7 542.9,547.0 556.5,483.8 570.2,458.4 583.9,479.3 597.5,491.3 611.2,484.7 624.9,414.5 638.5,422.2 652.2,468.0 665.8,453.0 679.5,433.5 693.2,457.5 706.8,483.8 720.5,434.2 734.2,465.5 747.8,499.4 761.5,489.0 775.1,492.2 788.8,538.8 802.5,555.1 816.1,546.5 829.8,569.2 843.5,497.8 857.1,516.6 870.8,526.4 884.4,513.5 898.1,511.2 911.8,526.6 925.4,554.5 939.1,564.7 952.8,501.0 966.4,481.5 980.1,483.4 993.8,518.0 1007.4,504.0 1021.1,467.7 1034.7,472.0 1048.4,448.9 1062.1,409.5 1075.7,440.8 1089.4,434.4 1103.1,387.1 1116.7,419.0 1130.4,455.9 1144.0,488.6 1157.7,462.5 1171.4,359.9 1185.0,338.9 1198.7,347.0 1212.4,303.5 1226.0,342.5 1239.7,314.4 1253.3,320.7 1267.0,341.6 1280.7,340.4 1294.3,390.9 1308.0,420.6" fill="none" stroke="#d9e2dc" stroke-width="3" stroke-linejoin="round" stroke-linecap="round"/>
<circle cx="1308.0" cy="420.6" r="5.5" fill="#f2d27b"/>
<line x1="92.0" y1="622" x2="92.0" y2="630" stroke="#69746d" stroke-width="1"/>
<text x="92.0" y="652" text-anchor="start" font-family="'Inter','Segoe UI',Arial,sans-serif" font-size="14" fill="#9aa49d">Feb 10, 2026</text>
<line x1="392.6" y1="622" x2="392.6" y2="630" stroke="#69746d" stroke-width="1"/>
<text x="392.6" y="652" text-anchor="middle" font-family="'Inter','Segoe UI',Arial,sans-serif" font-size="14" fill="#9aa49d">Mar 13, 2026</text>
<line x1="706.8" y1="622" x2="706.8" y2="630" stroke="#69746d" stroke-width="1"/>
<text x="706.8" y="652" text-anchor="middle" font-family="'Inter','Segoe UI',Arial,sans-serif" font-size="14" fill="#9aa49d">Apr 16, 2026</text>
<line x1="1007.4" y1="622" x2="1007.4" y2="630" stroke="#69746d" stroke-width="1"/>
<text x="1007.4" y="652" text-anchor="middle" font-family="'Inter','Segoe UI',Arial,sans-serif" font-size="14" fill="#9aa49d">May 18, 2026</text>
<line x1="1308.0" y1="622" x2="1308.0" y2="630" stroke="#69746d" stroke-width="1"/>
<text x="1308.0" y="652" text-anchor="end" font-family="'Inter','Segoe UI',Arial,sans-serif" font-size="14" fill="#9aa49d">Jun 18, 2026</text>
<g data-overlay-type="support_resistance_zone" data-evidence-refs="ohlcv:2026-05-21:2026-06-18:low" data-zone-type="support_resistance_zone" data-zone-role="floor" data-lower="145.30999755859375" data-upper="146.2949981689453" data-method="20_session_extreme_atr_band">
<rect x="92" y="678" width="5" height="14" fill="#d8b15a" opacity=".8"/>
<text x="108" y="690" text-anchor="start" font-family="'Inter','Segoe UI',Arial,sans-serif" font-size="15" fill="#cad3c7">Observed range floor</text>
</g>
<g data-overlay-type="support_resistance_zone" data-evidence-refs="ohlcv:2026-05-21:2026-06-18:high" data-zone-type="support_resistance_zone" data-zone-role="ceiling" data-lower="154.1750030517578" data-upper="155.16000366210938" data-method="20_session_extreme_atr_band">
<rect x="92" y="700" width="5" height="14" fill="#d8b15a" opacity=".8"/>
<text x="108" y="712" text-anchor="start" font-family="'Inter','Segoe UI',Arial,sans-serif" font-size="15" fill="#cad3c7">Observed range ceiling</text>
</g>
<g data-overlay-type="structure" data-evidence-refs="ohlcv:2026-04-23:2026-05-20:range|ohlcv:2026-06-18:close" data-method="latest_close_vs_prior_20_session_range">
<rect x="92" y="722" width="5" height="14" fill="#d8b15a" opacity=".8"/>
<text x="108" y="734" text-anchor="start" font-family="'Inter','Segoe UI',Arial,sans-serif" font-size="15" fill="#cad3c7">Close above prior observed range</text>
</g>
<text x="92" y="870" text-anchor="start" font-family="'Inter','Segoe UI',Arial,sans-serif" font-size="13" fill="#8d978f">Source: Yahoo daily OHLCV · As of 2026-06-18</text>
<text x="92" y="890" text-anchor="start" font-family="'Inter','Segoe UI',Arial,sans-serif" font-size="12" fill="#5d675f">Observed market structure, not a forecast or recommendation</text>
</svg>
