<svg xmlns="http://www.w3.org/2000/svg" viewBox="0 0 1400 900" role="img" aria-label="البنية المرصودة لصندوق XLY" preserveAspectRatio="xMidYMid meet" direction="rtl" data-series-hash="02d5f80f05b9172d6b6fd293e122d5b0ee5a8e29a2b1537341e9e47e5e29e9ee" data-bar-count="90" data-overlay-count="3" data-time-axis="true" data-time-ticks="5" data-time-tick-dates="2026-02-09|2026-03-12|2026-04-15|2026-05-15|2026-06-17">
<rect width="1400" height="900" fill="#0b0e13"/>
<rect width="1400" height="3" fill="#d8b15a" opacity=".88"/>
<text x="1180" y="52" text-anchor="end" direction="rtl" font-family="'Tajawal','Cairo','Segoe UI',Arial,sans-serif" font-size="18" font-weight="700" fill="#d8b15a">البنية السعرية المؤسسية</text>
<text x="1180" y="96" text-anchor="end" direction="rtl" font-family="'Tajawal','Cairo','Segoe UI',Arial,sans-serif" font-size="34" font-weight="760" fill="#f4f7f1">البنية المرصودة لصندوق XLY</text>
<rect x="92" y="142" width="1088" height="480" rx="8" fill="#10151d" stroke="rgba(148,163,184,.2)"/>
<line x1="92" y1="622.0" x2="1180" y2="622.0" stroke="rgba(148,163,184,.12)"/>
<text x="1170" y="615.0" text-anchor="end" font-family="'Inter','Segoe UI',Arial,sans-serif" font-size="15" fill="#9aa49d">103.83</text>
<line x1="92" y1="526.0" x2="1180" y2="526.0" stroke="rgba(148,163,184,.12)"/>
<text x="1170" y="519.0" text-anchor="end" font-family="'Inter','Segoe UI',Arial,sans-serif" font-size="15" fill="#9aa49d">107.77</text>
<line x1="92" y1="430.0" x2="1180" y2="430.0" stroke="rgba(148,163,184,.12)"/>
<text x="1170" y="423.0" text-anchor="end" font-family="'Inter','Segoe UI',Arial,sans-serif" font-size="15" fill="#9aa49d">111.72</text>
<line x1="92" y1="334.0" x2="1180" y2="334.0" stroke="rgba(148,163,184,.12)"/>
<text x="1170" y="327.0" text-anchor="end" font-family="'Inter','Segoe UI',Arial,sans-serif" font-size="15" fill="#9aa49d">115.66</text>
<line x1="92" y1="238.0" x2="1180" y2="238.0" stroke="rgba(148,163,184,.12)"/>
<text x="1170" y="231.0" text-anchor="end" font-family="'Inter','Segoe UI',Arial,sans-serif" font-size="15" fill="#9aa49d">119.61</text>
<line x1="92" y1="142.0" x2="1180" y2="142.0" stroke="rgba(148,163,184,.12)"/>
<text x="1170" y="135.0" text-anchor="end" font-family="'Inter','Segoe UI',Arial,sans-serif" font-size="15" fill="#9aa49d">123.55</text>
<rect x="92" y="368.1" width="1088" height="21.4" fill="#6ee7d8" opacity=".09"/>
<line x1="92" y1="368.1" x2="1180" y2="368.1" stroke="#6ee7d8" stroke-width="1.2" opacity=".58"/>
<line x1="92" y1="389.5" x2="1180" y2="389.5" stroke="#6ee7d8" stroke-width="1.2" opacity=".58"/>
<rect x="92" y="175.1" width="1088" height="21.4" fill="#d8b15a" opacity=".09"/>
<line x1="92" y1="175.1" x2="1180" y2="175.1" stroke="#d8b15a" stroke-width="1.2" opacity=".58"/>
<line x1="92" y1="196.5" x2="1180" y2="196.5" stroke="#d8b15a" stroke-width="1.2" opacity=".58"/>
<polyline points="92.0,288.0 104.2,269.1 116.4,282.9 128.7,322.6 140.9,321.4 153.1,324.8 165.3,300.9 177.6,319.9 189.8,290.5 202.0,350.4 214.2,307.8 226.5,299.2 238.7,300.2 250.9,304.8 263.1,339.9 275.4,365.7 287.6,316.3 299.8,312.4 312.0,363.7 324.3,360.1 336.5,363.7 348.7,371.0 360.9,434.8 373.2,450.9 385.4,418.3 397.6,394.4 409.8,457.9 422.1,479.1 434.3,526.8 446.5,468.9 458.7,479.6 471.0,454.0 483.2,500.3 495.4,577.0 507.6,577.5 519.9,496.6 532.1,476.7 544.3,516.8 556.5,495.2 568.8,526.1 581.0,451.9 593.2,405.1 605.4,401.5 617.7,376.4 629.9,315.1 642.1,272.7 654.3,286.1 666.6,218.4 678.8,231.6 691.0,253.5 703.2,254.5 715.5,283.4 727.7,260.3 739.9,281.0 752.1,301.2 764.4,305.3 776.6,268.6 788.8,261.8 801.0,283.9 813.3,275.4 825.5,231.6 837.7,231.3 849.9,223.5 862.2,243.7 874.4,270.0 886.6,259.6 898.8,260.8 911.1,312.9 923.3,318.0 935.5,349.4 947.7,278.6 960.0,260.1 972.2,248.4 984.4,241.8 996.6,190.7 1008.9,178.3 1021.1,207.2 1033.3,272.5 1045.5,287.1 1057.8,308.0 1070.0,295.1 1082.2,353.5 1094.4,340.6 1106.7,328.9 1118.9,386.9 1131.1,318.5 1143.3,311.2 1155.6,263.2 1167.8,265.9 1180.0,338.2" fill="none" stroke="#d9e2dc" stroke-width="3" stroke-linejoin="round" stroke-linecap="round"/>
<circle cx="1180.0" cy="338.2" r="5.5" fill="#f2d27b"/>
<line x1="92.0" y1="622" x2="92.0" y2="630" stroke="#69746d" stroke-width="1"/>
<text x="92.0" y="652" text-anchor="start" font-family="'Tajawal','Cairo','Segoe UI',Arial,sans-serif" font-size="14" fill="#9aa49d" direction="rtl">9 فبر 2026</text>
<line x1="360.9" y1="622" x2="360.9" y2="630" stroke="#69746d" stroke-width="1"/>
<text x="360.9" y="652" text-anchor="middle" font-family="'Tajawal','Cairo','Segoe UI',Arial,sans-serif" font-size="14" fill="#9aa49d" direction="rtl">12 مار 2026</text>
<line x1="642.1" y1="622" x2="642.1" y2="630" stroke="#69746d" stroke-width="1"/>
<text x="642.1" y="652" text-anchor="middle" font-family="'Tajawal','Cairo','Segoe UI',Arial,sans-serif" font-size="14" fill="#9aa49d" direction="rtl">15 أبر 2026</text>
<line x1="911.1" y1="622" x2="911.1" y2="630" stroke="#69746d" stroke-width="1"/>
<text x="911.1" y="652" text-anchor="middle" font-family="'Tajawal','Cairo','Segoe UI',Arial,sans-serif" font-size="14" fill="#9aa49d" direction="rtl">15 ماي 2026</text>
<line x1="1180.0" y1="622" x2="1180.0" y2="630" stroke="#69746d" stroke-width="1"/>
<text x="1180.0" y="652" text-anchor="end" font-family="'Tajawal','Cairo','Segoe UI',Arial,sans-serif" font-size="14" fill="#9aa49d" direction="rtl">17 يون 2026</text>
<g data-overlay-type="support_resistance_zone" data-evidence-refs="ohlcv:2026-05-20:2026-06-17:low" data-zone-type="support_resistance_zone" data-zone-role="floor" data-lower="113.37999725341797" data-upper="114.2609977722168" data-method="20_session_extreme_atr_band">
<rect x="1174" y="678" width="5" height="14" fill="#d8b15a" opacity=".8"/>
<text x="1160" y="690" text-anchor="end" direction="rtl" font-family="'Tajawal','Cairo','Segoe UI',Arial,sans-serif" font-size="15" fill="#cad3c7">الحد الأدنى للنطاق المرصود</text>
</g>
<g data-overlay-type="support_resistance_zone" data-evidence-refs="ohlcv:2026-05-20:2026-06-17:high" data-zone-type="support_resistance_zone" data-zone-role="ceiling" data-lower="121.30900192260742" data-upper="122.19000244140625" data-method="20_session_extreme_atr_band">
<rect x="1174" y="700" width="5" height="14" fill="#d8b15a" opacity=".8"/>
<text x="1160" y="712" text-anchor="end" direction="rtl" font-family="'Tajawal','Cairo','Segoe UI',Arial,sans-serif" font-size="15" fill="#cad3c7">الحد الأعلى للنطاق المرصود</text>
</g>
<g data-overlay-type="structure" data-evidence-refs="ohlcv:2026-04-22:2026-05-19:range|ohlcv:2026-06-17:close" data-method="latest_close_vs_prior_20_session_range">
<rect x="1174" y="722" width="5" height="14" fill="#d8b15a" opacity=".8"/>
<text x="1160" y="734" text-anchor="end" direction="rtl" font-family="'Tajawal','Cairo','Segoe UI',Arial,sans-serif" font-size="15" fill="#cad3c7">الإغلاق ما زال داخل النطاق المرصود السابق</text>
</g>
<text x="1180" y="870" text-anchor="end" direction="rtl" font-family="'Tajawal','Cairo','Segoe UI',Arial,sans-serif" font-size="13" fill="#8d978f">المصدر: بيانات OHLCV اليومية من Yahoo · حتى 2026-06-17</text>
<text x="1180" y="890" text-anchor="end" direction="rtl" font-family="'Tajawal','Cairo','Segoe UI',Arial,sans-serif" font-size="12" fill="#5d675f">قراءة للبنية المرصودة، وليست توقعاً أو توصية</text>
</svg>
